<?xml version="1.0" encoding="UTF-8"?><svg id="Layer_2" xmlns="http://www.w3.org/2000/svg" viewBox="0 0 300 300"><defs><style>.cls-1,.cls-2{fill:#253528;}.cls-2{fill-rule:evenodd;}.cls-3{fill:#e4e6d9;}</style></defs><g id="social_elements"><g><circle class="cls-3" cx="150" cy="150" r="146"/><path class="cls-1" d="M150,8c37.93,0,73.59,14.77,100.41,41.59s41.59,62.48,41.59,100.41-14.77,73.59-41.59,100.41-62.48,41.59-100.41,41.59-73.59-14.77-100.41-41.59S8,187.93,8,150,22.77,76.41,49.59,49.59,112.07,8,150,8m0-8C67.16,0,0,67.16,0,150s67.16,150,150,150,150-67.16,150-150S232.84,0,150,0h0Z"/></g><g><circle class="cls-3" cx="150" cy="150" r="125"/><path class="cls-1" d="M150,32.5c64.89,0,117.5,52.61,117.5,117.5s-52.61,117.5-117.5,117.5-117.5-52.61-117.5-117.5S85.11,32.5,150,32.5m0-15c-35.39,0-68.67,13.78-93.69,38.81-25.03,25.03-38.81,58.3-38.81,93.69s13.78,68.67,38.81,93.69,58.3,38.81,93.69,38.81,68.67-13.78,93.69-38.81,38.81-58.3,38.81-93.69-13.78-68.67-38.81-93.69c-25.03-25.03-58.3-38.81-93.69-38.81h0Z"/></g><path class="cls-2" d="M142.08,129.64c-.07,1.41,.21,4.28,.38,5.7,.08,.7,.22,.52,.31,1.24,0,.01,0,.03,0,.04l.21,4.61s0,0,0,0c.04,1.34,.47,1.22,.53,2.63,.03,.63,.08,.85,.16,1.42,.17,1.18-.09,.06,.42,1.09,.44,.88,.27,1.76,.44,2.79,.1,.63,.28,.59,.42,1.14,.2,.76-.04,1.39,1.06,1.28,.63-.06,1.16-.98,1.5-1.44,.25-.34,.55-.75,.74-1.18,.08-.19,.13-.37,.25-.63,0,0,0-.01,0-.02l.7-1.74s.03-.06,.05-.09c.74-1.09,1.3-2.93,1.9-4.38,.26-.64,.4-.63,.69-1.25,.38-.83,.6-2.04,1.22-2.7,.64-.68,.88-1.65,1.33-2.57,.11-.24,.24-.39,.33-.55,.17-.33,.15-.45,.31-.76,.37-.72,.4-.26,.69-1.18,0-.02,.01-.04,.02-.06l2.51-5.41s.02-.04,.04-.07c.44-.66,.51-1.39,.87-1.92,.56-.82,1.62-3.84,2.16-4.76,.42-.71,1.12-1.79,1.28-2.57,.42-2.04,1.05-4.58,1.17-6.67,0-.02,0-.04,0-.05l.42-2.5s0-.03,.01-.05c.02-.09,.11-.38,.11-.4,.16-.41-.03-.16,.07-.25,.1-.08,.21-.13,.33-.13h1.46c.15,0,.27,.06,.37,.16,.1,.11,.14,.24,.13,.38-.05,.65-.15,1.49-.25,1.8-.43,1.37-.33,.36-.42,2.25-.06,1.27-.54,1.2-.64,4.63,0,.15,.05,.28,.16,.39,0,0,0,0,0,0,.03,.04,.11-.05,.16-.09,.01,0,.02-.02,.03-.03l1.53-1.37c.78-.7,1.01-1.66,2.06-2.74,.21-.22,.08,0,.26-.26,.43-.62,.64-1.5,.83-2.22,.25-.92,.64-1.16,.92-2.47,.05-.23,.24-.39,.47-.4l1.02-.06c.15,0,.28,.04,.38,.14,.11,.1,.16,.23,.15,.38-.01,.66-.06,1.24-.16,1.82-.33,1.81-2.43,4.82-3.6,6.48-.01,.02-.03,.04-.05,.06l-4.73,4.98c-.52,.56-.79,.77-1.29,1.19-.6,.52-1.66,2.18-2.02,2.95l-1.55,3.37s-.01,.03-.02,.04c-.21,.59-.07,.35-.36,.85-.47,.82-.87,1.45-1,2.46-.02,.18-.13,.32-.29,.39l-.2,.09c-.16,.08-.27,.22-.29,.4-.11,.91-.51,1.74-.97,2.55,0,.02-.02,.03-.02,.05l-1.1,2.55s0,.02-.01,.03c-.19,.53-.52,.86-.65,1.11-.16,.32-.43,1.45-1.04,2.68,0,0,0,.01,0,.02l-2.92,6.46s-.01,.03-.02,.04c-.2,.57-.34,.61-.62,1.1-.27,.47-.45,.85-.65,1.27-.42,.88-.84,1.53-.98,2.76-.02,.17-.11,.3-.26,.38-.34,.19-.21-.14-.46,.46l-.4,.98s-.04,.08-.06,.11c-.39,.52-.12-.15-.35,.93-.19,.91-.23,.49-.44,1.17-.3,.98,.43,9.36,.63,10.87,.12,.91,.48,1.14,.53,2.5,.07,2.01-.06,1.49,.58,1.97,.13,.1,.2,.24,.21,.4,0,1.74,.06,2.41,.43,4.02,0,.02,0,.03,0,.04l.29,2.12c.03,.22,.19,.39,.41,.43l.32,.06c.21,.04,.42-.05,.53-.24,.15-.25,.21-.19,.33-.45,.51-1.12,.18-1.69,1.35-3.15,1.03-1.29,.6-.03,1.18-1.79,.12-.37,.24-.57,.57-.9,.1-.1,.06-.06,.17-.15,.02-.01,.03-.03,.04-.04l.51-.59s.03-.04,.05-.06c.11-.18,.06-.13,.26-.4,0,0,0-.01,.01-.02l.93-1.36s0,0,0,0c.55-.77,.8-1.99,1.53-2.88,0,0,.01-.02,.02-.03l1.9-2.65s.01-.02,.02-.03c.44-.71,.91-1.02,1.26-1.72,.46-.92,1.39-1.58,1.98-2.46,.45-.66,.68-1.23,1.23-1.79,.69-.7,5.32-7.59,5.52-8.12,.6-1.57,.05-1.22,1.28-2.89,.02-.03,.04-.06,.06-.1l.9-2.09s.02-.04,.02-.06c.27-.95,.24-.41,.5-1,.26-.59,0-1.26,.36-1.75,.41-.55,.05,.38,.39-.49,0-.02,.01-.04,.02-.06l.75-2.96s0,0,0,0c.2-.87,.15-2.4,.52-3.17,.41-.86,.29,.45,.52-1.07,.25-1.65,.7-3.2,1.25-4.73,.2-.54,.17-.56,.38-1.03,.31-.7,.33-1.63,.64-2.37,0,0,0-.02,.01-.03l.13-.37s0-.03,.01-.05c0-.03,.01-.05,.02-.08,0-.02,0-.03,.01-.04l.58-1.69c.18-.5,.4-.46,.59-.98,0,0,0,0,0-.01l.61-1.53s0-.02,.01-.04c.39-1.24,.98-1.39,1.45-2.37,.01-.03,.02-.05,.04-.07l1.74-2.51s.06-.07,.1-.1c.68-.55,1.09-.16,1.19,.48,.13,.82-.2,1.59-.48,2.12-.36,.68-.12,.64-.32,1.26-.01,.03-.02,.06-.04,.09l-1.82,3.38s0,0,0,.01c0,.01-.02,.03-.03,.05-.02,.04-.04,.08-.05,.12l-.23,.93s0,.03-.01,.05c-.19,.54-.41,.65-.55,1.22l-.4,1.5s-.01,.04-.02,.06c-.36,.88-.31,1.79-.6,2.35-.38,.73-.42,.33-.5,1.35-.09,1.02,.15,2.34-.12,3.2-.58,1.88,.13-1.03-.19,.54-.16,.81,0,1.74-.24,2.41-.19,.53-.26,.72-.32,1.33-.1,1.09-.06,.58-.42,1.22-.01,.03-.02,.05-.03,.08l-.87,2.45s0,.03-.01,.04c-.1,.38-.19,.88-.33,1.22l-.58,1.38s-.03,.06-.04,.1c0,.02-.01,.03-.02,.05l-.47,.88s0,.01,0,.02c-.26,.45-1.14,1.46-1.47,2.64-.05,.16-.06,.24-.06,.29,0,.13-.05,.24-.15,.34l-.32,.32s-.01,.02-.02,.02c-.02,.03-.06,.06-.08,.09-.61,.85-.81,1.77-1.39,2.69,0,.01-.01,.02-.02,.03l-.87,1.18s-.02,.03-.03,.04c-.01,.02-.03,.05-.04,.07,0,.01-.02,.03-.02,.04l-1,2.01c-.41,.82-.71,.69-1.32,2.06-.18,.4-.33,.54-.6,.94,0,.01-.02,.02-.03,.04l-.59,.75s-.02,.02-.03,.04c-.02,.03-.04,.06-.06,.09-.43,.67-1.17,1.18-1.56,1.96-.01,.02-.02,.04-.03,.06l-.98,1.45s-.06,.08-.11,.12c0,0-.02,.02-.03,.02,0,0,0,0,0,0l-.28,.24s-.02,.01-.03,.02c-.77,.75-3.21,3.68-3.65,4.67-.52,1.14-.08,.19-.77,.99-1.34,1.55-2.59,4.21-3.5,6.08,0,0,0,.02-.01,.03l-1.38,2.48s-.01,.02-.01,.03c-.4,.85-.47,1.6-.95,2.38-.44,.73-1.01,1.26-1.16,2.16-.34,2.06-.86,4.01-.57,6.16,.08,.6,.29,.7,.43,1.33,.19,.88,.09,2.34,1.44,1.48,.65-.41,.22-.4,.77-.99,0,0,.02-.02,.03-.03l5.33-4.89s.03-.02,.04-.03c.46-.34,.43-.21,.88-.67,.33-.34,.51-.61,.83-.94,.3-.3,.59-.51,.96-.81,1.29-1.04,2.33-2.24,3.5-3.42,.6-.62,.31-.31,.66-1.09,.32-.71,1.51-2.17,2.04-2.93,.28-.41,.4-.67,.67-1.11,.46-.74,1.02-1.3,1.42-1.96,.52-.87,.69-1.32,1.43-2.1,.3-.32,.04,0,.31-.39,0,0,.01-.02,.02-.02l1.91-2.49s0,0,0,0c.76-.94,1.19-2.25,1.96-3.18,1.31-1.58,1.05-1.77,2.64-3.35,0,0,.02-.02,.03-.03l1.96-2.25s.01-.01,.02-.02c1.19-1.23,2.28-2.38,3.02-3.88,.55-1.1,1.32-2.26,1.7-3.46,.29-.88,.8-1.63,1.25-2.46,.33-.61,.64-.95,.79-1.56,.07-.32,.07-.4,.16-.74,.16-.57,.32-.77,.59-1.08,.17-.2,.15-.17,.32-.42,1.81-2.81,1.09-1.86,2.44-4.39,.01-.02,.02-.04,.03-.06l.47-1.26s0,0,0-.01c.34-.84-.03-.02,.32-.46,.03-.04,.06-.08,.07-.13l.96-2.45s0-.03,.01-.04c.34-1.14,.67-1.04,1.05-2.28,.57-1.82,1.25-3.28,1.75-5.22,.15-.6,.22-1.51,.9-1.74,2.08-.7,.18,4.66-.03,5.3-.38,1.18-.96,1.88-1.23,3.03-.06,.24-.19,.75-.26,.98-.17,.52-.27,.54-.51,.88-.35,.5-.65,1.24-.85,2-.01,.04-.08,.32-.1,.4,0,.02,0,.03-.02,.05-.12,.31-.07,.18-.23,.4-.01,.02-.02,.03-.03,.05l-.97,1.74s-.03,.06-.04,.09c-.15,.45-.05,.64-.24,1.13-.09,.23-.28,.47-.42,.8,0,0,0,0,0,.01l-2.34,5.79s-.01,.03-.02,.04c-.33,.64-.67,.99-.9,1.65,0,.02-.01,.04-.02,.06l-1.78,3.64s-.02,.04-.03,.06c-.41,.62-.46,1.26-.93,1.89-.03,.04-.26,.37-.27,.4-.12,.26-.11,.41,.35,.52,.27,.07,.21,.06,.49,.08,1.07,.07,5.05-.96,6.01-1.39,.64-.29,.11-.05,.68-.52,.5-.41,1.74-.87,2.37-1.13,.02,0,.03-.01,.05-.02l1.46-.79s.03-.02,.05-.03c1.06-.73,2.07-1.37,2.86-2.39,.01-.01,.02-.02,.03-.04l3.24-3.44s.01-.01,.02-.02c.28-.33,.26-.33,.57-.65,.43-.44,.73-.72,1.16-1.14,.64-.62,.86-1.21,1.43-1.74,0,0,0,0,.01-.01l.26-.26s0,0,.01-.01c.41-.45,.82-1.1,1.33-1.47,.15-.11,.33-.13,.5-.05s.28,.22,.3,.41c.03,.23,0,.49-.11,.85-.26,.86-2.13,3.58-2.73,4.35,0,0,0,.01-.01,.02l-.5,.72s-.05,.07-.07,.1c-.01,.02-.03,.05-.05,.07-.01,.02-.03,.04-.05,.06l-.9,.94s-.04,.05-.06,.07c-.66,1.01-2.28,2.6-3.16,3.12-.53,.31-.03-.06-.53,.37-.64,.55-1.22,1.29-1.98,1.73-.23,.13-.36,.15-.6,.29-1.33,.77-5.41,3.15-6.53,3.39-.02,0-.03,0-.05,.01l-1.54,.52s-.02,0-.03,0c-.84,.33-1.7,.32-2.51,.67-.04,.02-.08,.04-.11,.06-.93,.43-1.37,.27-2.67,.86-.85,.39-1.67,.55-2.49,1.02-.02,0-.03,.02-.04,.03l-2.17,1.52s-.01,0-.02,.01c-.68,.53-1.44,1.9-1.87,2.75-.02,.04-.04,.09-.06,.13-.22,.53-.31,.97-.69,1.33-.01,.01-.03,.03-.04,.04l-1.73,2.06s-.04,.06-.06,.09c-.35,.67-.17,.47-.66,1.04-.31,.37-.52,.58-.74,1.03-.4,.82-1.1,1.35-1.46,2.07-.37,.74-.08,.48-.63,1.16-1.69,2.07-1.63,2.61-2.59,3.79-.43,.54-.96,.76-1.35,1.44,0,0,0,.01-.01,.02l-1.49,2.34s-.02,.03-.03,.05c-.2,.4,.03,.02-.2,.33-.66,.88-6.55,6.96-7.65,7.77-1.88,1.39-3.49,2.95-3.76,5.51-.24,2.28,.19,2.6,.57,4.5,.13,.67,.14,.81,.42,1.16,.1,.12,.23,.19,.38,.19h.32c.2,.02,.37-.08,.46-.26,1.23-2.32,1.97-1.88,3.09-3.05,1.1-1.15,3.82-1.88,5.36-2.48,.55-.22,.37-.23,.81-.42,.63-.27,1.26-.22,2.05-.22,.06,0,.11,0,.16-.03,.41-.14,.18,0,.29-.26,.08-.17,.22-.28,.41-.3,.82-.09,1.4-.23,2.24-.25,1.41-.03,1.36-.33,3.09-.79,1.18-.32,4.25-1.11,5.07-1.68,.31-.22,.41-.34,.77-.46,.92-.3,2.22-.6,3.02-1.07,.46-.27,.36-.23,.83-.43,.95-.39,1.59-1.06,2.61-1.42l.52-.18s.02,0,.03-.01c.04-.01,.08-.03,.11-.05l2.52-1.19s.04-.02,.07-.03c.31-.1,.14,.03,.5-.16,.34-.18,.07-.04,.29-.22,.32-.27-.16,.03,.38-.33,.65-.43,1.58-.68,2.15-1.22,.42-.39,3.55-2.28,5-3.68,1.34-1.3,2.89-2.39,4.06-3.89,0,0,.01-.02,.02-.02l3.75-4.21c.5-.55,.51-.97,1.04-1.55,.03-.03,.05-.06,.07-.09l4.22-7.53s.02-.04,.03-.06c.2-.48,.11-.53,.38-1.01,.1-.17,.36-.51,.48-.73,.12-.22,.13-.31,.2-.49,.02-.04,.03-.09,.05-.13l1.66-3.84s.01-.02,.02-.04c.02-.03,.04-.07,.05-.1,.22-.45,.28-.88,.8-1.23,.16-.11,.36-.12,.53-.03,.17,.09,.27,.26,.26,.46-.04,1.5-.21,2.55-.9,3.95,0,.01-.01,.03-.02,.04l-.53,1.39s0,.02-.01,.03c-.15,.32-.4,.58-.63,1.09-.34,.75-.45,.64-.65,1.29-.43,1.38-.21,1.4-1.09,2.84,0,0,0,0,0,.02l-.68,1.03s-.03,.04-.05,.06c-.32,.36-.14,.01-.38,.42-.47,.77-.51,1.41-1.36,2.56-.4,.54-.62,1.5-.95,1.9-.3,.36-.07,.05-.5,.37-.96,.71-1.61,1.71-2.39,2.57l-3.49,3.94s-.01,.01-.02,.02c-.39,.39-.6,.45-.94,.81-.35,.38-.51,.66-.91,1.06-1.77,1.79,2.58,.21,3.02,.15,1.4-.19,2.25-.83,3.62-1.2,.3-.08,.71-.09,.93-.15,.75-.23,.02-.34,1.02-.7,.33-.12,.41-.06,.73-.17,1.04-.36,.29-.35,2.23-.79,.02,0,.04,0,.06-.02l1.01-.36s0,0,.01,0c.26-.09,.12-.08,.49-.12l.12,.9c.02,.12,0,.23-.07,.33-.53,.87-2.56,1.58-3.34,2.01-.61,.34-.38,.16-1.07,.36-1.05,.31-1.96,1.07-2.98,1.39,0,0,0,0-.01,0l-5.54,1.53s-.04,0-.06,.01c-.83,.13-.72,.48-2.17,.79-.8,.17-1.44,.4-2.16,.67-.79,.29-1.01,.64-1.72,1.05-.02,.01-.04,.02-.06,.03l-3.01,1.21s-.01,0-.02,0c-.57,.2-.44,.36-.96,.62-.39,.2-.67,.19-1.06,.37-.44,.2-.33,.22-.96,.45-.89,.34-1.58,.89-2.59,1.31-.04,.01-.08,.03-.11,.05,0,0-.02,0-.03,.01l-6.96,3.27s-.03,.02-.05,.03c-.84,.51-3.34,1.33-4.25,1.59-.55,.16-.68,.08-1.15,.26-.62,.25-.04,.21-.97,.45-1.51,.4-3.21,.41-4.71,.94-.78,.28-1.82,.11-2.56,.47-.74,.37-.96,.76-1.88,.98-.63,.15-1,.27-1.42,.67-.36,.34-.04,.05-.33,.36-.04,.04-.14,.16-.17,.19-.68,.66-1.43,1.17-1.93,1.95-.51,.8-.65,.7-1.09,1.38-.02,.03-.04,.06-.06,.09,0,.01-.01,.02-.02,.03l-.15,.2c-.64,.87-.15,1.64-.66,2.54-.65,1.15,.15,1.35,.27,2.99,.11,1.64,.73,.41,.65,2.02,0,.2-.12,.36-.31,.44-.64,.27-1.23,.62-1.94,.55-.07,0-.12-.02-.18-.05l-3.26-1.64c-.06-.03-.11-.07-.15-.12-1.18-1.34-.58-1.33-1.56-2.36-.35-.37-.18-.24-.45-.64-.4-.58-1.46-.8-2.11-1.22-.03-.02-.08-.05-.11-.08-.11-.08-.16-.12-.18-.14-.06-.07-.13-.11-.22-.14l-2.31-.69s0,0-.01,0c-2.98-.98-2.47-.58-5.02-1.17-.79-.18-.74-.34-1.63-.48-2.74-.44-6.97-.59-9.85-.55-1.3,.02-.92,.08-1.77,.41-.5,.19-1.03,.18-1.55,.4,0,0,0,0-.01,0l-1.46,.64s-.02,.01-.04,.02c-.81,.28-.56,.42-1.36,.73-.46,.18-1.26,.31-1.66,.49-.82,.35-.09,.43-1.2,.71-.98,.24-.84,.28-1.56,.55-.02,0-.03,.01-.05,.02l-4.7,1.3s-.08,.02-.13,.02c-2.02,.03-3.12,.19-4.97-.37-.22-.07-.37-.27-.36-.5l.02-.53c0-.21,.13-.38,.32-.46,.55-.22,.86-.09,1.46-.36,.62-.27,.05-.25,.79-.39,.33-.06,.87-.03,1.22-.04,1.37-.04,4.6-1.18,6.2-1.37,1.43-.16,.7-.41,1.72-.73,1.07-.33,.77,.03,1.89-.6,.47-.27,.88-.38,1.27-.57,.25-.12,.36-.42,.24-.67-.45-.98-2.34-1.16-3.25-1.52-.01,0-.02,0-.04-.01l-1.46-.45s-.06-.02-.09-.04c-.64-.34,.2-.22-1.07-.59-.03,0-.05-.02-.07-.03l-7.78-3.67s-.03-.02-.05-.02c-1.08-.36-.26-.39-1.12-.76-1.08-.46-2.92-1.15-3.44-1.67-.02-.02-.05-.06-.07-.08,0,0-.01-.01-.02-.02-.02-.02-.04-.04-.06-.06-.02-.02-.03-.03-.05-.05l-1.18-.88s-.04-.03-.06-.04c-2.12-1.15-.91-.58-2.68-1.85,0,0,0,0-.01,0l-1.15-.78s-.01,0-.02-.01c-.52-.38-.08-.18-.56-.46,0,0,0,0,0,0l-2.31-1.4s-.03-.02-.04-.03c-.25-.19-.29-.25-.48-.37-.26-.18-.42-.22-.67-.39-.59-.4-.3-.41-1.11-.79-.01,0-.02-.01-.04-.02l-.78-.45c-.2-.11-.17-.08-.36-.18-1.55-.8-3.4-1.7-4.79-2.82-.53-.43-.47-.56-.98-.96-.39-.31-1.24-.88-1.72-1.38-.11-.11-.16-.25-.14-.41,.02-.16,.09-.28,.22-.37,.97-.65,1.88,.23,2.64,.48,.94,.31,1.06,.23,1.89,.75,0,0,0,0,0,0l3.1,1.85s.01,0,.02,.01c.79,.42-.24-.14,.29,.2,.03,.02,.13,.1,.34,.21,.35,.18,.33,.1,.72,.33l2.62,1.61s.02,0,.02,.01c1.25,.68,.75,.3,1.96,1.36,.47,.41,.8,.45,1.31,.83,.4,.31,.84,.79,1.24,1.06,1.27,.86,2.64,1.81,4.01,2.39,1,.42,.2,.58,1.64,.67l-.75,.15c1.16,.11,1.43,.61,2.43,1,.78,.31,.96,.57,1.7,.94,.6,.3,.98,.8,1.62,1.01,.91,.29,1.72,.44,2.6,.95,.01,0,.02,.01,.03,.02l1.17,.57s.03,.02,.05,.03c.44,.29,.17,.44,.83,.61,.62,.15,.95,.13,1.55,.32,1.01,.31,1.71,.89,2.45,1.02,.03,0,.06,.01,.09,.02l1.22,.45s.04,.02,.06,.03c.86,.46,2.61,.27,3.69,.69,.47,.18-.16,.06,.66,.21,.95,.18,2.17,.03,2.97,.43,.7,.35,.36,.28,1.41,.3,.01,0,.02,0,.03,0l4.88,.44s.05,0,.07,.01c.69,.16,.31,.26,1.4,.34,.01,0,.02,0,.03,0l2.94,.39s.02,0,.03,0c.63,.12,.48,.19,1.43,.31,1.42,.18,4.44,.84,5.69,1.39,.63,.27,.74,.1,1.36,.42,.65,.33,.49,.38,1.06,.36,.28,0,.5-.23,.5-.51-.01-1.18-.14-2.4-.32-2.84-.01-.03-.02-.05-.04-.08-.01-.03-.02-.05-.03-.08l-.53-1.85s-.01-.05-.01-.07c-.14-1.04-.1-.42-.47-1.12-.72-1.38-1.05-1.6-2.12-2.66-1.61-1.58-4.9-3.28-6.94-4.25-.55-.26-.77-.22-1.49-.25-.03-.09-.06-.16-.07-.21-.05-.16-.16-.27-.32-.33l-1.97-.69s-.02,0-.03-.01c-.04-.02-.07-.03-.11-.04,0,0-.02,0-.02-.01l-1.42-.64s-.02,0-.03-.01c-.04-.02-.08-.04-.11-.06-.1-.05-.37-.16-.5-.22-.9-.4-.93-.36-2.16-.39-1.4-.04-3.24-.09-4.62,0-1.21,.07-.81,.34-1.93,.37-1.24,.04-8.24,.13-8.98-.07-.56-.15-.18-.5-1.79-.68-.02,0-.03,0-.05,0l-1.81-.39s-.05-.01-.08-.02c-.31-.12-.26-.26-.67-.45-.54-.24-.48-.04-.99-.27-.67-.31,.1-.11-.63-.41-.79-.33-.85-.18-1.79-.71-.55-.31-.52-.03-.52-.27,0-.23,.14-.42,.36-.49,1.23-.38,2.9,.03,4.01,.16,.45,.05,.8,0,1.22,.04,1.19,.09,.84,.39,3.72,.41,1.33,0,1.14-.1,2.22,.36,.73,.31,6.9-.25,7.37-.45-.12-.59-.03-.25-.32-.6-.01-.01-.3-.28-.42-.39-.02-.02-.04-.04-.07-.05l-1.71-1.05s-.03-.02-.04-.02c-1.61-.79-3.87-2.81-5.72-3.78-.01,0-.02-.01-.03-.02l-1.71-1.08s-.01,0-.02-.01c-.46-.32-.65-.49-1.25-.7-1.45-.5-1.09-.75-2.39-1.49-.43-.24-.94-.33-1.25-.54-.49-.33-1.74-1.18-2.48-1.35,0,0-.02,0-.02,0l-1.07-.3s-.06-.02-.08-.03c-.93-.45-2.65-.12-3.51,.15-.96,.3-2.7,.14-3.64,.27-3.79,.52-5.35-.35-7.05-.51-1.13-.11-1.76-.55-2.75-.96-.05-.02-.2-.08-.26-.1-.98-.4-1.15-.98-2.15-1.37-1.16-.46-1.45-.82-2.39-1.55-.41-.32-1.11-.78-1.5-1.29-.12-.15-.14-.34-.06-.52,.08-.18,.24-.29,.43-.3,.95-.06,.88,.33,1.64,.7,.59,.29,.53,.11,1.07,.54,.77,.62,1.55,.85,2.39,1.3,0,0,.02,0,.03,.01l.53,.32s.01,0,.02,0c.61,.34,1.38,.28,2.03,.61,0,0,.02,0,.02,.01l.18,.11s.03,.02,.05,.03c2.1,.93,5.35,.7,7.5,.19,.18-.04,.59-.09,.76-.12,.71-.13,.86-.27,1.23-.36,.54-.13,.67-.04,.97-.14,.24-.08,.38-.31,.34-.56-.08-.51-.44-.67-.9-.97-.59-.39-1.22-1.7-2.12-2.48-.93-.8-1.47-1.86-2.31-2.75-.03-.03-.05-.06-.07-.1l-1.43-2.55s-.01-.02-.02-.03c-.13-.28-.23-.38-.39-.62,0-.01-.01-.02-.02-.04l-1.2-2.31s0-.01,0-.02c-.69-1.47-.98-2.59-1.3-3.33-.02-.03-.04-.08-.06-.11l-.7-1.36s-.02-.05-.03-.08c-.1-.31-.12-.36-.31-.69-.58-1.05-.18-1.58-.82-2.72-.49-.86-.1-1.17-.4-1.95-.06-.16-.23-.31-.34-.72-.11-.4-.09-.8-.11-1.23h-.3c-.29-.79-.2-.4-.38-1.39-.11-.63-.34-.46-.66-1.91-.09-.4-.1-.28-.22-.66-.31-1-.16-2.19-.55-3.18-.34-.89-.35-2.46-.22-3.48,.07-.51,.21-.76,.62-.92,.25-.1,.54,.02,.65,.27,.24,.56,.34,1.31,.67,1.86,.1,.17,.11-.06,.21,.54,.14,.76-.12,1.59,.18,2.25,0,.02,.02,.03,.03,.05l.17,.28s.02,.03,.03,.05c.01,.03,.03,.07,.04,.1,.24,.65,.18,1.23,.27,2.01,0,.03,0,.06,.02,.09l1.77,5.9s.01,.04,.02,.06c.24,.55,.2,.51,.37,1.17,0,.02,0,.03,.02,.05l.99,2.77c.02,.05,.04,.09,.08,.14,0,.01,.02,.02,.03,.03,.63,.93,1.07,3.01,1.47,3.64,0,.01,.01,.02,.02,.04l1.09,2.05s.01,.02,.02,.04c.43,.66,.75,1,1.15,1.82,0,.02,.02,.03,.02,.04l.86,1.39s.01,.02,.02,.03c.4,.78,1.02,1.4,1.63,2.18,.01,.01,.02,.03,.03,.04l1.52,1.61s0,0,0,0c.97,1.06,.99,.79,1.7,1.49,.5,.49,.77,.78,1.19,1.14,.12,.1,.26,.14,.42,.11s.28-.12,.35-.25c.24-.44,.22-.71,.21-1.77-.01-1.14,.21-1.83,.2-2.66,0-.67-.14-.74-.13-1.22,0-.27,.12-.75,.13-1.23,0-.02,0-.03,0-.05l-.44-8.07s0-.04,0-.06c-.12-.67-.62-1.31-.74-2-.33-1.89-.68-3.73-1.76-5.32,0,0,0-.01-.01-.02l-1.6-2.61s-.02-.03-.03-.05c-.18-.38-.22-.74-.36-1.01,0,0,0,0,0-.01l-3.63-6.19s-.03-.06-.04-.09c-.28-.83-.55-.77-.61-1.66-.01-.18,.07-.34,.22-.45,.15-.1,.33-.12,.49-.05,.15,.07,.26,.18,.52,.35,.92,.61,1.68,1.74,2.27,2.71l1.23,2.06s.03,.04,.05,.07c1.27,1.51,.32,.14,1.29,1.98,0,.01,.01,.02,.02,.04l.96,2.23s0,.02,.01,.03c.6,1.21,.81,1.01,1.14,2.17,.19,.67,.4,.59,.76,1.74,.14,.44,.12,.26,.29,.61,.23,.49,.18,.77,.44,1.17,.37,.57,.41,.04,.62,1.11,0,.02,0,.04,.02,.07l.28,.8c.02,.06,.04,.1,.08,.15,0,0,.01,.02,.02,.03,.28,.44,.29,.82,.3,1.44,0,.01,0,.02,0,.03l.58,6.18s0,.01,0,.02c.2,3.32,.15,6.46,.18,9.76,.01,1.35,.76,2.52,1.35,3.57,.14,.25,.16,.32,.34,.51,.01,.01,.02,.02,.03,.03l.17,.15s.01,0,.02,.01c.02,.02,.05,.04,.07,.06,.01,0,.02,.02,.04,.03l2.11,1.37s.02,.01,.03,.02c1.41,.78,2.88,1.59,4.15,2.56,.65,.5,.39,.16,1.09,.46,.01,0,.03,.01,.04,.02l12.93,6.89s0,0,.01,0c.62,.36,.69,.16,1.31,.47,0,0,0,0,.01,0l1.04,.54s.01,0,.02,0c.27,.13,.88,.48,1.17,.59,.49,.19,.9,.15,1.24,.28,.05,.02,.09,.04,.13,.07l.43,.31s0,0,0,0c.23,.18,.33,.24,.51,.36,0,0,0,0,0,0l1.38,.9s0,0,.01,0c.45,.32-.12,.13,.62,.32,.94,.24,1.2,.13,1.83,.6,.17,.13,.39,.25,.59,.34,.2,.09,.33,.12,.49,.18,0,0,.02,0,.03,.01l2.21,1.14c.78,.41,.79,.67,1.52,.77,.15,.02,.29-.02,.41-.12,.11-.1,.17-.24,.17-.39,0-.1,0-.2-.02-.31-.1-.9-.61-2.88-1.01-3.52-.66-1.07-.35-.93-.82-1.65,0,0,0,0,0-.01l-.99-1.58s-.02-.03-.03-.05c-.88-1.89-2.32-1.93-3.04-2.96-.54-.77-1.24-1.05-1.97-1.63-.38-.3-.18-.05-.51-.38-.07-.07-.22-.28-.31-.38l-1.29-1.34s-.02-.03-.04-.04c-.21-.27-.17-.2-.4-.44-.12-.12-.27-.28-.42-.42-.02-.02-.03-.03-.05-.05l-2.3-2.8c-.99-1.2-.39-.7-1.66-1.83-.01-.01-.02-.02-.03-.03l-1.19-1.25s-.01-.01-.02-.02c-.15-.14-.24-.18-.48-.38-.71-.63-1.1-1.19-1.72-1.82-.45-.46-.67-.92-1.17-1.29-.63-.47-.67-.98-1.12-1.56-1.23-1.55-1.1-1.4-1.81-3.36-.36-.99-.34-1.71-.3-2.83,0-.14,.06-.26,.17-.36,.11-.1,.23-.14,.37-.13,1.95,.13,1.05,2.14,1.96,3.27,1.05,1.3,1.95,2.89,3.06,4.03l5.01,5.25s.02,.02,.03,.03c.53,.49,.96,.71,1.39,1.21,.01,.01,.02,.02,.03,.03l3.86,3.69s.03,.03,.04,.05c.61,.74,.74,.58,1.42,1.17,0,0,.01,0,.02,.01l1.37,1.09s.01,0,.02,.01c.58,.42,.5,.75,1.17,.78,.9,.03,.41,.05,.48-.08,.05-.1,.07-.19,.06-.3l-.54-4.94s0-.01,0-.02c-.09-1.12-.67-2.72-.87-5.29,0-.01,0-.02,0-.04-.14-.95-.06-.14-.25-.57,0-.02-.19-.62-.2-.7-.1-.65-.19-1.5-.23-2.09-.17-2.21-.06-1.04-.41-1.91-.78-1.98,.36-3.48-1.6-5.33,0,0,0,0-.01-.01l-2.28-2.29s-.04-.04-.07-.06c-.35-.24-1.25-.38-1.58-.6-.01,0-.02-.01-.03-.02l-.65-.35s-.03-.01-.04-.02c-.62-.26-.25-.09-.79-.42,0,0-.01,0-.02,0l-1.75-.99s-.08-.05-.11-.09c-.44-.44-.43-.38-1.07-.61-.84-.3-.51-.53-1.33-.92-.02,0-.04-.02-.06-.03l-7.23-4.57s-.01,0-.02-.01c-.05-.03-.25-.15-.34-.19-.4-.22-.37-.17-.77-.48l-3.2-2.45s-.02-.01-.02-.02c-.41-.36-.25-.21-.78-.4-1.3-.47-.51-.55-1.19-1.14-.26-.22-.37-.17-.71-.35-.28-.15-.4-.27-.68-.56,0,0-.01-.01-.02-.02l-4.67-5.5s-.05-.07-.07-.11c-.48-.98-.12-.59-.56-1.31-.02-.04-.05-.08-.08-.12-.02-.04-.05-.09-.07-.13-.16-.34-.16-.6-.33-.87,0,0,0-.01-.01-.02l-1.01-1.75s-.01-.02-.02-.03c-.23-.33-.26-.87-.28-1.35,0-.16-.08-.29-.2-.38-.96-.73-.98-1.44-1.18-2.81-.06-.39-.1-1.5-.21-1.93-.23-.88-.45-.96-.45-1.85,0-2.43-1.04-5.78,.71-7.16,.03-.02,.08-.06,.11-.08,.02-.02,.07-.05,.11-.08,.87,1.07,.83,3.99,1.28,5.17,.44,1.14,.47,2.41,.92,3.47,.48,1.12,.19,2.98,1.67,5.95,0,0,0,.01,0,.02l1.92,4.32s.05,.09,.08,.13l4.68,5.34s.01,.01,.02,.02c.35,.44,.43,.3,.92,.62l8.71,5.78s.06,.04,.08,.07c.58,.6-.27,.15,.58,.54,1.09,.5,1.88,.66,2.82,1.41,.02,.01,.03,.03,.05,.04l3.37,2.06s.01,0,.02,.01c.83,.57,3.45,1.79,4.88,2.27,.17,.06,.34,.02,.48-.09,.14-.11,.21-.27,.19-.44-.14-1.44-.86-.92-1.03-6.51-.03-.02-.09-.08-.1-.05l-.21-.56c-.02-.06-.03-.11-.03-.18,0-1.45,0-4.79-.32-5.89-.54-1.9-.41-2.25-.45-4.31-.02-1.11-.19-1.64-.17-2.83,.02-2-.38-1.53-.54-2.68-.11-.76,.12-.59-.25-1.22-1.25-2.14-.85-1.86-2.99-3.18-.03-.02-.06-.04-.08-.06l-3.42-3.25s-.05-.06-.08-.09c0,0,0,0,0,0-.02-.03-.04-.06-.07-.08l-5.8-5.81s-.03-.03-.04-.04c-.02-.02-.04-.04-.05-.06,0-.01-.01-.02-.02-.03l-.78-1.14c-.2-.29-.14-.25-.33-.55-.24-.38-.4-.46-.65-.6-.15-.08-.24-.22-.26-.39-.12-1.22-.21-.67-.63-1.54,0,0,0,0,0-.01l-.41-.79s-.03-.06-.06-.09c-.81-1.01-1.72-2.93-1.4-4.4,.2-.92,1.13-.63,2.18-.45,.23,.04,.39,.22,.41,.45,.25,2.63,2.02,5.97,3.68,7.75,0,0,0,0,0,0l2.32,2.39s.04,.04,.06,.06c1.73,1.27,3.42,3.85,5.21,4.63,.04,.02,.09,.04,.13,.05,.03,.02,.07,.04,.11,.05,0,0,.02,0,.03,.01l.97,.41s.01,0,.02,0c.73,.27,1.69,1.14,2.3,.34,.47-.62-.25-7.6,.51-10.05,.21-.69,1.17-15.31,1.51-20,0-.06,0-.12-.02-.18-.23-.81,.13-2.05,.39-2.62h0s-.04-.07-.02-.09c.02-.03,.04-.06,.06-.09,.04-.08,.1,.08,.21-.43,0-.03,0-.05,.01-.08l.32-5.87s0-.02,0-.03c.09-.74,.28-1.44,.4-2.03,.3-1.42,.08-3.11,.31-4.67,.18-1.21-.56-2.29,2.4-1.99,.25,.03,.45,.23,.46,.49,.06,2.03,.26,7.73-.23,8.78-.32,.69-.49,5.59-.43,6.63,0,.05,.01,.09,.03,.14,0,0,0,0,0,0-.02,.04-.03,.08-.04,.13-.02,.11-.07,.21-.17,.3-.37,.33-.54,.7-.68,1.05-.02,.05-.03,.09-.03,.14l-1.83,22.07s0,.05-.01,.07c-.2,.87-.15,5.64-.09,7.72,0,.16,.08,.3,.21,.39,.13,.09,.28,.12,.44,.08,.56-.16,.42,.18,.85-1.13,.36-1.1,1.45-1.74,1.8-2.81,.7-2.17,2.13-4.26,2.98-6.4,0-.01,0-.02,.01-.03l6.05-18.64c.07-.21,.25-.35,.48-.35l1.44-.02c.16,0,.3,.07,.41,.19,.1,.13,.13,.28,.09,.44-.78,2.98-4.51,14.26-4.78,15.61,0,.04-.02,.07-.03,.1l-3.89,8.97s-.02,.04-.03,.05c-.19,.32-.18,.42-.32,.7-.54,1.09-.53,.15-.79,1.02-.01,.04-.03,.08-.05,.11l-4.35,7.22c-.04,.07-.07,.15-.07,.23h0Zm-25.04-34.48c.09,.82-.32,1.31-.61,2.06-.1,.24-.36,.37-.61,.3-.94-.26-1.21-.6-2.2,.79-.95,1.33-.08,1.9,.27,2.86,.08,.22,0,.45-.18,.59-.28,.2-.41,.13-.41,.79,0,.61,.31,.79,.27,1.39-.05,.76-.54,1.83-1.12,2.24-.07,.05-.12,.1-.16,.18-.5,.93-4.86,.88-5.91,1.62-.13,.09-.21,.23-.21,.39-.07,1.46-1.93,5.76-2.65,7.11,0,.01-.01,.02-.02,.03l-1.96,3.13s0,0,0,.01c-1.08,1.61-1.84-.3-2.84-.96-.12-.08-.25-.1-.39-.07-.14,.03-.25,.11-.32,.23l-.74,1.19s-.04,.07-.05,.11c-.32,.97-.21,1.1-.79,1.92-.02,.04-.04,.07-.06,.11l-1.48,3.86s-.01,.04-.02,.06c-.25,1-.89,1.79-1.28,2.77-.5,1.23-1.1,2.73-1.99,3.69-.42,.45-.32,.73-1.17,.65-1.29-.12-.63-1.37-2.28-1.46-.23-.01-.43,.12-.5,.33l-.93,2.53s0,0,0,.01c-.39,.99-.23,.06-.49,.9-.11,.37-.06,.72-.14,1.1,0,.02-.01,.04-.02,.07l-.71,2.03s-.02,.04-.03,.06c-.38,.75-.28,.05-.53,.83-.12,.38-.05,.7-.17,1.11-.08,.27-.31,.55-.46,.92,0,0,0,.02,0,.03l-.69,2.13s0,.02,0,.03c-.31,.79-1.22,2.46-1.88,3.15-.12,.12-.27,.17-.44,.15-.48-.07-.03-.04-.41-.18-.19-.07-.45-.16-.65-.24-.34-.14-.49-.24-.61-.32-.13-.09-.29-.11-.44-.06-.15,.05-.27,.16-.32,.32-.78,2.25-.74,7.52-.47,9.58,.1,.8,.48,1.35,.29,2.3-.26,1.29-.57,.3-.06,2.14,.01,.05,.02,.09,.02,.14l-.05,3.74s0,.05,0,.07c-.08,.5-.17,.54-.4,.71-.14,.11-.32,.13-.49,.07-.77-.29-.71-.85-2.13-.53-.23,.05-.39,.25-.39,.48-.03,1.42,.57,2.1,.73,3.5,.18,1.58,.11,.68,.53,1.73,.31,.77-.03,2.25,.39,2.98,.41,.71,.25-.11,.49,.77,0,0,0,0,0,.01l.44,1.81s0,.03,.01,.04c.36,1.09,.09,2.29,.61,3.45,.11,.24,.07-.11,.3,.7-1,0-1.72-.17-2.15-.25-.15-.03-.28,0-.4,.09-.12,.09-.19,.21-.2,.36-.02,.25,0,.52,.07,.77,0,.04,.03,.08,.04,.11,0,.01,0,.02,.01,.04l.1,.22s.04,.08,.06,.12c.02,.04,.04,.08,.06,.12,.14,.35,.13,.33,.22,.72,.23,.96,.22,1.23,.65,1.96l3.18,5.34c.22,.37,0,0,.38,.44,.01,.01,.02,.02,.03,.04l1.05,1.58s.01,.02,.02,.03c.2,.34,.12,.23,.32,.51,0,0,0,0,.01,.02l.36,.51s.02,.02,.02,.04c.12,.21,.22,.39,.3,.48,0,0,.01,.02,.02,.03l1.15,1.26s.05,.06,.07,.1c.23,.44-.07,.1,.27,.49,.26,.3,.73,.7,1.11,1.11,.14,.15,.18,.36,.09,.55-.08,.19-.26,.3-.47,.3-.65,0-1.28,0-1.8,.14-.26,.07-.42,.34-.36,.61,.21,.88,.85,1.54,1.46,2.21l2.61,2.85s.02,.02,.03,.03c.63,.57,1.34,.88,1.86,1.47,.12,.14,.34,.38,.49,.52,.02,.02,.04,.03,.06,.05l4.64,3.09s.02,.01,.03,.02c1.22,.93,4.13,2.58,5.5,3.37,.84,.48,1.62,.88,1.86,1.79,.04,.15,.01,.3-.08,.42-.09,.13-.22,.2-.38,.21-.64,.04-1.11,.15-1.55,.36-.14,.07-.24,.18-.28,.34-.04,.15,0,.3,.09,.43,.32,.43,.81,.75,1.33,.95,1.4,.53,1.74,1.21,3.18,1.59,.53,.14,.83,.17,1.3,.31,0,0,0,0,.01,0l2.49,.7s.05,.01,.07,.01c2.36,.31,.78,.56,2.61,.61,.93,.02,.68,0,1.32,.21,.87,.28,2.31,.46,2.97,.85,.02,.01,.03,.02,.05,.03l.16,.12s.03,.02,.04,.03c.5,.31,.93,.3,1.43,.66,.43,.31,.43,.37,.56,.53,.16,.19,.16,.47,0,.66-.23,.27-.48,.53-.77,.78-.19,.17-.4,.3-.57,.49-.07,.07-.12,.12-.17,.16-.14,.13-.19,.31-.15,.49,.04,.18,.17,.32,.36,.37,1.32,.37,1.8,.67,3.45,.72,1.54,.05,2.54,.36,4.43,.36,.6,0,1.73-.06,2.28,.03,.75,.13,1.28,.31,2.15,.3,.75-.01,4.02-.27,4.55,.25,.42,.41-.9,1.29-.79,2.2,.19,1.67,2.3,.58,2.53,.51,.5-.14,.93-.02,1.45-.17,.4-.11,.71-.38,1.31-.44,2.29-.25,1-.29,2.54-.83,1.06-.37,1.41-.53,2.21-1.18,.6-.49,.48-.23,1.04-.5,.01,0,.02-.01,.04-.02l.2-.12s.02-.01,.03-.02c.31-.22-.02,0,.24-.23,.02-.01,.03-.02,.05-.04l1.44-.96s.03-.02,.04-.03c.09-.07,.46-.37,.47-.38,1.63-1.02,3.09-2.61,5.15-2.63,1.21,0,2.04-.02,2.49,.84,1.26,2.4-1.84,2.42,.52,4.71,.04,.04,.07,.08,.1,.14l1.03,2.09s.02,.05,.03,.07c.39,1.25,.14,3.21,.39,4.53,.1,.53,.17,.59,.3,1.36,0,.05,.02,.1,.05,.15l.52,1.02s0,.02,.01,.03c.55,.94,.36,3.16,.29,4.53,0,.14,.04,.27,.14,.38,.1,.1,.22,.16,.37,.16l6.36-.04c.2,0,.37-.11,.45-.29,.08-.16,.11-.2,.27-.28,.17-.09,.26-.25,.27-.43,.04-1.6,.21-1.98-.64-3.32,0,0,0,0,0-.01l-.13-.22s0,0,0,0c-.49-.79-.44-.7-.42-1.93,.01-1-.02-1.62-.13-2.4-.1-.72,.03-1.5-.11-2.23-.27-1.45-.55,.04-.53-1.92,0-.74,.02-1.59-.02-2.32-.14-2.13-.69-3.97,1.61-5.23,.47-.26,1.3-.23,1.97-.12,0,0,.02,0,.02,0l3.93,.85s.05,0,.07,.01c1.22,.09,.61,.42,1.75,.63,1.16,.21,2.65,.11,3.84-.13,.03,0,.05-.01,.07-.02l.41-.15s.02,0,.03-.01c.85-.38-.51-1.61,.3-2.38,.27-.25,2.64,.09,4.52-.52,.44-.14,1.73-.2,2.19-.27,.88-.12,1.6-.09,2.41-.27,.46-.1,.47-.19,.96-.27,1.05-.17,2.34-.29,3.21-.73,.56-.29,1.33-.16,2.02-.45l1.64-.72c.15-.07,.25-.18,.29-.34l.07-.29c.04-.16,0-.32-.1-.45-.29-.34-.67-.56-1.01-.84-.14-.11-.21-.28-.19-.46,.13-.99,.72-.89,1.58-1.37l3.44-1.87s.01,0,.02-.01c.77-.37,1.82-.49,2.53-1.02,.58-.43,1.05-.44,1.74-.76,.04-.02,.12-.07,.18-.11,.02-.01,.05-.03,.07-.04l2.87-1.17s.03-.01,.05-.02c.56-.16,.6-.34,1.05-.64,.99-.66,2.34-.76,3.51-1.79,0,0,.01-.01,.02-.02l.17-.16s0,0,0,0c.06-.06,.11-.11,.16-.14,.14-.12,.21-.29,.18-.47-.03-.18-.14-.33-.31-.4-.04-.01-.07-.03-.11-.05-.86-.4-1.82-.38-2.07-.81-.4-.69,1.01-1.66,1.48-2.01,.77-.57,2.04-2.06,2.61-2.86,.53-.75,.27-.45,1.02-.94,.74-.48,.33-.39,.78-.99,.42-.57,.63-.35,1.09-.86,.41-.47,.21-.46,.77-1,0,0,0,0,0,0l.55-.5s.01,0,.02-.01c.03-.02,.06-.05,.09-.07,.03-.02,.07-.06,.1-.08,1.29-1.09,2.64-2.86,3.87-4.09,.69-.7,1.25-.93,1.35-2.04,.02-.25-.13-.48-.38-.54-1.69-.44-3.37,.79-2.66-1.62,.4-1.39,1.02-2.41,1.54-3.95,.21-.61,.26-.7,.54-1.17,.01-.02,.02-.04,.03-.06l1.73-3.92s0-.02,0-.02c.46-1.2,1.29-2.23,1.95-3.3,.33-.53,.31-.83,.58-1.38,.78-1.58,.62-.79,.76-3.01,.06-1.02,.21-.44,.33-1.41,.06-.49,.11-1.22-.11-1.62-.1-.18-.29-.28-.49-.26l-.99,.1s-.06,0-.09,.02c-.55,.15-.69,.2-1.18,.21-.25,0-.47-.17-.51-.41-.19-1.02-.15-2.42-.04-3.54,.12-1.18,.3-.27,.36-1.58,.03-.66-.07-1.49,0-2.14,.1-.91,.28-.47,.33-1.59,.09-1.88,.49-3.38-.08-5.08-.05-.15-.15-.25-.29-.31s-.29-.05-.43,.02c-.56,.3-.77,.81-1.29,1.3l-.27,.25s0,0,0,0c-.26,.23,.12,.03-.27,.23-.28-.12-.65-.46-.97-.72-.12-.09-.18-.22-.19-.37-.11-2.14-.8-2.78-1.16-4.19,0-.01,0-.02-.01-.04l-1.39-4.15s-.03-.07-.04-.1c-.39-.65-.25-1.43-.53-2.24-.28-.8-.57-1.01-.71-2.16-.11-.94-.53-1.29-.7-2.14-.14-.71-.18-1.31-.79-1.48-.23-.06-.47,.04-.58,.25-.24,.45-.46,.88-.67,1.27-.29,.53-.45,.87-.9,1.11-.24,.13-.54,.04-.68-.19-.26-.44-.56-.87-.91-1.32,0-.01-.01-.02-.02-.03l-.55-.82s-.01-.02-.02-.03c-.54-.67-1.22-2.19-1.83-3.06-.01-.02-.02-.03-.03-.05l-.48-.89s-.02-.03-.02-.04c-.02-.03-.04-.05-.05-.08-.01-.02-.03-.05-.05-.07-.01-.02-.02-.03-.03-.05l-1.13-2.03s0-.01-.01-.02c-.42-.68-.85-.33-1.32-1.48-.36-.9-1.09-1.87-1.54-2.71-.11-.2-.15-.34-.17-.43-.06-.21-.24-.36-.46-.38-.22-.01-.42,.11-.5,.32l-.25,.63s-.01,.03-.01,.04c-.23,.75-.39,1.18-1.18,1.26-.17,.02-.33-.05-.44-.18l-1.06-1.27c-.45-.53-.26-.43-.61-1.08-.01-.02-.02-.04-.04-.06l-1.39-1.87s-.03-.04-.04-.06c-.45-.83-.91-1.39-1.15-2.5-.6-2.78-1.52-3.08-2.33-4.98-.12-.27-.09-.26-.21-.49,0,0,0-.01-.01-.02l-1.33-2.17c-.1-.16-.25-.24-.44-.24h-.34c-.2,0-.38,.12-.46,.31-.13,.31-.25,.63-.4,.94-.08,.18-.25,.29-.44,.29-.63,.02-.54-.06-.98-.59-.58-.7-.32-.44-.7-1.13-.03-.05-.05-.1-.06-.15-1.01-5.26-4.28-8.18-5.8-10.07,0,0-.01-.01-.02-.02-.93-1.28-.19-2.23-.72-2.76,0,0-.02-.02-.03-.02-.73-.63-1.63,0-2.09,.59-.61,.77-.42,1.44-.32,2.36,.02,.14-.02,.28-.12,.39-.09,.11-.22,.17-.36,.18-2.09,.09-.37,.76-12.48-7.77-1.53-1.08-1.42-1.32-2.56-2.52-.03-.04-.06-.07-.08-.12-4.69-9.2,1.87-5.07-11.53-18.17-.12-.12-.28-.17-.45-.14-.65,.12-.9,.6-1.49,.18-.41-.29-.38-2.18-.98-3.86-.29-.82-.63-.66-1.47-.67-.2,0-.38-.12-.46-.31-.64-1.48-.31-2.86-1.51-6.03-.24-.64-.3-1.22-.46-1.89-.06-.23-.26-.38-.49-.38h-.35c-.23,0-.43,.15-.49,.37l-.75,2.77s-.01,.05-.01,.07c-.07,.6,.01,1.24-.11,1.84-.15,.72-.27,.62-.31,1.52,0,.19-.11,.35-.28,.43-.86,.43-1.19,.43-1.14,1.98,.05,1.48-.14,1.7-.39,2.5-.05,.16-.16,.28-.32,.33-.16,.05-.32,.03-.46-.07-.09-.06-.22-.1-.74-.08-.16,0-.29,.08-.38,.2-.51,.68-.25,.91-.41,2.04-.15,1-.45,.91-.55,2.12-.01,.15-.09,.28-.21,.37-.35,.25-.74,.51-.57,.84,.07,.13,.08,.27,.02,.41-.05,.14-.15,.24-.29,.29-.14,.05-.3,.31-1.3,2.11-.07,.12-.11,.22-.15,.32-.07,.2-.25,.32-.45,.33-.21,0-.39-.1-.48-.29-.08-.18-.17-.34-.34-.46-.15-.1-.32-.12-.49-.05-.16,.07-.27,.21-.3,.38-.12,.74,.32,1-1.09,3.01-.32,.45-.3,.61-.41,.91-.07,.18-.21,.3-.4,.33-2.4,.35-3.66,7.33-13.29,10.72-.22,.08-.36,.3-.34,.53Z"/></g></svg>