<?xml version="1.0" encoding="UTF-8"?><svg id="Layer_2" xmlns="http://www.w3.org/2000/svg" viewBox="0 0 200 241.72"><defs><style>.cls-1{fill:#e3e5d8;fill-rule:evenodd;}</style></defs><g id="cbnl-leaf_light"><path class="cls-1" d="M89.44,93.71c-.1,1.88,.28,5.7,.5,7.6,.11,.94,.29,.69,.41,1.65,0,.02,0,.03,0,.05l.28,6.15s0,0,0,.01c.05,1.79,.63,1.63,.7,3.51,.03,.83,.11,1.14,.21,1.89,.22,1.57-.12,.08,.56,1.45,.59,1.17,.36,2.35,.59,3.72,.14,.85,.37,.79,.56,1.52,.27,1.01-.06,1.85,1.41,1.71,.84-.08,1.55-1.3,2-1.92,.34-.46,.73-.99,.99-1.57,.11-.25,.18-.5,.34-.84,0,0,0-.02,.01-.03l.94-2.33s.04-.08,.07-.13c.98-1.45,1.73-3.9,2.54-5.84,.35-.85,.54-.84,.92-1.67,.51-1.11,.8-2.72,1.63-3.6,.85-.91,1.18-2.2,1.77-3.43,.15-.32,.33-.52,.43-.74,.22-.44,.2-.6,.42-1.02,.49-.97,.53-.34,.92-1.57,0-.03,.02-.05,.03-.08l3.34-7.21s.03-.06,.05-.09c.58-.87,.68-1.86,1.16-2.56,.74-1.1,2.16-5.12,2.88-6.35,.56-.94,1.49-2.38,1.7-3.43,.56-2.72,1.4-6.11,1.56-8.89,0-.03,0-.05,0-.07l.56-3.33s0-.04,.01-.07c.03-.12,.14-.51,.15-.53,.21-.55-.04-.21,.1-.33,.13-.11,.28-.17,.45-.17h1.95c.19,0,.36,.08,.49,.22,.13,.14,.19,.32,.18,.51-.06,.86-.2,1.98-.33,2.4-.58,1.83-.44,.48-.55,3-.08,1.7-.72,1.6-.85,6.17,0,.2,.07,.38,.22,.51,0,0,0,0,0,0,.04,.05,.15-.07,.21-.11,.02-.01,.03-.02,.04-.03l2.05-1.82c1.04-.93,1.34-2.22,2.75-3.66,.28-.29,.1,0,.34-.35,.57-.83,.85-2,1.11-2.96,.34-1.23,.85-1.55,1.23-3.29,.07-.3,.31-.51,.62-.53l1.36-.08c.19-.01,.37,.05,.51,.19,.14,.14,.21,.31,.21,.5-.02,.88-.08,1.66-.22,2.42-.43,2.41-3.24,6.42-4.8,8.64-.02,.03-.04,.05-.06,.08l-6.3,6.64c-.69,.75-1.06,1.02-1.72,1.59-.8,.69-2.21,2.91-2.7,3.93l-2.06,4.49s-.02,.04-.02,.06c-.27,.79-.09,.47-.48,1.14-.62,1.09-1.16,1.93-1.34,3.29-.03,.23-.17,.42-.38,.52l-.26,.12c-.22,.1-.35,.29-.38,.53-.15,1.22-.68,2.32-1.3,3.4-.01,.02-.02,.04-.03,.07l-1.47,3.4s-.01,.02-.01,.04c-.26,.71-.69,1.14-.86,1.48-.21,.42-.57,1.94-1.39,3.57,0,0,0,.02-.01,.02l-3.89,8.62s-.01,.03-.02,.05c-.27,.75-.46,.81-.83,1.47-.36,.63-.6,1.13-.87,1.69-.55,1.17-1.11,2.04-1.3,3.68-.03,.22-.15,.4-.34,.51-.45,.25-.28-.19-.61,.61l-.54,1.31c-.02,.06-.05,.1-.08,.15-.52,.7-.16-.2-.46,1.24-.25,1.21-.31,.66-.59,1.57-.4,1.3,.58,12.48,.84,14.5,.16,1.22,.63,1.53,.7,3.33,.1,2.67-.08,1.99,.78,2.62,.18,.13,.27,.32,.27,.54,0,2.32,.09,3.22,.57,5.36,0,.02,0,.04,.01,.06l.38,2.82c.04,.29,.25,.52,.54,.57l.43,.08c.29,.06,.56-.07,.71-.32,.19-.33,.28-.25,.44-.61,.67-1.49,.24-2.25,1.8-4.2,1.38-1.72,.8-.04,1.58-2.38,.16-.49,.32-.76,.76-1.2,.13-.14,.09-.08,.22-.2,.02-.02,.04-.04,.06-.06l.67-.79s.04-.05,.06-.08c.15-.24,.08-.17,.35-.53,0,0,.01-.02,.02-.02l1.24-1.81s0,0,0-.01c.73-1.03,1.07-2.65,2.04-3.84,.01-.01,.02-.02,.03-.04l2.53-3.54s.02-.03,.03-.04c.58-.95,1.21-1.36,1.68-2.29,.62-1.23,1.85-2.11,2.64-3.28,.6-.88,.9-1.64,1.64-2.39,.92-.93,7.09-10.12,7.36-10.83,.8-2.09,.07-1.63,1.71-3.86,.03-.04,.05-.08,.08-.13l1.2-2.79s.02-.05,.03-.08c.36-1.26,.33-.55,.67-1.33,.34-.78,0-1.68,.48-2.33,.55-.73,.07,.51,.52-.66,.01-.03,.02-.05,.03-.08l1-3.95s0,0,0-.01c.27-1.16,.2-3.19,.69-4.22,.55-1.15,.39,.59,.7-1.42,.33-2.2,.93-4.27,1.67-6.31,.26-.72,.23-.75,.51-1.38,.41-.93,.44-2.17,.85-3.17,0-.01,0-.02,.01-.04l.17-.49s.01-.04,.02-.06c0-.04,.02-.07,.03-.11,0-.02,.01-.04,.02-.06l.78-2.26c.24-.67,.53-.61,.78-1.31,0,0,0-.01,0-.02l.81-2.04s.01-.03,.02-.05c.52-1.66,1.31-1.85,1.93-3.16,.02-.04,.03-.06,.06-.1l2.32-3.35c.04-.05,.08-.1,.13-.14,.9-.74,1.45-.22,1.59,.64,.17,1.09-.26,2.12-.64,2.83-.48,.91-.17,.85-.42,1.68-.01,.04-.03,.08-.05,.12l-2.43,4.5s0,.01,0,.02c-.01,.02-.02,.04-.03,.06-.03,.05-.05,.1-.06,.16l-.31,1.24s-.01,.04-.02,.06c-.25,.71-.55,.87-.74,1.63l-.53,2s-.02,.06-.03,.08c-.48,1.17-.41,2.39-.79,3.14-.5,.97-.56,.44-.67,1.81-.12,1.36,.2,3.12-.16,4.27-.77,2.5,.17-1.37-.25,.72-.22,1.08,0,2.32-.31,3.21-.26,.71-.35,.96-.42,1.77-.14,1.46-.09,.78-.56,1.63-.02,.03-.03,.06-.05,.1l-1.16,3.27s-.01,.03-.02,.05c-.13,.51-.25,1.17-.44,1.63l-.77,1.85s-.03,.09-.05,.13c0,.02-.02,.05-.03,.07l-.63,1.17s0,.01-.01,.02c-.35,.6-1.52,1.94-1.96,3.52-.06,.21-.08,.32-.08,.39,0,.18-.07,.33-.19,.45l-.42,.43s-.02,.02-.03,.03c-.03,.04-.07,.08-.1,.12-.82,1.13-1.09,2.36-1.86,3.59,0,.02-.02,.03-.03,.04l-1.16,1.57s-.02,.03-.03,.05c-.02,.03-.04,.06-.06,.09-.01,.02-.02,.03-.03,.05l-1.34,2.68c-.54,1.09-.95,.92-1.76,2.74-.23,.53-.44,.72-.8,1.26-.01,.02-.02,.03-.03,.05l-.79,1s-.03,.03-.04,.05c-.03,.04-.05,.09-.08,.12-.57,.9-1.56,1.57-2.08,2.61-.01,.03-.03,.05-.05,.08l-1.31,1.93c-.04,.06-.09,.11-.14,.15-.01,.01-.03,.02-.04,.03,0,0,0,0,0,0l-.37,.32s-.02,.02-.03,.03c-1.02,1-4.27,4.9-4.87,6.22-.69,1.52-.11,.25-1.03,1.31-1.79,2.07-3.46,5.61-4.67,8.11,0,.01-.01,.02-.02,.03l-1.83,3.31s-.01,.02-.02,.04c-.53,1.13-.63,2.13-1.26,3.18-.59,.97-1.35,1.69-1.55,2.89-.45,2.75-1.15,5.34-.76,8.21,.11,.8,.38,.93,.57,1.78,.25,1.17,.12,3.11,1.92,1.98,.86-.54,.29-.53,1.03-1.32,.01-.01,.02-.02,.04-.04l7.11-6.52s.04-.03,.06-.05c.61-.45,.58-.28,1.17-.89,.44-.45,.68-.82,1.11-1.26,.4-.4,.79-.68,1.28-1.07,1.72-1.39,3.11-2.98,4.66-4.56,.81-.82,.42-.42,.89-1.46,.43-.95,2.01-2.89,2.72-3.91,.38-.54,.53-.89,.89-1.48,.61-.99,1.36-1.74,1.89-2.62,.69-1.15,.92-1.76,1.9-2.8,.4-.43,.06,0,.41-.52,0-.01,.01-.02,.02-.03l2.54-3.33s0,0,.01-.01c1.01-1.26,1.59-3,2.62-4.24,1.75-2.11,1.4-2.36,3.53-4.46,.01-.01,.02-.02,.03-.04l2.61-3s.02-.02,.02-.03c1.59-1.64,3.04-3.18,4.03-5.17,.73-1.47,1.75-3.01,2.27-4.61,.38-1.18,1.06-2.17,1.66-3.28,.44-.81,.86-1.27,1.05-2.09,.1-.42,.09-.53,.22-.99,.21-.76,.43-1.03,.78-1.45,.23-.27,.2-.22,.42-.56,2.42-3.75,1.45-2.47,3.26-5.85,.02-.03,.03-.05,.04-.08l.63-1.68s0-.01,0-.02c.45-1.12-.04-.03,.42-.62,.04-.06,.07-.11,.1-.17l1.27-3.27s.01-.03,.02-.05c.45-1.52,.89-1.39,1.4-3.04,.76-2.43,1.67-4.38,2.33-6.96,.2-.8,.29-2.01,1.19-2.31,2.77-.93,.24,6.22-.04,7.06-.51,1.57-1.28,2.5-1.64,4.04-.07,.32-.25,.99-.35,1.31-.23,.7-.37,.72-.69,1.17-.47,.67-.86,1.66-1.13,2.67-.01,.05-.11,.42-.14,.54,0,.02-.01,.04-.02,.06-.16,.42-.09,.24-.3,.53-.02,.02-.03,.04-.04,.07l-1.29,2.32s-.04,.07-.05,.12c-.2,.59-.07,.86-.32,1.51-.12,.3-.37,.63-.56,1.07,0,0,0,0,0,.01l-3.13,7.72s-.02,.04-.03,.06c-.45,.86-.9,1.32-1.2,2.2,0,.03-.02,.05-.03,.08l-2.37,4.86s-.03,.05-.05,.08c-.55,.82-.61,1.68-1.24,2.52-.04,.05-.34,.49-.36,.53-.16,.35-.14,.54,.46,.7,.36,.09,.28,.08,.65,.1,1.43,.1,6.73-1.28,8.01-1.86,.85-.38,.14-.06,.91-.7,.67-.55,2.32-1.17,3.16-1.5,.03-.01,.05-.02,.07-.03l1.94-1.05s.04-.02,.06-.04c1.41-.97,2.76-1.83,3.82-3.19,.01-.02,.03-.03,.04-.05l4.32-4.58s.02-.02,.02-.03c.37-.44,.35-.44,.76-.86,.58-.59,.98-.96,1.55-1.52,.85-.83,1.14-1.61,1.91-2.32,0,0,.01-.01,.02-.02l.34-.34s.01-.01,.02-.02c.55-.6,1.09-1.47,1.77-1.96,.2-.14,.44-.17,.67-.07s.37,.3,.4,.54c.04,.31,0,.66-.15,1.13-.35,1.15-2.85,4.78-3.64,5.81,0,0-.01,.02-.02,.03l-.67,.97s-.07,.1-.1,.14c-.02,.03-.04,.06-.07,.09-.02,.03-.04,.05-.06,.07l-1.2,1.25s-.05,.06-.08,.1c-.88,1.34-3.04,3.47-4.22,4.16-.7,.41-.04-.08-.71,.49-.86,.74-1.63,1.72-2.64,2.31-.3,.18-.48,.2-.8,.38-1.78,1.03-7.21,4.19-8.71,4.52-.02,0-.05,.01-.07,.02l-2.06,.69s-.02,0-.03,.01c-1.11,.44-2.27,.42-3.34,.9-.05,.02-.1,.06-.15,.08-1.24,.57-1.83,.36-3.56,1.15-1.13,.52-2.23,.74-3.32,1.35-.02,.01-.04,.02-.06,.03l-2.89,2.02s-.02,.01-.03,.02c-.91,.71-1.92,2.53-2.49,3.67-.03,.06-.06,.12-.08,.18-.3,.7-.41,1.29-.92,1.77-.02,.02-.04,.03-.05,.06l-2.31,2.74s-.06,.08-.08,.12c-.46,.9-.23,.63-.88,1.39-.42,.49-.69,.77-.98,1.37-.53,1.09-1.46,1.8-1.95,2.76-.5,.98-.1,.64-.84,1.54-2.25,2.76-2.18,3.48-3.45,5.05-.58,.72-1.28,1.01-1.8,1.91,0,.01-.01,.02-.02,.03l-1.99,3.12s-.03,.04-.04,.07c-.26,.54,.04,.02-.27,.44-.89,1.18-8.74,9.28-10.2,10.36-2.5,1.85-4.66,3.93-5.02,7.34-.32,3.03,.25,3.47,.76,6,.18,.89,.19,1.08,.55,1.54,.13,.16,.3,.25,.51,.26h.42c.26,.02,.5-.11,.62-.34,1.64-3.09,2.62-2.5,4.12-4.07,1.47-1.53,5.1-2.5,7.14-3.3,.74-.29,.49-.31,1.08-.56,.84-.36,1.68-.3,2.74-.29,.08,0,.14-.01,.22-.03,.54-.18,.23,0,.38-.34,.1-.23,.3-.37,.55-.39,1.09-.11,1.87-.31,2.99-.33,1.88-.04,1.81-.44,4.13-1.06,1.58-.42,5.67-1.48,6.75-2.24,.41-.29,.54-.46,1.02-.62,1.23-.41,2.96-.8,4.03-1.43,.62-.36,.47-.31,1.1-.57,1.27-.53,2.12-1.41,3.49-1.9l.69-.24s.03,0,.04-.01c.05-.02,.1-.04,.15-.06l3.36-1.59s.06-.02,.09-.03c.42-.13,.19,.04,.66-.21,.46-.24,.09-.05,.38-.29,.42-.35-.22,.04,.5-.44,.87-.58,2.11-.91,2.87-1.63,.55-.53,4.74-3.04,6.67-4.91,1.79-1.73,3.85-3.19,5.42-5.18,0-.01,.02-.02,.03-.03l5-5.61c.66-.74,.68-1.29,1.38-2.07,.04-.04,.06-.08,.09-.13l5.62-10.04s.03-.05,.04-.07c.26-.64,.15-.71,.5-1.35,.13-.23,.49-.68,.64-.98,.16-.29,.17-.42,.27-.65,.02-.05,.04-.12,.07-.17l2.21-5.12s.01-.03,.02-.05c.02-.04,.05-.09,.07-.14,.29-.61,.37-1.17,1.06-1.64,.21-.15,.48-.16,.7-.03,.23,.12,.36,.35,.35,.61-.05,2-.29,3.39-1.2,5.26,0,.02-.02,.04-.02,.06l-.7,1.85s-.01,.03-.02,.04c-.2,.43-.53,.77-.84,1.46-.45,1-.59,.86-.87,1.72-.58,1.84-.29,1.86-1.46,3.78,0,0,0,.01-.01,.02l-.91,1.38s-.04,.05-.06,.08c-.42,.47-.18,.02-.51,.56-.62,1.02-.69,1.87-1.81,3.41-.53,.73-.83,2-1.26,2.54-.39,.48-.09,.07-.67,.5-1.27,.94-2.15,2.28-3.19,3.43l-4.65,5.25s-.02,.02-.02,.03c-.52,.52-.8,.6-1.25,1.08-.47,.5-.68,.88-1.21,1.42-2.36,2.39,3.44,.29,4.03,.2,1.87-.26,3-1.1,4.82-1.59,.4-.11,.94-.12,1.23-.2,1-.3,.02-.45,1.36-.93,.43-.16,.55-.08,.97-.22,1.39-.48,.39-.46,2.98-1.05,.03,0,.05-.01,.08-.02l1.35-.48s0,0,.01,0c.35-.12,.16-.11,.65-.16l.16,1.2c.02,.16,0,.3-.09,.44-.7,1.16-3.42,2.1-4.46,2.68-.82,.45-.5,.21-1.43,.48-1.4,.42-2.62,1.43-3.98,1.85,0,0-.01,0-.02,0l-7.39,2.05s-.05,.01-.08,.02c-1.1,.17-.96,.63-2.9,1.05-1.07,.23-1.92,.54-2.88,.89-1.06,.39-1.35,.86-2.29,1.4-.03,.02-.05,.03-.08,.04l-4.01,1.61s-.01,0-.02,0c-.76,.27-.59,.47-1.27,.83-.52,.27-.89,.26-1.41,.49-.58,.26-.43,.29-1.28,.61-1.19,.45-2.11,1.19-3.45,1.75-.05,.02-.1,.05-.15,.07-.01,0-.02,0-.03,.01l-9.28,4.36s-.04,.02-.06,.03c-1.13,.69-4.45,1.77-5.67,2.12-.73,.21-.91,.1-1.54,.35-.83,.33-.05,.28-1.3,.61-2.01,.53-4.28,.54-6.28,1.25-1.05,.37-2.43,.14-3.41,.63-.99,.49-1.28,1.02-2.5,1.31-.84,.2-1.33,.36-1.89,.89-.48,.45-.05,.06-.44,.48-.05,.05-.18,.21-.23,.26-.91,.88-1.91,1.57-2.57,2.6-.68,1.07-.87,.93-1.46,1.84-.02,.04-.05,.08-.08,.13,0,.01-.02,.03-.03,.04l-.19,.27c-.86,1.16-.2,2.19-.89,3.38-.87,1.53,.21,1.8,.35,3.98,.15,2.19,.98,.55,.87,2.69-.01,.26-.17,.48-.41,.59-.85,.36-1.64,.83-2.59,.74-.09,0-.16-.03-.24-.07l-4.34-2.19c-.08-.04-.14-.09-.2-.16-1.57-1.79-.78-1.78-2.08-3.15-.47-.5-.24-.32-.6-.85-.54-.78-1.95-1.06-2.82-1.63-.05-.03-.1-.07-.15-.1-.15-.11-.21-.16-.24-.18-.09-.09-.18-.15-.3-.18l-3.08-.92s-.01,0-.02,0c-3.98-1.31-3.3-.78-6.7-1.56-1.05-.24-.98-.45-2.18-.65-3.66-.59-9.29-.78-13.14-.74-1.74,.02-1.23,.11-2.36,.55-.67,.26-1.37,.24-2.07,.53,0,0-.01,0-.02,0l-1.94,.86s-.03,.01-.05,.02c-1.09,.38-.74,.55-1.82,.98-.61,.24-1.68,.42-2.22,.65-1.09,.47-.12,.58-1.6,.94-1.3,.32-1.12,.37-2.08,.74-.02,0-.04,.01-.06,.02l-6.26,1.73c-.06,.02-.11,.02-.17,.02-2.7,.04-4.15,.26-6.62-.5-.3-.09-.49-.36-.48-.67l.02-.7c0-.28,.17-.51,.43-.61,.73-.29,1.15-.12,1.95-.48,.82-.36,.06-.34,1.06-.52,.44-.08,1.16-.04,1.63-.06,1.83-.06,6.14-1.58,8.27-1.82,1.91-.22,.94-.55,2.29-.97,1.43-.44,1.03,.04,2.52-.8,.63-.35,1.17-.51,1.7-.76,.33-.16,.48-.56,.32-.89-.61-1.3-3.12-1.55-4.33-2.03-.02,0-.03-.01-.05-.02l-1.95-.6s-.08-.03-.12-.05c-.85-.45,.26-.29-1.42-.78-.04-.01-.07-.02-.1-.04l-10.38-4.89s-.05-.02-.07-.03c-1.44-.49-.34-.51-1.49-1.01-1.43-.62-3.89-1.54-4.59-2.23-.03-.03-.07-.07-.1-.11,0,0-.01-.01-.02-.02-.02-.02-.05-.05-.08-.08-.02-.02-.04-.04-.07-.06l-1.58-1.17s-.05-.03-.08-.05c-2.83-1.53-1.21-.77-3.57-2.46,0,0-.01,0-.02-.01l-1.54-1.04s-.01-.01-.02-.02c-.69-.51-.1-.24-.75-.62,0,0,0,0-.01,0l-3.07-1.87s-.04-.02-.06-.04c-.34-.26-.39-.33-.63-.5-.35-.24-.55-.29-.9-.53-.79-.54-.41-.54-1.48-1.05-.02,0-.03-.02-.05-.03l-1.04-.6c-.26-.15-.22-.11-.48-.24-2.07-1.06-4.54-2.27-6.39-3.76-.7-.57-.63-.75-1.31-1.28-.52-.41-1.65-1.17-2.29-1.83-.15-.15-.21-.34-.19-.54,.02-.21,.12-.38,.3-.49,1.3-.86,2.51,.3,3.52,.64,1.26,.42,1.41,.31,2.52,1.01,0,0,0,0,.01,0l4.13,2.47s.02,.01,.03,.02c1.05,.56-.31-.19,.39,.27,.04,.03,.17,.14,.45,.28,.47,.24,.44,.13,.96,.44l3.5,2.15s.02,.01,.03,.02c1.67,.9,1,.4,2.61,1.81,.62,.55,1.07,.6,1.74,1.11,.54,.41,1.13,1.06,1.65,1.41,1.69,1.15,3.53,2.42,5.35,3.19,1.34,.56,.27,.77,2.19,.89l-1,.2c1.55,.15,1.91,.81,3.24,1.33,1.04,.41,1.28,.76,2.26,1.25,.79,.4,1.3,1.07,2.17,1.34,1.22,.39,2.29,.58,3.47,1.27,.01,0,.03,.02,.04,.02l1.56,.76s.05,.02,.07,.04c.59,.38,.23,.59,1.11,.81,.82,.2,1.26,.17,2.07,.42,1.34,.42,2.28,1.19,3.26,1.36,.04,0,.08,.02,.11,.03l1.63,.6s.06,.02,.09,.04c1.15,.61,3.47,.36,4.92,.91,.62,.24-.21,.08,.88,.29,1.26,.24,2.89,.05,3.96,.57,.94,.46,.48,.37,1.88,.4,.02,0,.03,0,.05,0l6.51,.58s.06,0,.1,.02c.92,.22,.42,.35,1.86,.45,.01,0,.03,0,.04,0l3.92,.51s.03,0,.04,0c.84,.17,.63,.26,1.9,.42,1.89,.24,5.92,1.13,7.59,1.85,.84,.36,.99,.14,1.81,.55,.87,.44,.65,.5,1.41,.48,.37,0,.66-.31,.66-.68-.01-1.57-.18-3.2-.43-3.79-.01-.03-.03-.07-.05-.11-.02-.04-.03-.07-.04-.11l-.71-2.46s-.02-.06-.02-.1c-.19-1.38-.14-.55-.62-1.49-.96-1.84-1.39-2.14-2.83-3.55-2.15-2.11-6.53-4.37-9.25-5.67-.73-.35-1.02-.3-1.98-.33-.05-.12-.07-.21-.09-.28-.07-.21-.21-.36-.42-.44l-2.62-.93s-.03,0-.04-.02c-.05-.02-.1-.04-.15-.06-.01,0-.02,0-.03-.01l-1.89-.85s-.02-.01-.03-.02c-.05-.02-.1-.05-.15-.07-.13-.06-.5-.21-.66-.29-1.2-.53-1.24-.47-2.88-.52-1.87-.06-4.32-.12-6.16,0-1.62,.1-1.08,.45-2.57,.5-1.65,.05-10.99,.17-11.97-.09-.75-.2-.24-.66-2.38-.91-.02,0-.04,0-.06-.01l-2.41-.52s-.07-.02-.1-.03c-.42-.16-.35-.35-.9-.6-.72-.33-.63-.05-1.31-.36-.9-.41,.14-.14-.83-.55-1.05-.44-1.14-.24-2.39-.94-.73-.41-.69-.04-.69-.37,0-.3,.19-.56,.47-.65,1.65-.51,3.86,.04,5.34,.21,.61,.07,1.06,.01,1.63,.05,1.59,.12,1.12,.52,4.96,.55,1.78,.01,1.52-.13,2.96,.48,.97,.41,9.2-.34,9.82-.6-.16-.79-.04-.33-.43-.8-.01-.02-.39-.38-.56-.53-.03-.03-.06-.05-.09-.07l-2.28-1.4s-.04-.02-.05-.03c-2.15-1.06-5.17-3.75-7.62-5.04-.02,0-.03-.02-.05-.03l-2.28-1.44s-.02-.01-.03-.02c-.61-.43-.87-.66-1.66-.93-1.93-.67-1.45-1-3.19-1.99-.57-.33-1.25-.44-1.67-.72-.66-.43-2.33-1.58-3.31-1.8-.01,0-.02,0-.03,0l-1.43-.4s-.07-.02-.11-.04c-1.24-.6-3.53-.16-4.69,.2-1.27,.4-3.6,.18-4.85,.36-5.05,.69-7.13-.47-9.39-.69-1.51-.14-2.35-.74-3.67-1.28-.07-.03-.27-.1-.34-.13-1.31-.54-1.53-1.31-2.86-1.83-1.55-.61-1.93-1.1-3.19-2.07-.55-.42-1.47-1.04-2-1.72-.16-.2-.19-.46-.08-.69,.11-.23,.32-.38,.57-.4,1.27-.08,1.17,.44,2.18,.94,.78,.39,.71,.14,1.43,.72,1.03,.82,2.07,1.13,3.19,1.73,.01,0,.02,.01,.03,.02l.7,.43s.01,0,.02,.01c.81,.45,1.84,.37,2.7,.81,.01,0,.02,.01,.03,.02l.25,.15s.04,.02,.07,.04c2.79,1.24,7.13,.94,10,.26,.25-.06,.79-.12,1.01-.16,.95-.17,1.14-.36,1.64-.48,.72-.17,.89-.06,1.29-.19,.32-.11,.5-.42,.45-.75-.11-.67-.58-.89-1.21-1.29-.79-.51-1.62-2.26-2.83-3.3-1.23-1.07-1.96-2.48-3.08-3.67-.04-.04-.07-.08-.1-.13l-1.9-3.4s-.01-.03-.02-.04c-.18-.37-.31-.5-.52-.83-.01-.02-.02-.03-.03-.05l-1.6-3.08s0-.01-.01-.02c-.93-1.96-1.3-3.45-1.74-4.44-.02-.05-.05-.11-.07-.15l-.93-1.82s-.03-.07-.04-.1c-.13-.41-.17-.48-.41-.91-.78-1.39-.23-2.1-1.09-3.63-.65-1.15-.14-1.56-.53-2.6-.08-.22-.31-.41-.46-.95-.15-.54-.11-1.06-.14-1.64h-.39c-.38-1.05-.26-.54-.5-1.85-.15-.84-.45-.61-.87-2.55-.12-.54-.13-.37-.29-.88-.41-1.33-.21-2.92-.73-4.24-.46-1.18-.47-3.28-.29-4.64,.09-.69,.27-1.02,.82-1.23,.34-.13,.72,.03,.86,.37,.32,.75,.45,1.75,.89,2.48,.14,.23,.14-.08,.29,.72,.19,1.01-.16,2.12,.24,3,.01,.02,.02,.04,.03,.07l.22,.37s.03,.04,.04,.07c.02,.04,.04,.09,.06,.13,.32,.86,.24,1.64,.36,2.68,0,.04,.01,.08,.02,.12l2.36,7.87s.02,.05,.03,.08c.32,.74,.27,.67,.49,1.56,0,.02,.01,.04,.02,.07l1.31,3.69c.02,.07,.06,.13,.1,.18,.01,.02,.02,.03,.03,.05,.84,1.25,1.43,4.02,1.97,4.86,.01,.02,.02,.03,.03,.05l1.45,2.73s.02,.03,.03,.05c.57,.89,1,1.34,1.53,2.43,.01,.02,.02,.04,.03,.06l1.15,1.85s.02,.03,.03,.05c.53,1.04,1.37,1.86,2.17,2.9,.01,.02,.03,.03,.04,.05l2.03,2.15s0,0,0,0c1.3,1.42,1.32,1.05,2.26,1.99,.66,.65,1.03,1.04,1.59,1.52,.16,.14,.35,.19,.56,.15s.37-.15,.47-.34c.32-.58,.29-.94,.28-2.36-.02-1.52,.28-2.43,.27-3.55,0-.9-.19-.99-.17-1.62,.01-.37,.16-1,.18-1.64,0-.02,0-.04,0-.06l-.59-10.76s0-.05,0-.08c-.16-.9-.83-1.74-.99-2.66-.44-2.51-.9-4.98-2.35-7.09,0-.01-.01-.02-.02-.03l-2.13-3.48s-.03-.05-.04-.07c-.23-.51-.29-.99-.48-1.35,0,0,0-.01-.01-.02l-4.83-8.26s-.04-.08-.06-.12c-.38-1.1-.74-1.03-.81-2.21-.02-.24,.09-.46,.29-.6,.2-.14,.44-.16,.66-.06,.2,.09,.35,.24,.69,.46,1.22,.81,2.24,2.32,3.02,3.62l1.65,2.75s.04,.06,.06,.09c1.7,2.01,.43,.19,1.72,2.64,0,.02,.02,.03,.02,.05l1.27,2.97s0,.02,.02,.03c.8,1.61,1.08,1.35,1.52,2.9,.25,.89,.53,.78,1.01,2.31,.19,.59,.16,.34,.38,.81,.31,.66,.24,1.03,.58,1.55,.5,.76,.55,.05,.83,1.47,0,.03,.01,.06,.02,.09l.37,1.07c.03,.08,.06,.14,.11,.2,0,.01,.02,.02,.03,.04,.37,.59,.38,1.1,.41,1.91,0,.02,0,.03,0,.04l.78,8.24s0,.02,0,.02c.27,4.42,.2,8.61,.23,13.01,.02,1.8,1.01,3.36,1.81,4.76,.19,.33,.22,.43,.45,.68,.02,.02,.03,.03,.05,.04l.22,.19s.02,.01,.02,.02c.03,.02,.07,.05,.1,.07,.02,.01,.03,.02,.05,.03l2.81,1.83s.03,.02,.04,.03c1.89,1.04,3.84,2.12,5.53,3.41,.87,.66,.52,.22,1.46,.61,.02,0,.04,.02,.05,.03l17.24,9.19s.01,0,.02,.01c.83,.48,.92,.22,1.74,.62,0,0,.01,0,.02,0l1.38,.73s.02,0,.03,.01c.36,.17,1.17,.63,1.56,.79,.65,.26,1.2,.2,1.66,.37,.06,.02,.11,.05,.17,.09l.57,.41s0,0,.01,0c.31,.23,.43,.32,.68,.48,0,0,0,0,0,0l1.85,1.2s.01,0,.02,.01c.61,.42-.15,.17,.83,.42,1.25,.32,1.6,.17,2.44,.8,.23,.17,.52,.34,.79,.45,.26,.11,.44,.15,.65,.25,.01,0,.02,.01,.04,.02l2.94,1.52c1.04,.55,1.05,.9,2.03,1.03,.2,.03,.39-.03,.54-.16,.15-.14,.23-.31,.23-.52,0-.13-.01-.27-.03-.42-.14-1.2-.82-3.83-1.35-4.69-.88-1.42-.46-1.25-1.09-2.2,0,0,0,0,0-.01l-1.32-2.11s-.03-.05-.04-.07c-1.17-2.52-3.1-2.57-4.06-3.95-.72-1.03-1.65-1.4-2.63-2.17-.5-.39-.24-.07-.68-.51-.09-.09-.29-.38-.42-.51l-1.72-1.78s-.03-.03-.05-.05c-.28-.36-.23-.27-.54-.59-.16-.16-.36-.38-.56-.56-.02-.02-.04-.04-.07-.07l-3.07-3.73c-1.31-1.59-.52-.93-2.22-2.44-.02-.01-.03-.03-.04-.04l-1.58-1.67s-.02-.02-.03-.03c-.19-.18-.33-.24-.63-.51-.95-.84-1.47-1.58-2.3-2.43-.6-.62-.89-1.23-1.56-1.72-.84-.62-.89-1.31-1.5-2.08-1.64-2.07-1.46-1.87-2.41-4.48-.48-1.31-.46-2.28-.4-3.77,0-.19,.08-.35,.22-.48,.14-.13,.31-.18,.5-.17,2.59,.17,1.4,2.86,2.61,4.36,1.4,1.73,2.6,3.85,4.08,5.38l6.68,7s.02,.02,.03,.03c.71,.65,1.29,.95,1.86,1.61,.01,.02,.03,.03,.04,.04l5.14,4.92s.04,.04,.06,.06c.81,.99,.99,.78,1.9,1.56,0,0,.01,.01,.02,.02l1.82,1.45s.01,.01,.02,.02c.77,.57,.67,1,1.56,1.04,1.19,.05,.55,.07,.65-.1,.07-.13,.1-.26,.08-.4l-.72-6.58s0-.01,0-.02c-.12-1.49-.89-3.62-1.16-7.06,0-.02,0-.03,0-.05-.19-1.26-.08-.19-.33-.75-.01-.03-.25-.82-.26-.94-.13-.86-.25-2-.31-2.79-.23-2.94-.09-1.39-.54-2.55-1.04-2.64,.47-4.64-2.13-7.11,0,0,0,0-.01-.01l-3.04-3.05s-.06-.05-.09-.08c-.46-.32-1.66-.51-2.11-.8-.02-.01-.03-.02-.05-.03l-.86-.46s-.04-.02-.06-.03c-.83-.35-.33-.12-1.05-.56,0,0-.01,0-.02-.01l-2.33-1.32c-.06-.03-.1-.07-.15-.11-.58-.59-.57-.5-1.43-.81-1.11-.4-.67-.71-1.78-1.22-.03-.01-.05-.03-.08-.04l-9.63-6.1s-.02,0-.02-.01c-.07-.04-.34-.2-.45-.26-.54-.3-.5-.23-1.02-.64l-4.26-3.27s-.02-.02-.03-.03c-.55-.47-.34-.28-1.05-.53-1.74-.63-.68-.74-1.59-1.52-.34-.29-.49-.22-.94-.46-.37-.2-.53-.36-.91-.75-.01-.01-.02-.02-.03-.03l-6.22-7.34s-.07-.09-.09-.14c-.63-1.31-.16-.79-.75-1.75-.03-.05-.07-.1-.1-.16-.03-.05-.06-.11-.09-.17-.21-.45-.21-.8-.43-1.15,0,0,0-.02-.01-.02l-1.34-2.33s-.02-.03-.03-.05c-.3-.44-.35-1.16-.38-1.81,0-.21-.1-.38-.27-.51-1.28-.97-1.31-1.91-1.58-3.75-.08-.52-.13-2-.28-2.57-.3-1.17-.6-1.29-.6-2.47,0-3.24-1.38-7.71,.95-9.54,.04-.03,.11-.08,.14-.11,.03-.02,.1-.07,.14-.11,1.16,1.43,1.1,5.32,1.71,6.89,.59,1.52,.62,3.22,1.23,4.63,.64,1.49,.25,3.98,2.23,7.94,0,0,0,.02,.01,.03l2.56,5.76c.03,.07,.06,.12,.11,.17l6.24,7.11s.02,.02,.02,.03c.46,.59,.57,.39,1.22,.83l11.62,7.71s.08,.06,.11,.09c.78,.8-.36,.2,.77,.72,1.46,.66,2.51,.87,3.76,1.88,.02,.02,.05,.03,.07,.05l4.49,2.75s.02,.01,.03,.02c1.11,.77,4.6,2.39,6.5,3.02,.22,.07,.45,.03,.63-.11,.18-.15,.27-.36,.25-.59-.19-1.92-1.14-1.22-1.37-8.68-.04-.03-.12-.11-.13-.07l-.28-.75c-.03-.08-.04-.15-.04-.23,0-1.94-.01-6.39-.43-7.86-.71-2.53-.55-3-.59-5.75-.03-1.48-.25-2.19-.23-3.77,.03-2.66-.5-2.04-.71-3.58-.14-1.01,.15-.78-.33-1.62-1.66-2.86-1.14-2.48-3.99-4.24-.04-.03-.08-.05-.11-.09l-4.56-4.34s-.07-.08-.1-.13c0,0,0,0,0,0-.03-.04-.05-.08-.09-.11l-7.73-7.74s-.03-.04-.05-.06c-.02-.03-.05-.06-.07-.09-.01-.01-.02-.03-.03-.04l-1.04-1.52c-.27-.39-.19-.34-.43-.73-.32-.51-.53-.62-.87-.8-.2-.11-.33-.3-.35-.53-.16-1.62-.28-.89-.84-2.05,0,0,0,0,0-.01l-.54-1.06s-.04-.08-.07-.12c-1.08-1.35-2.29-3.91-1.86-5.87,.27-1.23,1.51-.84,2.9-.59,.3,.05,.52,.29,.55,.6,.34,3.5,2.7,7.96,4.91,10.33,0,0,0,0,0,0l3.09,3.19s.05,.05,.09,.07c2.3,1.69,4.56,5.13,6.94,6.18,.05,.02,.12,.05,.17,.07,.05,.02,.1,.05,.15,.07,.01,0,.02,.01,.03,.02l1.3,.55s.02,0,.03,.01c.98,.36,2.25,1.52,3.06,.45,.63-.83-.33-10.13,.68-13.4,.28-.92,1.57-20.41,2.02-26.66,0-.08,0-.15-.02-.23-.31-1.08,.17-2.73,.52-3.49h0c-.03-.05-.05-.09-.03-.12,.03-.04,.05-.07,.08-.12,.05-.11,.13,.11,.28-.58,0-.04,.01-.07,.01-.11l.42-7.83s0-.03,0-.05c.12-.99,.37-1.92,.54-2.7,.4-1.89,.11-4.15,.42-6.22,.24-1.62-.74-3.05,3.2-2.65,.34,.03,.6,.31,.61,.65,.08,2.7,.35,10.3-.31,11.71-.42,.92-.65,7.45-.57,8.84,0,.07,.02,.12,.04,.18,0,0,0,0,0,0-.03,.06-.04,.11-.05,.18-.02,.15-.1,.28-.23,.4-.49,.43-.72,.93-.9,1.4-.03,.06-.04,.12-.04,.19l-2.44,29.42s0,.06-.01,.09c-.26,1.16-.21,7.52-.12,10.3,0,.22,.1,.4,.28,.52,.17,.13,.38,.16,.58,.1,.75-.22,.56,.24,1.13-1.51,.48-1.47,1.93-2.31,2.4-3.75,.94-2.9,2.84-5.68,3.97-8.54,0-.01,0-.03,.01-.04l8.07-24.86c.09-.28,.34-.46,.63-.47l1.92-.02c.22,0,.41,.09,.54,.26,.13,.17,.18,.38,.12,.59-1.04,3.97-6.02,19.01-6.38,20.81,0,.05-.02,.09-.04,.14l-5.19,11.96s-.02,.05-.04,.07c-.25,.43-.24,.55-.43,.93-.72,1.45-.71,.2-1.06,1.36-.02,.06-.04,.1-.07,.15l-5.8,9.63c-.06,.1-.09,.2-.1,.31h0ZM56.05,47.73c.12,1.09-.42,1.74-.81,2.74-.13,.32-.48,.5-.81,.4-1.25-.35-1.61-.8-2.94,1.06-1.27,1.77-.11,2.53,.36,3.82,.11,.29,.01,.6-.24,.78-.37,.27-.55,.17-.55,1.05,0,.81,.41,1.05,.36,1.85-.07,1.01-.71,2.45-1.49,2.99-.09,.06-.15,.14-.21,.23-.66,1.23-6.48,1.18-7.88,2.16-.18,.12-.28,.31-.29,.52-.09,1.95-2.58,7.68-3.54,9.48,0,.01-.01,.03-.02,.04l-2.61,4.17s0,.01-.01,.02c-1.44,2.15-2.46-.4-3.79-1.28-.16-.1-.33-.14-.52-.1-.18,.04-.33,.14-.43,.3l-.99,1.58s-.05,.09-.07,.14c-.43,1.29-.28,1.46-1.05,2.56-.03,.05-.06,.09-.08,.14l-1.98,5.15s-.02,.05-.02,.08c-.33,1.34-1.18,2.39-1.71,3.7-.67,1.64-1.47,3.64-2.65,4.93-.56,.6-.43,.97-1.56,.87-1.72-.16-.84-1.82-3.04-1.94-.3-.02-.57,.16-.67,.44l-1.24,3.37s0,0,0,.01c-.52,1.32-.31,.08-.65,1.2-.15,.49-.09,.95-.19,1.46,0,.03-.01,.06-.02,.09l-.94,2.71s-.02,.05-.04,.08c-.5,.99-.38,.07-.7,1.1-.16,.51-.07,.94-.23,1.47-.1,.36-.42,.73-.61,1.22,0,.01,0,.02-.01,.04l-.92,2.84s0,.02-.01,.04c-.41,1.06-1.63,3.28-2.51,4.2-.15,.16-.36,.23-.58,.2-.64-.09-.04-.05-.55-.24-.26-.1-.6-.22-.86-.33-.45-.18-.65-.32-.81-.42-.18-.12-.39-.15-.59-.08-.21,.07-.35,.22-.43,.42-1.04,3-.98,10.03-.63,12.77,.14,1.06,.64,1.8,.39,3.06-.34,1.72-.76,.4-.08,2.86,.02,.06,.02,.12,.02,.19l-.07,4.98s0,.06,0,.09c-.1,.66-.23,.72-.53,.95-.19,.14-.42,.18-.65,.09-1.02-.39-.94-1.13-2.84-.7-.31,.07-.52,.33-.53,.64-.04,1.9,.76,2.8,.97,4.66,.24,2.1,.15,.9,.71,2.3,.41,1.03-.04,3,.52,3.98,.55,.95,.33-.14,.65,1.02,0,0,0,.01,0,.02l.58,2.42s0,.04,.02,.05c.48,1.45,.12,3.06,.82,4.59,.14,.32,.09-.15,.4,.94-1.33,0-2.29-.22-2.87-.34-.19-.04-.38,0-.54,.12-.16,.12-.25,.28-.27,.48-.03,.33,0,.69,.09,1.03,.01,.05,.03,.1,.05,.15,0,.02,.01,.03,.02,.05l.13,.29c.02,.05,.05,.11,.08,.16,.02,.05,.05,.11,.08,.17,.19,.47,.17,.44,.3,.96,.31,1.28,.29,1.64,.87,2.61l4.25,7.12c.29,.49,.01,0,.5,.59,.01,.02,.03,.03,.04,.05l1.41,2.1s.01,.02,.02,.04c.27,.46,.16,.31,.43,.67,0,0,0,.01,.01,.02l.48,.69s.02,.03,.03,.05c.16,.27,.3,.52,.4,.64,.01,.01,.02,.02,.03,.04l1.54,1.67s.07,.09,.1,.14c.31,.59-.1,.13,.37,.66,.35,.39,.97,.93,1.48,1.48,.19,.2,.24,.48,.12,.73-.11,.25-.35,.41-.63,.4-.86-.01-1.71,0-2.4,.19-.35,.1-.56,.45-.48,.81,.28,1.17,1.13,2.05,1.95,2.95l3.48,3.8s.03,.03,.05,.04c.83,.75,1.79,1.17,2.48,1.96,.17,.19,.46,.51,.65,.69,.03,.02,.05,.04,.08,.06l6.19,4.12s.02,.02,.03,.02c1.63,1.24,5.5,3.45,7.33,4.49,1.11,.64,2.17,1.18,2.48,2.39,.05,.2,.02,.4-.11,.56-.12,.17-.29,.26-.5,.28-.85,.06-1.48,.2-2.07,.48-.19,.09-.32,.24-.37,.45-.05,.2-.01,.4,.11,.57,.43,.58,1.08,1,1.77,1.27,1.87,.71,2.33,1.61,4.24,2.11,.71,.19,1.1,.22,1.73,.41,0,0,0,0,.01,0l3.32,.93s.06,.01,.09,.02c3.15,.42,1.04,.75,3.49,.81,1.24,.03,.91,0,1.76,.28,1.16,.37,3.07,.62,3.95,1.13,.03,.01,.05,.03,.07,.05l.21,.16s.03,.02,.05,.04c.67,.41,1.24,.4,1.91,.88,.57,.41,.57,.5,.75,.7,.22,.25,.22,.62,0,.88-.3,.35-.64,.7-1.02,1.04-.26,.22-.53,.41-.77,.65-.09,.09-.16,.16-.22,.22-.18,.17-.26,.41-.2,.65,.06,.24,.23,.42,.47,.49,1.76,.49,2.4,.89,4.6,.95,2.06,.06,3.39,.48,5.9,.48,.8,0,2.31-.09,3.03,.03,1.01,.17,1.7,.41,2.87,.4,1-.01,5.36-.36,6.06,.34,.56,.55-1.2,1.71-1.06,2.94,.26,2.23,3.07,.77,3.38,.68,.67-.19,1.24-.03,1.94-.22,.54-.15,.94-.51,1.74-.59,3.06-.33,1.34-.39,3.39-1.11,1.42-.5,1.88-.71,2.95-1.57,.8-.65,.64-.31,1.39-.67,.02,0,.03-.02,.05-.03l.27-.16s.03-.02,.04-.03c.42-.29-.02,0,.32-.3,.02-.02,.04-.03,.06-.05l1.92-1.29s.04-.02,.05-.04c.12-.1,.61-.49,.62-.5,2.18-1.36,4.12-3.48,6.87-3.5,1.62-.01,2.72-.02,3.32,1.12,1.67,3.21-2.45,3.22,.69,6.28,.06,.06,.1,.11,.13,.19l1.37,2.78s.03,.06,.04,.1c.52,1.67,.18,4.28,.52,6.03,.14,.71,.23,.79,.39,1.81,.01,.07,.03,.13,.06,.2l.69,1.37s.01,.02,.02,.04c.73,1.26,.48,4.22,.38,6.04-.01,.19,.05,.36,.19,.5,.13,.14,.3,.21,.49,.21l8.48-.05c.26,0,.49-.15,.61-.38,.1-.22,.15-.26,.36-.37,.22-.12,.35-.33,.36-.58,.06-2.13,.28-2.63-.86-4.43,0,0,0-.01-.01-.02l-.17-.29s0,0,0-.01c-.65-1.05-.59-.93-.57-2.58,.02-1.33-.02-2.17-.17-3.2-.13-.96,.04-2.01-.14-2.97-.36-1.93-.73,.05-.71-2.57,0-.98,.03-2.12-.03-3.1-.18-2.84-.92-5.29,2.14-6.98,.63-.34,1.74-.31,2.63-.16,.01,0,.02,0,.03,0l5.24,1.14s.06,.01,.09,.01c1.63,.12,.81,.56,2.33,.84,1.55,.29,3.53,.15,5.12-.18,.03,0,.06-.02,.09-.03l.55-.2s.03-.01,.05-.02c1.14-.51-.68-2.15,.4-3.17,.35-.33,3.52,.11,6.03-.69,.59-.19,2.3-.27,2.92-.36,1.17-.16,2.13-.12,3.21-.36,.61-.14,.62-.25,1.28-.35,1.4-.23,3.13-.38,4.28-.97,.75-.39,1.78-.21,2.69-.6l2.19-.96c.2-.09,.33-.25,.38-.46l.09-.39c.05-.22,0-.43-.14-.6-.38-.45-.89-.75-1.35-1.11-.19-.15-.28-.37-.25-.61,.17-1.32,.96-1.19,2.11-1.82l4.58-2.49s.02-.01,.03-.02c1.03-.5,2.43-.65,3.37-1.36,.77-.58,1.4-.59,2.31-1.01,.05-.02,.16-.1,.24-.14,.03-.02,.06-.03,.1-.05l3.82-1.57s.05-.02,.07-.02c.75-.21,.79-.46,1.39-.86,1.32-.88,3.12-1.02,4.67-2.39,0,0,.02-.01,.02-.02l.22-.22s0,0,0,0c.08-.08,.15-.14,.21-.19,.19-.15,.28-.38,.24-.62-.04-.24-.19-.43-.41-.53-.05-.02-.1-.04-.15-.07-1.15-.54-2.42-.51-2.76-1.08-.54-.92,1.35-2.22,1.97-2.68,1.03-.76,2.72-2.75,3.48-3.82,.71-1,.37-.6,1.37-1.25,.99-.64,.45-.52,1.04-1.32,.56-.76,.84-.46,1.45-1.15,.55-.62,.28-.62,1.03-1.33,0,0,0,0,.01-.01l.73-.67s.01-.01,.02-.02c.04-.03,.08-.07,.12-.1,.04-.03,.09-.07,.13-.11,1.73-1.45,3.52-3.81,5.16-5.46,.93-.93,1.67-1.24,1.8-2.71,.03-.33-.18-.63-.5-.72-2.25-.58-4.49,1.06-3.55-2.16,.54-1.86,1.36-3.21,2.06-5.27,.28-.82,.35-.94,.72-1.56,.02-.03,.03-.05,.04-.08l2.31-5.23s0-.02,.01-.03c.61-1.6,1.72-2.97,2.6-4.4,.44-.71,.42-1.11,.78-1.84,1.04-2.11,.83-1.05,1.01-4.01,.08-1.37,.29-.59,.45-1.89,.08-.65,.15-1.62-.14-2.16-.13-.24-.38-.38-.66-.35l-1.33,.13s-.08,.01-.12,.02c-.73,.21-.93,.27-1.57,.29-.33,0-.62-.22-.68-.55-.25-1.36-.2-3.23-.05-4.72,.16-1.57,.4-.35,.47-2.1,.04-.88-.1-1.99,0-2.85,.13-1.21,.37-.63,.44-2.12,.12-2.51,.65-4.5-.1-6.78-.06-.2-.2-.34-.39-.42s-.39-.07-.57,.03c-.74,.4-1.02,1.07-1.72,1.73l-.36,.34s0,0-.01,.01c-.34,.31,.16,.04-.36,.3-.38-.16-.87-.62-1.3-.96-.16-.13-.24-.29-.25-.49-.14-2.85-1.07-3.7-1.55-5.59,0-.02,0-.03-.01-.05l-1.85-5.54s-.03-.09-.06-.13c-.52-.87-.34-1.91-.71-2.99-.37-1.07-.76-1.34-.95-2.88-.15-1.26-.71-1.72-.93-2.85-.18-.95-.24-1.75-1.05-1.98-.31-.08-.62,.05-.77,.33-.32,.59-.61,1.17-.9,1.7-.38,.7-.61,1.16-1.2,1.48-.32,.17-.72,.06-.9-.26-.34-.59-.74-1.17-1.21-1.76-.01-.01-.02-.03-.03-.04l-.74-1.09s-.02-.03-.03-.04c-.72-.9-1.62-2.92-2.44-4.08-.02-.02-.03-.04-.04-.06l-.64-1.18s-.02-.04-.03-.05c-.02-.03-.05-.07-.07-.1-.02-.03-.05-.06-.07-.1-.01-.02-.03-.04-.04-.06l-1.51-2.7s0-.02-.01-.02c-.56-.91-1.14-.44-1.75-1.97-.49-1.2-1.45-2.49-2.06-3.61-.15-.27-.2-.45-.23-.57-.08-.29-.32-.48-.61-.5-.3-.02-.56,.15-.67,.42l-.34,.85s-.01,.04-.02,.06c-.3,1-.52,1.57-1.58,1.68-.23,.02-.44-.06-.59-.24l-1.41-1.69c-.6-.71-.34-.57-.81-1.44-.02-.03-.03-.06-.05-.08l-1.85-2.49s-.04-.05-.05-.08c-.6-1.11-1.21-1.85-1.53-3.33-.8-3.71-2.02-4.11-3.1-6.64-.15-.36-.12-.35-.28-.66,0-.01-.01-.02-.02-.03l-1.77-2.89c-.13-.21-.34-.33-.58-.32h-.46c-.27,0-.5,.16-.61,.41-.18,.41-.33,.84-.53,1.26-.11,.24-.33,.38-.59,.39-.84,.02-.72-.09-1.3-.78-.78-.93-.42-.59-.94-1.5-.04-.07-.06-.13-.08-.2-1.35-7.02-5.7-10.91-7.74-13.42,0-.01-.02-.02-.02-.03-1.23-1.71-.26-2.98-.96-3.68-.01-.01-.02-.02-.03-.03-.98-.84-2.17,0-2.79,.79-.81,1.02-.57,1.92-.43,3.15,.02,.19-.03,.37-.16,.52-.13,.15-.29,.23-.49,.24-2.78,.11-.49,1.01-16.63-10.35-2.04-1.43-1.9-1.75-3.41-3.35-.05-.05-.08-.1-.11-.16-6.26-12.26,2.49-6.76-15.37-24.22-.16-.16-.37-.22-.6-.18-.86,.16-1.2,.8-1.99,.24-.55-.39-.51-2.91-1.3-5.14-.39-1.1-.84-.88-1.96-.89-.27,0-.51-.16-.61-.41-.85-1.97-.41-3.81-2.01-8.04-.32-.85-.4-1.63-.62-2.52-.08-.3-.34-.51-.65-.51h-.47c-.31,0-.57,.2-.65,.5l-1,3.69s-.01,.06-.02,.09c-.1,.8,.02,1.65-.15,2.46-.2,.97-.36,.83-.42,2.03-.01,.25-.15,.46-.38,.58-1.15,.57-1.59,.57-1.52,2.64,.07,1.98-.19,2.27-.51,3.34-.07,.21-.22,.37-.43,.44-.21,.07-.43,.04-.61-.09-.12-.09-.3-.14-.99-.11-.21,0-.39,.1-.51,.27-.68,.91-.33,1.21-.55,2.72-.2,1.33-.61,1.21-.73,2.82-.02,.21-.11,.38-.28,.5-.47,.33-.99,.68-.76,1.12,.09,.18,.1,.37,.03,.55-.07,.19-.21,.32-.39,.39-.19,.07-.39,.41-1.74,2.81-.09,.16-.15,.3-.2,.43-.1,.26-.33,.43-.61,.44-.28,.01-.52-.14-.64-.39-.11-.24-.22-.46-.46-.62-.2-.13-.43-.16-.65-.06-.22,.09-.36,.28-.4,.51-.16,.99,.43,1.34-1.46,4.01-.42,.6-.4,.81-.55,1.22-.09,.24-.28,.4-.54,.44-3.21,.47-4.88,9.78-17.72,14.29-.3,.11-.48,.39-.45,.71Z"/></g></svg>