<?xml version="1.0" encoding="utf-8"?>
<!-- Generator: Adobe Illustrator 26.2.1, SVG Export Plug-In . SVG Version: 6.00 Build 0)  -->
<svg version="1.1" id="Layer_5" xmlns="http://www.w3.org/2000/svg" xmlns:xlink="http://www.w3.org/1999/xlink" x="0px" y="0px"
	 viewBox="0 0 200 200" style="enable-background:new 0 0 200 200;" xml:space="preserve">
<g id="brand_social-circles_00000158731485275049499360000009914835755129176509_">
	<g>
		<polygon points="89,131.5 89,131.6 88.9,131.7 		"/>
		<path d="M129.7,124.9c-4.2,2.7-8.4,4.7-13.2,6.1c-4.2,1.2-9.1,1.2-11.9,5.3c-4.3-4.4,4.5-9.1,6.7-12.6c3.5-4.2,6.1-10.2,10.3-13.7
			c14.4-1.9,23.6-20.6,13.9-10c-2.7,3.4-6.9,6.4-11.3,6.5c2.5-5.2,5.2-11.3,7.4-16.8c2.1-11.7-4.5,7.5-6.3,9.3
			c-5.5,10.9-13.6,21.1-22.5,29.5c-4.9-7,9-18.9,12-25.4c2.6-4.6,4.9-9.4,4.9-14.7c0.6-3.1,2.8-6.2,3.2-9.2
			c-4.3-1.7-6.6,14.7-8,18.1c-2.8,7.2-9.5,13.8-12.6,20c-1.3,0.4-1,3.3-2.1,2.9c-0.3-5.1-3.5-12.3-0.7-16.8
			c2.9-6.3,5.8-12.8,8.7-19.1c1.3-3.1,11.2-9.7,6.6-12.2c-1.5,1.8-1.8,4.8-4,6.2c-0.4-2.5,2.7-6.7-1-6.2c-0.8,6.9-4.3,13.7-7.6,19.9
			c-1.8,2-2.4,8.8-5,8.5c-1.2-4.7-1.9-9.1-1.9-14.1c4.4-6.2,7.5-15,9.5-22.5c-3.8-3.1-5.6,15.3-8.6,17.2c-3.8,4.5,2.1-25.5,1.1-29.5
			c-3.8-4.1-2.8,11.6-3.7,14.3c-1.7,8.1,1.9,23.3-6.6,13.3c-2.5-1.6-3.1-5.2-4.6-7.1c-3.7-0.2,0.2,4.9,1,6.2
			c4.9,5.9,10.4,7.6,9.8,16.4c0.2,2.4,0.6,7.3,1.1,8.8c-4.7-1.7-9.5-5.4-13.7-8c-5.5-3.2-5.9-13-7.8-16.5c-2.8,2.8,0.3,9.5,1.9,12.8
			c3.2,5.6,9.9,8.8,15.1,12.2c7.3,2.2,6.2,10.7,7.4,16.9c-3.3-2-6.7-6-9.5-8.8c-7.4-11.9-3.6,1.5,1.9,4.8c2.7,4.3,8.4,6.3,9.1,11.9
			c-4.9-1.4-13.1-6.3-18.4-8.9c-9.6-2.6-4.1-12.9-7.8-19.5c-1.5-2.4-3.6-10.2-6.5-8.8c3.7,6.6,7.3,13.7,6,21.6
			c-3.7,1.7-9.2-13-9.7-17.4c-1.1-6.7-3.1-2.6-1.6,1.6c1.1,3.2,1.6,6,3.1,9.2c1.2,3.5,3.7,6.9,6.2,9.4c-3.7,1.7-8.2,0.5-11.4-1.8
			c-3.8-0.6,2,3.5,3.5,3.8c4.2,2.2,10-1.1,14,1.9c2.8,1.8,6,3.7,8.8,5.7c-3.1,1.8-11-2.2-12.1,0.5c6,4.3,14.2-0.2,20.1,3.5
			c4,1.2,8.1,4,7.9,8.7c-1.8-0.2-4.4-1.3-6.4-1.5c-10.4-0.7-20.1-4-28.3-10.5c-1.5-1.3-12.1-6.9-7-1.8c2.8,2.2,6.5,3.7,9.3,6.1
			c2.8,2.2,7.9,4.2,11.1,6c7.3,1.7-3.7,3.2-6.2,3.9c-3.1,4.2,9.4,0.1,11.1-1.2c4.2-1.2,8.7-0.2,13,1c3.5,0,4.6,5.7,8.2,4.4
			c1.4-1.2-1.1-3.7,0.4-5.5c2-3.9,6.4-4,10.1-5c3.7-0.8,7.9-3.6,11.4-4.9c3.9-3.4,14-2.7,15.4-7.7c-17.9,6.7-1.7-0.8,1-11.7
			C146.6,97.8,136.3,123.3,129.7,124.9z M129.7,124.9c-4.2,2.7-8.4,4.7-13.2,6.1c-4.2,1.2-9.1,1.2-11.9,5.3
			c-4.3-4.4,4.5-9.1,6.7-12.6c3.5-4.2,6.1-10.2,10.3-13.7c14.4-1.9,23.6-20.6,13.9-10c-2.7,3.4-6.9,6.4-11.3,6.5
			c2.5-5.2,5.2-11.3,7.4-16.8c2.1-11.7-4.5,7.5-6.3,9.3c-5.5,10.9-13.6,21.1-22.5,29.5c-4.9-7,9-18.9,12-25.4
			c2.6-4.6,4.9-9.4,4.9-14.7c0.6-3.1,2.8-6.2,3.2-9.2c-4.3-1.7-6.6,14.7-8,18.1c-2.8,7.2-9.5,13.8-12.6,20c-1.3,0.4-1,3.3-2.1,2.9
			c-0.3-5.1-3.5-12.3-0.7-16.8c2.9-6.3,5.8-12.8,8.7-19.1c1.3-3.1,11.2-9.7,6.6-12.2c-1.5,1.8-1.8,4.8-4,6.2c-0.4-2.5,2.7-6.7-1-6.2
			c-0.8,6.9-4.3,13.7-7.6,19.9c-1.8,2-2.4,8.8-5,8.5c-1.2-4.7-1.9-9.1-1.9-14.1c4.4-6.2,7.5-15,9.5-22.5c-3.8-3.1-5.6,15.3-8.6,17.2
			c-3.8,4.5,2.1-25.5,1.1-29.5c-3.8-4.1-2.8,11.6-3.7,14.3c-1.7,8.1,1.9,23.3-6.6,13.3c-2.5-1.6-3.1-5.2-4.6-7.1
			c-3.7-0.2,0.2,4.9,1,6.2c4.9,5.9,10.4,7.6,9.8,16.4c0.2,2.4,0.6,7.3,1.1,8.8c-4.7-1.7-9.5-5.4-13.7-8c-5.5-3.2-5.9-13-7.8-16.5
			c-2.8,2.8,0.3,9.5,1.9,12.8c3.2,5.6,9.9,8.8,15.1,12.2c7.3,2.2,6.2,10.7,7.4,16.9c-3.3-2-6.7-6-9.5-8.8c-7.4-11.9-3.6,1.5,1.9,4.8
			c2.7,4.3,8.4,6.3,9.1,11.9c-4.9-1.4-13.1-6.3-18.4-8.9c-9.6-2.6-4.1-12.9-7.8-19.5c-1.5-2.4-3.6-10.2-6.5-8.8
			c3.7,6.6,7.3,13.7,6,21.6c-3.7,1.7-9.2-13-9.7-17.4c-1.1-6.7-3.1-2.6-1.6,1.6c1.1,3.2,1.6,6,3.1,9.2c1.2,3.5,3.7,6.9,6.2,9.4
			c-3.7,1.7-8.2,0.5-11.4-1.8c-3.8-0.6,2,3.5,3.5,3.8c4.2,2.2,10-1.1,14,1.9c2.8,1.8,6,3.7,8.8,5.7c-3.1,1.8-11-2.2-12.1,0.5
			c6,4.3,14.2-0.2,20.1,3.5c4,1.2,8.1,4,7.9,8.7c-1.8-0.2-4.4-1.3-6.4-1.5c-10.4-0.7-20.1-4-28.3-10.5c-1.5-1.3-12.1-6.9-7-1.8
			c2.8,2.2,6.5,3.7,9.3,6.1c2.8,2.2,7.9,4.2,11.1,6c7.3,1.7-3.7,3.2-6.2,3.9c-3.1,4.2,9.4,0.1,11.1-1.2c4.2-1.2,8.7-0.2,13,1
			c3.5,0,4.6,5.7,8.2,4.4c1.4-1.2-1.1-3.7,0.4-5.5c2-3.9,6.4-4,10.1-5c3.7-0.8,7.9-3.6,11.4-4.9c3.9-3.4,14-2.7,15.4-7.7
			c-17.9,6.7-1.7-0.8,1-11.7C146.6,97.8,136.3,123.3,129.7,124.9z M100,0C44.8,0,0,44.8,0,100s44.8,100,100,100s100-44.8,100-100
			S155.2,0,100,0z M100.5,185.5C53.4,185.5,15,147.1,15,100s38.4-85.5,85.5-85.5c47.1,0,85.5,38.4,85.5,85.5
			S147.7,185.5,100.5,185.5z M100.5,22.5C57.7,22.5,23,57.2,23,100s34.7,77.5,77.5,77.5c42.8,0,77.5-34.7,77.5-77.5
			S143.3,22.5,100.5,22.5z M144.8,126.7c-1.1,2.2-10.2,7.7-5.7,8.8c-1.3,2.8-13.5,3.9-10.7,7.4c-2.5,3.1-11.1,0.3-11.8,4.2
			c-3,0.9-9.7-3.7-9,2.3c0,2.4,0.7,4.2,0.6,6.6c0,1.4,1.7,2.7,0.4,3.9c-0.1-0.2-4.8,0.5-4.3-0.3c0.2-3.6-1.5-7.5-2.2-10.5
			c0.2-6.8-7.7,2.4-10.8,2.2c-1,0-2.7,1.3-3.3,0.3c1.9-3.8-8-1-10.3-2.6c-1.3-0.2,0.1-0.8,0.4-1.3c-0.9-3.3-7.2-2-9.8-4
			c-0.3-0.4-1.8-0.5-1.7-1.3c5-1.5-9.2-6.7-10-9.8c-1.7-1.6-0.2-1.2,0.9-1.9c-1.5-3-5-6.2-6-9.8c-0.7-1.4-0.3-1.5,1.2-1.2
			c0.3-1.7-1.1-5.1-1.5-7.2c-2-6.8,3.1,2,1.5-9c-1.3-8.8,2.5-3.4,3.9-9.6c0.9-2,1.4-4.4,2.4-6.4c0.8,0.2,1.7,1.8,2.5,0.5
			c1.9-2.7,2.7-6.3,4.3-9.1c0.7,0,1.5,2,2.3,0.6c1.3-1.8,2.8-4.8,3.2-7.1c1.9-0.6,5.5-0.6,4.8-3.4c0.4-0.9-0.9-4.1,1.3-3.5
			c3.2-3,7.7-6.3,9.9-9c1-0.5,1.4-2.8,1.5-3.1c1.2,1.7,1.9-1.4,2.5-1.6c0.8-0.9,0.3-4.3,2.1-3.7c1-1,0.3-2.8,1.6-3.7
			c1-8.1,1.7-1.9,2.6,1.2c1.7,0.3,1.4,2.2,2,3.3c9,4.9,5.9,6.6,9,12.1c2.8,2.2,10.7,10.4,10.9,4.9c1.6-0.5,4.4,5.3,5.6,8.5
			c0.8,1.6,1.4,0.7,2.3-0.1c2.2,2.9,2.9,6.9,5.5,9.7c1.1,1.1,1.4-1.4,1.9-1.2c1.5,1.6,5.8,12.8,7.3,7.3c2.1,1.5,2.3,14.8,6,10.5
			c1.3,2.8-3.1,10.3,1.8,9.5c0.3,4.1-3.3,7.7-4.4,11.6C142.6,125.6,149.1,123.1,144.8,126.7z M129.7,124.9
			c-4.2,2.7-8.4,4.7-13.2,6.1c-4.2,1.2-9.1,1.2-11.9,5.3c-4.3-4.4,4.5-9.1,6.7-12.6c3.5-4.2,6.1-10.2,10.3-13.7
			c14.4-1.9,23.6-20.6,13.9-10c-2.7,3.4-6.9,6.4-11.3,6.5c2.5-5.2,5.2-11.3,7.4-16.8c2.1-11.7-4.5,7.5-6.3,9.3
			c-5.5,10.9-13.6,21.1-22.5,29.5c-4.9-7,9-18.9,12-25.4c2.6-4.6,4.9-9.4,4.9-14.7c0.6-3.1,2.8-6.2,3.2-9.2
			c-4.3-1.7-6.6,14.7-8,18.1c-2.8,7.2-9.5,13.8-12.6,20c-1.3,0.4-1,3.3-2.1,2.9c-0.3-5.1-3.5-12.3-0.7-16.8
			c2.9-6.3,5.8-12.8,8.7-19.1c1.3-3.1,11.2-9.7,6.6-12.2c-1.5,1.8-1.8,4.8-4,6.2c-0.4-2.5,2.7-6.7-1-6.2c-0.8,6.9-4.3,13.7-7.6,19.9
			c-1.8,2-2.4,8.8-5,8.5c-1.2-4.7-1.9-9.1-1.9-14.1c4.4-6.2,7.5-15,9.5-22.5c-3.8-3.1-5.6,15.3-8.6,17.2c-3.8,4.5,2.1-25.5,1.1-29.5
			c-3.8-4.1-2.8,11.6-3.7,14.3c-1.7,8.1,1.9,23.3-6.6,13.3c-2.5-1.6-3.1-5.2-4.6-7.1c-3.7-0.2,0.2,4.9,1,6.2
			c4.9,5.9,10.4,7.6,9.8,16.4c0.2,2.4,0.6,7.3,1.1,8.8c-4.7-1.7-9.5-5.4-13.7-8c-5.5-3.2-5.9-13-7.8-16.5c-2.8,2.8,0.3,9.5,1.9,12.8
			c3.2,5.6,9.9,8.8,15.1,12.2c7.3,2.2,6.2,10.7,7.4,16.9c-3.3-2-6.7-6-9.5-8.8c-7.4-11.9-3.6,1.5,1.9,4.8c2.7,4.3,8.4,6.3,9.1,11.9
			c-4.9-1.4-13.1-6.3-18.4-8.9c-9.6-2.6-4.1-12.9-7.8-19.5c-1.5-2.4-3.6-10.2-6.5-8.8c3.7,6.6,7.3,13.7,6,21.6
			c-3.7,1.7-9.2-13-9.7-17.4c-1.1-6.7-3.1-2.6-1.6,1.6c1.1,3.2,1.6,6,3.1,9.2c1.2,3.5,3.7,6.9,6.2,9.4c-3.7,1.7-8.2,0.5-11.4-1.8
			c-3.8-0.6,2,3.5,3.5,3.8c4.2,2.2,10-1.1,14,1.9c2.8,1.8,6,3.7,8.8,5.7c-3.1,1.8-11-2.2-12.1,0.5c6,4.3,14.2-0.2,20.1,3.5
			c4,1.2,8.1,4,7.9,8.7c-1.8-0.2-4.4-1.3-6.4-1.5c-10.4-0.7-20.1-4-28.3-10.5c-1.5-1.3-12.1-6.9-7-1.8c2.8,2.2,6.5,3.7,9.3,6.1
			c2.8,2.2,7.9,4.2,11.1,6c7.3,1.7-3.7,3.2-6.2,3.9c-3.1,4.2,9.4,0.1,11.1-1.2c4.2-1.2,8.7-0.2,13,1c3.5,0,4.6,5.7,8.2,4.4
			c1.4-1.2-1.1-3.7,0.4-5.5c2-3.9,6.4-4,10.1-5c3.7-0.8,7.9-3.6,11.4-4.9c3.9-3.4,14-2.7,15.4-7.7c-17.9,6.7-1.7-0.8,1-11.7
			C146.6,97.8,136.3,123.3,129.7,124.9z"/>
	</g>
</g>
</svg>
