<?xml version="1.0" encoding="UTF-8"?><svg id="Layer_2" xmlns="http://www.w3.org/2000/svg" viewBox="0 0 720 188.6"><defs><style>.cls-1{fill-rule:evenodd;}</style></defs><g id="cbnl-logo"><path class="cls-1" d="M688.24,28.66c-.66,.61-1.66,1.76-2.16,2.36-.26,.31-.15,.31-.38,.61-.02,.03-.04,.05-.07,.08l-1.9,1.96s0,0-.01,.01c-.57,.56-.34,.71-.93,1.31-.26,.27-.34,.39-.55,.65-.45,.56-.07-.01-.3,.63-.2,.55-.66,.85-1.04,1.34-.23,.31-.15,.37-.33,.66-.25,.4-.62,.55-.12,.99,.29,.25,.9,.1,1.25,.06,.25-.03,.55-.07,.82-.16,.11-.04,.21-.09,.37-.15,.01,0,.03,0,.04-.01l.97-.38c.07-.03,.12-.04,.19-.06,.77-.14,1.77-.64,2.64-.96,.39-.15,.44-.08,.83-.21,.52-.17,1.14-.58,1.68-.58,.56,0,1.09-.29,1.67-.48,.15-.05,.27-.05,.38-.08,.21-.06,.26-.12,.46-.18,.46-.13,.28,.06,.76-.16,.04-.02,.07-.03,.12-.05l3.3-1.1s.09-.03,.13-.04c.45-.09,.79-.34,1.16-.4,.59-.1,2.34-.87,2.97-1.02,.48-.11,1.24-.25,1.65-.5,1.05-.65,2.41-1.41,3.36-2.21,.03-.02,.06-.04,.09-.07l1.2-.8s.06-.04,.1-.06c.04-.02,.1-.05,.14-.07,.02-.01,.04-.02,.07-.03,.25-.11-.07-.05,.22-.06l.1,.1c.23,.24,.33,.55,.28,.88-.04,.33-.22,.6-.5,.77-.04,.02-.08,.04-.1,.06-.78,.37-.29,0-1.15,.74-.61,.52-.76,.24-2.5,1.82,.04,.02,.12,0,.11,.04,0,.03,.06,.03,.1,.03,.02,0,.03,0,.05,0l1.21,.1c.62,.05,1.14-.24,2.05-.23,.18,0,.03,.04,.22,0,.45-.07,.92-.34,1.31-.55,.39-.21,.64-.21,1.05-.4,.41-.18,.86-.11,1.18,.2l.28,.27c-.39,.36-.73,.66-1.1,.9-.91,.59-3.04,.91-4.26,1.09-.05,0-.1,.01-.16,.01h-4.07c-.46,0-.66-.04-1.05-.08-.47-.05-1.64,.17-2.12,.33l-2.07,.7s-.07,.02-.1,.04c-.29,.13-.16,.1-.48,.18-.6,.14-1.07,.23-1.62,.68l-.44-.18c-.46,.39-1.02,.57-1.61,.72-.04,0-.07,.02-.11,.03l-1.51,.55s-.03,.01-.05,.02c-.31,.13-.58,.12-.74,.17-.2,.06-.81,.41-1.59,.64-.01,0-.03,0-.04,.01l-3.98,1.37s-.05,.02-.07,.03c-.31,.13-.39,.09-.72,.17-.32,.08-.56,.15-.82,.24-.47,.15-.86,.24-1.33,.52-.22,.13-.45,.18-.7,.15-.03,0-.08,.02-.24,.08l-.46,.18c-.14,.05-.26,.07-.41,.07-.02,0-.02,.03-.35,.23-.47,.29-.31,.1-.7,.29-.55,.27-3.91,4.05-4.49,4.75-.35,.43-.3,.68-.88,1.26-.57,.58-.68,.64-.67,.77,.02,.32-.09,.6-.32,.82-.55,.53-.81,.85-1.28,1.55-.02,.03-.03,.05-.05,.07l-.92,1.14,.35,.55c.38-.14,.32-.03,.53-.11,.7-.24,.81-.62,1.93-.71,.99-.08,.26,.25,1.27-.22,.21-.1,.35-.13,.63-.12,.04,0,.05,0,.06,0,.06,0,.11,0,.16,0l.34-.02c.07,0,.13-.01,.2-.03,.04,0,.06-.01,.18-.03,.02,0,.03,0,.04,0l.95-.15s.01,0,.02,0c.56-.08,1.19-.46,1.86-.51,.02,0,.04,0,.06,0l1.89-.26s.04,0,.07-.01c.48-.1,.8-.02,1.25-.16,.59-.18,1.26-.04,1.89-.15,.47-.08,.82-.21,1.29-.2,.59,.02,5.51-.8,5.82-.93,.91-.37,.57-.47,1.71-.62,.08-.01,.15-.03,.23-.06l1.16-.42s.08-.03,.12-.05c.48-.24,.25-.05,.61-.17,.36-.13,.55-.52,.91-.56,.4-.05-.11,.17,.33-.02,.04-.02,.08-.03,.12-.06l1.56-.87s.02,0,.02-.01c.46-.27,1.1-.92,1.58-1.07,.55-.17-.07,.31,.68-.21,.82-.57,1.69-1.01,2.58-1.4,.32-.14,.32-.16,.61-.26,.43-.15,.84-.52,1.29-.69,.02,0,.03-.01,.05-.02l.2-.09s.02,0,.03-.01c.03-.02,.06-.03,.1-.05l.94-.43c.29-.13,.36-.02,.67-.15,0,0,.01,0,.02,0l.89-.35s.04-.02,.07-.03c.67-.32,.98-.15,1.57-.32,.05-.02,.1-.03,.15-.03l1.79-.27c.57,.05,.57,.4,.33,.72-.3,.39-.78,.57-1.12,.67-.26,.07-.33,.13-.41,.2-.13,.11-.26,.18-.43,.23l-2.12,.57s-.01,0-.02,0c-.02,0-.05,.01-.07,.02l-.49,.28c-.05,.03-.09,.05-.15,.07-.26,.1-.4,.07-.68,.23l-.78,.42s-.07,.04-.11,.05c-.51,.21-.88,.59-1.24,.7-.47,.14-.32-.05-.8,.34-.48,.38-.96,1.03-1.45,1.27-.18,.09-.28,.14-.34,.16-.26,.1,.7-.44,.03-.02l-.03,.02c-.41,.26-.74,.71-1.12,.87-.31,.13-.42,.18-.71,.41-.35,.27-.36,.27-.45,.28-.14,0-.25,.03-.38,.09l-1.33,.59s-.06,.03-.09,.05c-.2,.11-.44,.26-.63,.34l-.84,.32s0,0-.01,0c-.04,.02-.08,.03-.12,.04l-.51,.14s-.05,.01-.08,.02c-.33,.06-1.09,.11-1.71,.43-.02,0-.04,.02-.05,.03-.18,.1-.35,.14-.55,.14h0s-.03,0-.05,0c-.02,0-.04,0-.06,0-.61,.08-1.09,.36-1.71,.49-.03,0-.06,.01-.09,.02l-.85,.1s-.03,0-.05,0c-.03,0-.05,.01-.07,.02l-1.26,.38c-.52,.16-.59-.03-1.44,.27-.24,.08-.36,.08-.63,.12-.03,0-.06,0-.09,.01l-.5,.04s-.08,0-.12,.02c0,0-.01,0-.02,0-.46,.09-.98-.02-1.47,.12-.04,.01-.08,.02-.12,.03l-1.03,.17s-.05,0-.07,0l-.2-.02s-.05,0-.08,0c-.69-.02-2.9,.12-3.51,.33-.71,.24-.12,.04-.75,.07-1.22,.05-2.89,.59-4.08,.97-.02,0-.04,.01-.06,.02l-1.6,.41s-.05,.01-.08,.02c-.52,.17-.87,.44-1.4,.56-.5,.11-.97,.08-1.42,.38-1.04,.7-2.11,1.27-2.93,2.29-.23,.28-.19,.41-.41,.73-.31,.45-.98,1-.05,1.24,.42,.11,.28-.05,.68-.07,.04,0,.08,0,.12,0l4.25,.31s.09,0,.14,.02c.27,.06,.23,.09,.59,.1,.28,0,.48-.03,.75-.02,.25,0,.47,.05,.75,.09,.99,.14,1.94,.1,2.94,.12,.52,.01,.27,0,.75-.16,.44-.15,1.57-.23,2.12-.32,.29-.04,.45-.1,.76-.16,.51-.1,.99-.09,1.44-.19,.59-.13,.86-.24,1.5-.24,.26,0,.03,.02,.27-.02,.02,0,.04,0,.07,0l1.84-.19s.01,0,.02,0c.72-.06,1.47-.41,2.19-.45,1.22-.08,1.21-.27,2.52-.22,.03,0,.05,0,.08,0l1.74-.07s.04,0,.06,0c1.02,.01,1.97,.01,2.92-.28,.71-.22,1.53-.36,2.21-.68,.5-.24,1.04-.32,1.59-.47,.4-.11,.68-.11,1.01-.3,.17-.1,.2-.14,.39-.23,.31-.16,.47-.18,.71-.19,.16,0,.14,0,.31-.03,1.96-.36,1.27-.29,2.88-.73,.05-.01,.09-.03,.13-.05l.69-.29s.02,0,.03-.01c.18-.07,.23-.09,.23-.09,.15,0,.28-.02,.42-.07l1.2-.49s.05-.02,.07-.03c.62-.31,.72-.13,1.4-.47,1.03-.5,1.95-.81,3-1.39,.33-.18,.75-.53,1.13-.32,1.16,.62-1.96,2-2.33,2.17-.67,.32-1.22,.35-1.83,.71-.13,.07-.4,.23-.54,.29-.3,.14-.35,.1-.6,.14-.36,.05-.81,.23-1.22,.46-.03,.01-.23,.13-.23,.13-.13,.05-.14,.06-.17,.06-.07,0-.13,.01-.2,.03l-1,.25c-.14,.04-.26,.09-.37,.18-.1,.08-.19,.15-.38,.23-.13,.05-.31,.07-.5,.14-.01,0-.02,0-.04,.01l-3.45,1.34s-.07,.03-.11,.04c-.38,.1-.66,.11-1.01,.26-.04,.02-.07,.03-.11,.04l-2.24,.7s-.08,.02-.12,.03c-.42,.08-.72,.31-1.18,.37-.03,0-.27,.04-.29,.05-.16,.06-.22,.12-.09,.37,.08,.15,.06,.11,.17,.24,.41,.5,2.5,1.81,3.08,2.05,.39,.16,.06,.03,.51,.08,.37,.05,1.05,.37,1.43,.55,.04,.02,.08,.03,.12,.05l.86,.29s.07,.02,.11,.03c.73,.16,1.41,.33,2.15,.26,.03,0,.06,0,.09,0h2.78s.04,0,.06,0c.23-.01,.24-.02,.5-.01,.37,0,.62,.02,.98,.04,.53,.02,.88-.12,1.34-.09,.01,0,.02,0,.03,0h.19s.03,0,.05,0c.5-.01,1.13-.17,1.53,.13-.11,.29-.23,.46-.6,.64-.48,.24-2.41,.54-3.01,.6-.02,0-.03,0-.05,0l-.51,.08s-.05,0-.08,0c0,0,0,0,0,0-.05,0-.1,0-.15,0h-.66c-.06,0-.12,0-.18,0-.73,.11-2.04,.06-2.61-.1-.35-.1,.01-.04-.38-.08-.51-.05-1.07,0-1.57-.15-.15-.04-.21-.1-.37-.14-.88-.26-3.55-1.05-4.16-1.45-.03-.02-.05-.03-.08-.05l-.81-.43s-.03-.02-.05-.02c-.48-.23-.83-.61-1.31-.81-.02,0-.05-.02-.07-.02-.57-.23-.69-.49-1.48-.81-.5-.2-.9-.48-1.42-.65-.04-.01-.08-.02-.12-.03l-1.49-.31s-.08-.01-.12-.02c-.52-.05-1.37,.17-1.89,.33-.03,0-.06,.02-.08,.03-.31,.12-.54,.26-.84,.25-.03,0-.06,0-.1,0l-1.49,.08c-.09,0-.16,.02-.25,.04-.32,.1-.22,.09-.63,.11-.29,.01-.47,.01-.75,.1-.52,.16-1.04,.08-1.51,.21-.48,.14-.24,.16-.77,.2-1.6,.12-1.81,.36-2.72,.43-.41,.03-.72-.11-1.17,0-.01,0-.03,0-.04,0l-1.57,.3s-.09,.02-.14,.04c-.16,.05,.04,0-.17,.03-.66,.07-5.74,0-6.55-.14-1.38-.25-2.73-.31-3.96,.62-1.09,.83-1.06,1.16-1.73,2.1-.28,.39-.31,.41-.35,.8l.34,.39c1.7-.51,1.77,.03,2.79,.04,.96,0,2.39,.9,3.29,1.32,.32,.15,.25,.07,.52,.18,.34,.15,.57,.41,.86,.71,.08,.08,.15,.14,.25,.2,.04,.02,.05,.03,.05,.03,.25,0,.47,.08,.67,.23,.25,.2,.49,.38,.75,.64,.59,.6,.7,.46,1.62,1.03,.63,.39,2.23,1.4,2.82,1.52,.22,.05,.32,.04,.52,.14,.51,.28,1.18,.72,1.71,.88,.31,.09,.25,.06,.53,.19,.56,.25,1.12,.26,1.7,.56l.27,.14s.05,.02,.07,.04c.01,0,.02,0,.03,.01l1.47,.58c.1,.04,.17,.08,.25,.14,.02,.01,.05,.03,.15,.06,.22,.08,.04,.01,.21,.03,.25,.03-.08-.06,.3,.03,.46,.11,.95,.41,1.42,.44,.34,.02,2.46,.61,3.67,.67,1.11,.05,2.22,.28,3.35,.18,.02,0,.04,0,.06,0l3.36-.09c.43-.01,.62-.16,1.04-.18,.07,0,.14-.01,.21-.03l4.89-1.22c.06-.01,.11-.03,.16-.06,.21-.09,.23-.15,.52-.22,.11-.03,.37-.05,.52-.09,.14-.04,.19-.07,.3-.11,.02,0,.05-.02,.08-.03l2.33-.85s.05-.02,.07-.02c.02,0,.03,0,.05-.01,.39-.13,.64-.36,1.35,.04-.85,.8-1.39,1.22-2.41,1.55-.03,0-.06,.02-.09,.03l-.75,.31c-.06,.02-.11,.04-.18,.06-.17,.04-.36,.05-.62,.14-.47,.16-.47,.07-.83,.25-.78,.38-.7,.48-1.68,.69-.01,0-.02,0-.04,0l-.6,.11c-.12,.02-.23,.02-.35,0-.02,0-.05,0-.16,.03-.53,.11-.83,.35-1.68,.46-.4,.05-.91,.35-1.22,.37-.28,.02-.05,0-.37-.07-.7-.13-1.41,0-2.11,.01l-3.14,.1s-.05,0-.07,0c-.31-.01-.42-.08-.71-.08-.31,0-.5,.05-.84,.04-1.51-.04,.97,1.22,1.18,1.38,.66,.53,1.29,.64,2.01,1.09,.16,.1,.33,.27,.45,.34,.41,.23,.15-.13,.73,.16,.19,.09,.2,.16,.37,.25,.58,.3,.28,0,1.23,.63,.04,.02,.07,.04,.11,.06l.53,.27s.01,0,.02,0c.14,.07,.08,.02,.25,.16l-.09,.11c-.27,.33-.68,.47-1.1,.36-.57-.14-1.23-.47-1.58-.58-.4-.13-.22-.1-.6-.32-.56-.33-1.26-.41-1.82-.72-.01,0-.02-.01-.04-.02l-2.91-1.76s-.06-.04-.09-.06c-.38-.28-.49-.11-1.22-.61-.41-.28-.77-.46-1.18-.67-.43-.22-.67-.18-1.09-.3-.06-.02-.11-.03-.16-.06l-1.7-.79s-.02,0-.03-.01c-.32-.16-.33-.04-.66-.16-.25-.09-.36-.21-.6-.31-.27-.11-.23-.05-.59-.23-.51-.25-1.04-.32-1.64-.59-.02,0-.04-.02-.06-.03-.01,0-.03-.01-.04-.02l-4.24-1.67s-.06-.02-.09-.03c-.59-.17-1.94-.91-2.42-1.2-.29-.17-.32-.27-.59-.39-.37-.17-.11,.07-.6-.24-.79-.49-1.5-1.24-2.35-1.67-.44-.23-.8-.75-1.26-.92-.47-.17-.73-.11-1.2-.42-.32-.21-.53-.32-.88-.34-.29-.02-.04,0-.29,0-.03,0-.12,0-.16,0-.57-.03-1.1-.14-1.65-.04-.56,.11-.57,0-1.05,.09,0,0-.02,0-.03,0-.03,0-.06,.01-.1,.02l-.11,.02c-.65,.08-.78,.61-1.38,.75-.77,.19-.53,.62-1.2,1.35-.71,.77,.22,.46-.76,1.24-.28-.14-.57-.23-.83-.38-.24-.14-.41-.35-.49-.62l-.52-1.75c-.04-.15-.06-.29-.04-.44,.11-.86,.32-.68,.37-1.48,.02-.31,.03-.18,.09-.46,.09-.42-.25-.97-.34-1.43,0-.02,0-.06-.01-.08,0-.03,0-.05,0-.07-.01-.13-.05-.25-.11-.37l-.57-1.14s0-.02-.01-.03c-.79-1.7-.76-1.31-1.55-2.67-.24-.42-.15-.46-.46-.91-.94-1.38-2.61-3.29-3.82-4.53-.54-.56-.42-.37-.91-.6-.28-.13-.49-.36-.78-.5-.02,0-.03-.02-.05-.02l-.84-.35s-.05-.02-.07-.03c-.44-.22-.4-.07-.86-.28-.27-.13-.66-.42-.9-.53-.49-.21-.23,.14-.8-.23-.49-.32-.47-.26-.84-.43-.04-.02-.07-.03-.1-.05l-2.39-1.45c-.08-.05-.14-.1-.21-.17-.86-.88-1.38-1.29-1.92-2.47l.55-.48c.5,.16,.52,.39,.95,.57,.37,.16,.13-.08,.5,.19,.16,.12,.37,.37,.52,.52,.58,.58,2.41,1.52,3.15,2.15,.66,.56,.47,.14,1.02,.45,.58,.33,.31,.35,1.04,.58,.4,.13,.64,.3,.99,.4,.62-.57-.24-1.64-.5-2.27,0-.02-.02-.04-.03-.06l-.3-.61c-.08-.17-.12-.33-.11-.51,0-.04-.03-.13-.16-.39-.03-.05-.04-.1-.06-.15l-1.57-4.82s-.02-.07-.04-.1c-.26-.58,.07-.25-.12-.77-.24-.66-.7-1.75-.69-2.19,0-.02,0-.05,0-.08h0c0-.06,0-.1,0-.15l-.09-.77c0-.05-.01-.1-.03-.15-.35-1.33-.11-.6-.28-1.87,0-.01,0-.02,0-.03l-.13-.8s0-.03,0-.05c-.04-.35,.05-.1-.03-.41,0,0,0-.01,0-.02l-.33-1.54s-.01-.08-.02-.12c-.01-.15,0-.19-.03-.31-.03-.19-.08-.27-.1-.46-.07-.42,.05-.3-.11-.79,0-.03-.02-.05-.02-.08l-.12-.5c-.03-.13-.03-.11-.07-.23-.29-1.01-.66-2.19-.74-3.26-.03-.41,.05-.44,.01-.83-.04-.39-.19-1.3-.06-1.63,1.01-.02,.97,.89,1.2,1.38,.25,.54,.33,.56,.45,1.13,0,0,0,.01,0,.02l.46,2.09s0,.03,.01,.05c.13,.48-.04-.17,.03,.19,0,.02,0,.1,.05,.24,.07,.23,.09,.18,.15,.45l.37,1.79s0,.04,.01,.06c.21,.8,.17,.44,.21,1.39,.01,.37,.13,.54,.17,.91,.03,.3,0,.7,.05,.98,.14,.91,.3,1.9,.61,2.74,.23,.61-.17,.33,.39,.99l-.38-.27c.43,.55,.32,.88,.56,1.47,.19,.47,.15,.65,.29,1.13,.12,.38,.05,.76,.23,1.12,.25,.51,.51,.92,.65,1.51,0,.02,.01,.04,.02,.07l.18,.58c.05,.16,.06,.31,.04,.48-.01,.07,0,.14,.09,.31,.19,.33,.33,.47,.5,.81,.27,.55,.31,1.08,.54,1.46,.03,.05,.05,.09,.07,.14l.27,.62s.03,.07,.04,.11c.17,.56,.95,1.23,1.21,1.87,.12,.28-.09-.05,.18,.38,.31,.49,.88,.96,1.04,1.47,.14,.44,.03,.28,.43,.72,.02,.02,.03,.04,.05,.06l1.76,2.24c.05,.06,.09,.12,.12,.19,.12,.24,0,.2,.36,.63,.01,.02,.02,.03,.04,.05l1.01,1.4s.03,.04,.04,.07c.18,.3,.1,.27,.43,.72,.51,.69,1.46,2.29,1.74,3.06,.14,.39,.26,.37,.38,.76,.15,.51-.01,.32,.49,.82,.58-.53,1.19-1.21,1.33-1.52,0,0,0,0,0-.01,.02-.05,.04-.09,.07-.14l.53-.89s.05-.08,.09-.12c.35-.43,.11-.19,.26-.62,.31-.88,.27-1.12,.29-2.02,.03-1.36-.59-3.49-1-4.78-.06-.18-.11-.28-.19-.39-.13-.18-.2-.36-.21-.59,0-.03-.01-.07-.02-.15l-.5-1.13s-.02-.04-.02-.06c0-.01,0-.02-.01-.03,0-.02-.01-.03-.02-.05l-.29-.85s0-.03-.01-.04c0-.02-.01-.04-.02-.06-.02-.06-.08-.23-.11-.31-.2-.55-.23-.55-.72-1.11-.56-.63-1.3-1.45-1.9-2.02-.53-.5-.48-.22-.96-.69-.53-.53-3.45-3.55-3.67-3.95-.16-.3,.13-.29-.42-1.04-.02-.03-.04-.05-.05-.08l-.46-.76c-.09-.15-.14-.3-.15-.48,0-.05-.01-.11-.04-.2-.12-.34-.18-.22-.29-.54-.14-.42,.09,0-.08-.44-.18-.48-.27-.45-.43-1.07-.11-.47-.26-.13,.05-.49,.79,.29,1.36,1.32,1.8,1.92,.16,.22,.32,.35,.48,.55,.45,.56,.17,.53,1.35,1.8,.54,.59,.51,.46,.76,1.12,.17,.44,2.95,2.91,3.23,3.03,.21-.3,.1-.11,.13-.39,0,0,0-.15,0-.26,0-.07,0-.14-.02-.21l-.22-1.08s-.01-.06-.02-.09c-.31-1.03-.36-2.81-.69-4,0-.03-.01-.05-.02-.08l-.22-1.14s0-.04,0-.05c-.05-.32-.05-.47-.2-.81-.38-.84-.12-.78-.33-1.66-.07-.29-.24-.55-.28-.77-.06-.35-.2-1.24-.43-1.63,0-.01-.01-.02-.02-.03l-.27-.53s-.04-.09-.06-.14c-.21-.58-1.04-1.18-1.5-1.44-.52-.29-1.17-1.12-1.62-1.48-1.79-1.44-2.05-2.48-2.68-3.29-.42-.54-.48-1-.71-1.6-.01-.03-.05-.12-.06-.15-.23-.59-.05-.91-.28-1.5-.28-.69-.24-.97-.31-1.68-.04-.45-.2-1.3,.14-1.62,.82,.61,.5,.68,.68,1.26,.12,.38,.17,.28,.21,.69,.05,.58,.26,1.01,.41,1.55,0,.02,.01,.04,.02,.07l.07,.31c.01,.06,.03,.11,.05,.16,.12,.32,.38,.59,.5,.92,.02,.04,.03,.08,.04,.13v.05s.04,.09,.05,.14c.48,1.28,1.89,2.58,2.98,3.3,.1,.06,.28,.22,.37,.28,.35,.26,.47,.26,.66,.39,.36,.24,.28,.32,.68,.45,.39-.32,.29-.56,.22-.96-.08-.42,.24-1.23,.21-1.95-.03-.71,.19-1.36,.24-2.06,0-.09,.02-.16,.05-.24l.49-1.56s.01-.04,.02-.06c.05-.15,.06-.23,.09-.36,0-.04,.02-.07,.03-.1l.5-1.43s0-.02,.01-.04c.35-.9,.72-1.48,.91-1.93,0-.02,.02-.05,.03-.07l.29-.81c.02-.06,.04-.1,.07-.15,.07-.13,.09-.18,.15-.37,.22-.69,.62-.73,.85-1.48,.18-.57,.47-.53,.69-.98,.05-.09,.04-.23,.17-.45,.13-.21,.31-.36,.49-.55l-.12-.13c.23-.45,.09-.25,.45-.74,.23-.31,.06-.34,.57-1.07,.14-.2,.08-.16,.2-.37,.31-.55,.89-.97,1.16-1.55,.24-.52,.93-1.17,1.43-1.53,.32-.23,.51-.24,.88,.03-.07,.41-.49,.85-.62,1.31-.03,.12,.07,.02-.15,.31-.2,.27-.5,.46-.71,.7-.12,.13-.19,.26-.23,.43l-.03,.11s-.02,.05-.03,.08c-.17,.35-.43,.56-.71,.88-.05,.06-.09,.11-.12,.17l-1.79,3.1s-.04,.07-.06,.11c-.12,.28-.13,.27-.32,.57-.02,.03-.04,.06-.06,.1l-.81,1.58s0,.05-.01,.07c-.15,.65-.86,1.69-.98,2.13,0,.02-.01,.04-.02,.07l-.43,1.26s-.02,.06-.03,.09c-.1,.43-.12,.71-.3,1.19-.01,.03-.02,.06-.03,.09l-.24,.89s-.01,.05-.02,.07c-.16,.48-.18,.99-.27,1.55,0,.04,0,.07-.01,.1l-.07,1.28s0,.01,0,.02c-.06,.85,.06,.75,.05,1.35-.01,.55-.03,.79,.02,1.33,.61-.1,.61-.12,1.21-.7,.49-.48,.88-.66,1.25-1.01,.29-.28,.27-.37,.48-.56,.12-.1,.35-.24,.55-.41,.03-.03,.06-.05,.09-.08l3.27-3.44c.06-.07,.11-.13,.16-.21,.18-.32,.26-.72,.48-1.01,.68-.92,1.35-1.83,1.59-2.95,0-.02,0-.03,.01-.05l.46-1.7c.02-.07,.04-.13,.07-.19,.06-.12,.12-.22,.18-.31,.04-.07,.07-.13,.09-.21l1.18-4.02c.02-.06,.04-.12,.07-.18,.25-.5,.04-.55,.69-1.14,.33,.33,.26,.35,.33,.71,.11,.65-.07,1.45-.25,2.11l-.38,1.33c-.02,.06-.03,.11-.03,.17-.12,1.07,.07,.17-.32,1.29,0,.03-.02,.05-.03,.08l-.56,1.29s-.02,.04-.02,.06c-.27,.73-.11,.75-.47,1.37-.21,.36-.09,.42-.45,1.05-.14,.24-.06,.16-.15,.38-.12,.3-.26,.4-.33,.67-.09,.39,.14,.21-.2,.69-.03,.04-.05,.08-.07,.12l-.24,.45s0,.05-.01,.07c-.08,.3-.23,.46-.48,.71-.02,.02-.03,.03-.05,.05l-2.43,2.77s-.02,.02-.02,.03c-1.36,1.45-2.75,2.72-4.18,4.09-.58,.56-.79,1.37-1,2.06-.01,.04-.02,.07-.03,.09-.04,.12-.06,.24-.05,.37v.06s0,.03,0,.05c0,.02,0,.05,.01,.07l.26,1.43s0,.05,.02,.08c.24,.93,.48,1.89,.58,2.84,.03,.26,.05,.31,.09,.37,.08,.11,.14,.22,.17,.36l2.3,8.44s0,.02,0,.03c.1,.4,.21,.36,.33,.74,0,.01,0,.03,.01,.04l.18,.65s0,.02,.01,.04c.06,.18,.15,.57,.22,.75,.07,.17,.16,.3,.25,.42,.11,.15,.16,.3,.19,.48l.02,.15s0,.02,0,.02c.02,.17,.03,.23,.05,.36,0,0,0,.01,0,.02l.16,.87c.02,.1,.02,.18,.01,.28,0,.01,.02,.04,.12,.23,.28,.51,.44,.58,.49,1.05,.02,.13,.05,.28,.09,.4,.03,.08,.06,.14,.09,.21,.02,.05,.03,.09,.05,.13l.4,1.4c.17,.62-.03,.65,.51,1.25,.14-.13,.25-.22,.37-.36,.35-.42,1-1.45,1.12-1.89,.19-.72,.27-.54,.38-1.03,0,0,0-.02,0-.02l.27-1.03s.02-.07,.04-.11c.44-1.14-.13-1.78,.03-2.51,.11-.55-.05-.97-.1-1.53-.03-.29-.05-.1-.04-.38,0-.06,.03-.21,.04-.3l.05-1.07s0-.07,.01-.11c.02-.16,.01-.14,.02-.32,0-.09,.01-.21,.01-.32,0-.05,0-.08,0-.13l.27-2.11c.11-.91,.14-.47,.12-1.45,0-.03,0-.06,0-.09l.06-.96c0-.06,0-.12,0-.18,0-.06-.02-.13-.02-.24-.02-.57,.06-.97,.09-1.5,.02-.39,.13-.67,.08-1.04-.06-.47,.16-.7,.22-1.13,.17-1.18,.16-1.06,.72-2.17,.32-.64,.7-.93,1.33-1.49,1.17,1.06-.28,1.5-.4,2.43-.13,.99-.46,2.04-.5,3l-.23,4.32s0,.06,0,.09c.01,.4,.08,.68,.05,1.05,0,.03,0,.06,0,.08l-.02,3.13s0,.08,0,.12c-.06,.53,.05,.54,.08,1.05,0,.01,0,.03,0,.04l.09,1.02s0,.02,0,.04c.05,.42-.12,.52,.14,.82,.34,.39,.17,.22,.22,.18,.11-.06,.19-.13,.28-.23l1.82-2.13s.01-.01,.02-.02c.45-.5,.9-1.4,1.93-2.53,.02-.02,.03-.04,.05-.06,.32-.42,.02-.06,.13-.32,0-.01,.19-.34,.23-.38,.24-.31,.58-.7,.82-.96,.89-.98,.43-.46,.67-.97,.55-1.15,1.66-1.28,1.67-2.88,0-.01,0-.02,0-.03l.05-1.79c0-.18-.03-.33-.1-.49-.1-.22-.25-.48-.29-.64,0-.02,0-.04-.01-.06l-.1-.37s-.02-.06-.03-.1c-.12-.32-.06-.13-.12-.46,0-.01,0-.03,0-.04l-.26-1.06c-.02-.09-.03-.18-.03-.28,0-.28-.03-.28-.18-.63-.21-.48,.01-.44-.14-.93-.01-.04-.02-.07-.03-.12l-.97-4.98s0-.03,0-.04c-.01-.05-.04-.16-.05-.21-.07-.27-.08-.23-.11-.53l-.24-2.38s0-.04,0-.07c-.01-.3-.02-.18-.15-.48-.33-.76,.03-.45,0-.99,0-.2-.08-.23-.14-.45-.05-.18-.05-.28-.04-.5,0-.02,0-.04,0-.07l.47-4.18c.01-.1,.03-.19,.07-.28,.19-.47,.18-.22,.3-.68,0-.03,.01-.06,.02-.08,0-.03,.02-.06,.03-.08,.04-.11,.1-.19,.14-.28,.05-.08,.08-.15,.1-.23l.34-1.14s.01-.04,.02-.06c.04-.16,.15-.32,.28-.46,.17-.2,.26-.43,.27-.69,0-.56,.3-.86,.75-1.44,.15-.18,.61-.66,.75-.89,.29-.46,.23-.6,.62-.96,1.06-1,2.1-2.83,3.42-2.64,.02,0,.06,.01,.08,.01,.02,0,.05,0,.08,.01-.11,.82-1.4,2-1.73,2.69-.32,.66-.86,1.2-1.14,1.83-.29,.67-1.22,1.31-1.91,3.17,0,.02-.01,.03-.02,.04l-1.05,2.49c-.04,.1-.07,.2-.08,.31l-.39,4.11s0,.03,0,.05c-.05,.32,.05,.3,.11,.64l1.02,5.96c.03,.18,.02,.34-.04,.51,0,0,.02,.05,.09,.25,.23,.67,.48,1.08,.54,1.78,0,.04,0,.08,.02,.12l.47,2.25s0,.03,0,.05c.05,.32,.22,.91,.43,1.52,.13,.39,.45,.66,.85,.72,.41,.06,.79-.1,1.03-.43,.29-.4,.77-.96,1.63-1.82,0-.02,0-.07-.02-.07l.1-.2c.06-.12,.13-.21,.22-.3,.67-.64,2.01-1.91,2.34-2.47,.61-1.02,.81-1.1,1.7-1.97,.48-.47,.64-.76,1.16-1.24,.88-.81,.51-.79,.95-1.34,.29-.36,.3-.19,.43-.61,.41-1.4,.46-1.15,.17-2.54-.02-.08-.02-.14-.02-.22v-2.79s.02-.05,.03-.08l.15-4.97s0-.02,0-.03c0-.03,0-.06,.01-.09l.17-.78c.05-.21,.05-.17,.1-.37,.04-.14,.04-.23,.04-.31-.02-.27,.05-.51,.21-.72,.21-.28,.05-.23,.22-.67,0,0,0-.01,0-.02l.15-.43c.02-.07,.04-.12,.05-.19,.12-.77,.58-1.91,1.34-2.36,.32-.19,.54-.03,.75,.25,.29,.38,.29,.88,.02,1.27-.88,1.23-1.48,3.1-1.57,4.41,0,0,0,.01,0,.02l-.09,1.93c0,.06,0,.11,0,.17,.14,1.27-.27,3.04,.12,4.13,0,.02,.02,.05,.03,.08,0,.01,.01,.03,.01,.05,0,.02,.01,.04,.02,.06l.21,.56s0,.03,.02,.04c.18,.43,.2,1.19,.8,1.13,.47-.05,3.22-3.24,4.6-3.92,.38-.19,6.99-5.64,9.27-7.5,.08-.07,.14-.13,.2-.22,.24-.34,.73-.63,1.09-.78,.07-.03,.14-.07,.2-.11,0,0,.02,0,.03,0,.02-.01,.03-.02,.04-.02,.17-.04,.31-.11,.44-.22l2.54-2.15s.04-.03,.06-.05c.35-.26,.72-.46,1.02-.64,.75-.45,1.39-1.25,2.17-1.78,.63-.44,.78-1.26,2.02,.44-.62,.61-3.4,3.46-4.12,3.7-.41,.14-2.44,1.92-3,2.47-.05,.05-.08,.09-.12,.14,0,0,0,0,0,0-.03,.02-.06,.03-.09,.05-.05,.03-.11,.04-.19,.04-.22-.02-.41,.02-.58,.08-.12,.04-.22,.1-.33,.18l-10.26,8.19s-.06,.05-.09,.07c-.58,.37-3.18,2.9-3.7,3.45,.85,.27,.27,.5,1.22,.06,.63-.3,1.36-.08,1.97-.37,1.23-.59,2.72-.82,4-1.33,.02,0,.04-.02,.06-.03l10.81-5.12,.03,.04c.24,.25,.35,.58,.29,.93-.06,.35-.26,.62-.58,.78-2.33,1.17-7.03,3.37-7.8,3.83-.06,.03-.11,.06-.18,.08l-5.41,1.95s-.07,.02-.11,.03c-.19,.05-.23,.09-.4,.14-.67,.2-.32-.14-.71,.04-.07,.03-.14,.06-.22,.07l-4.66,1.01c-.2,.04-.35,.12-.5,.26h0Zm-66.18,158.87v-4.15c0-.59-.48-1.07-1.07-1.07H121.3c-.59,0-1.07,.48-1.07,1.07v4.15c0,.59,.48,1.07,1.07,1.07h499.69c.59,0,1.07-.48,1.07-1.07h0Zm0-48.74v-4.15c0-.59-.48-1.07-1.07-1.07H121.3c-.59,0-1.07,.48-1.07,1.07v4.15c0,.59,.48,1.07,1.07,1.07h499.69c.59,0,1.07-.48,1.07-1.07h0Zm-16.53,8.56c-7.73,0-14,5.8-14,14s6.27,14,14,14,12.74-5.4,13.57-11.75v-2.44c0-.59-.48-1.07-1.07-1.07h-12.96c-.59,0-1.07,.48-1.07,1.07v1.44c0,.59,.48,1.07,1.07,1.07h7.9c.35,0,.64,.15,.85,.42,.21,.27,.27,.6,.18,.93-1.04,3.84-4.01,6.26-8.48,6.26-5.44,0-9.39-3.9-9.39-9.94s3.94-9.9,9.39-9.9c3.07,0,5.54,1.21,7.04,3.63,.2,.33,.53,.51,.91,.51h3.1c.39,0,.73-.19,.92-.53,.2-.34,.21-.72,.02-1.06-2.38-4.34-6.87-6.65-12-6.65h0Zm-22.91,1.39v15.79c0,.48-.3,.89-.76,1.03-.46,.14-.94-.03-1.2-.44l-11.24-16.97c-.2-.31-.52-.48-.9-.48h-2.85c-.59,0-1.07,.48-1.07,1.07v25.3c0,.59,.48,1.07,1.07,1.07h2.35c.59,0,1.07-.48,1.07-1.07v-15.82c0-.48,.3-.89,.76-1.03,.46-.14,.94,.03,1.2,.44l11.24,17.01c.2,.31,.52,.48,.9,.48h2.84c.59,0,1.07-.48,1.07-1.07v-25.3c0-.59-.48-1.07-1.07-1.07h-2.35c-.59,0-1.07,.48-1.07,1.07h0Zm-27.36,26.37h2.35c.59,0,1.07-.48,1.07-1.07v-25.26c0-.59-.48-1.07-1.07-1.07h-2.35c-.59,0-1.07,.48-1.07,1.07v25.26c0,.59,.48,1.07,1.07,1.07h0Zm-20.04-15.86v-6.8c0-.59,.48-1.07,1.07-1.07h3.9c3.51,0,5.09,1.66,5.09,4.5s-1.58,4.46-5.09,4.46h-3.9c-.59,0-1.07-.48-1.07-1.07h0Zm14.67-3.38c0-4.46-3.19-8.16-9.7-8.16h-8.39c-.59,0-1.07,.48-1.07,1.07v25.26c0,.59,.48,1.07,1.07,1.07h2.35c.59,0,1.07-.48,1.07-1.07v-8.97c0-.59,.48-1.07,1.07-1.07h3.9c7.14,0,9.7-4.22,9.7-8.12h0Zm-27.4,19.24h2.45c.36,0,.67-.16,.88-.46,.21-.29,.25-.64,.13-.98l-9.05-25.3c-.16-.43-.55-.71-1.01-.71h-3.69c-.46,0-.86,.28-1.01,.71l-9.05,25.3c-.12,.34-.07,.69,.13,.98s.52,.46,.88,.46h2.41c.46,0,.86-.28,1.01-.72l1.47-4.17c.15-.44,.55-.72,1.01-.72h9.96c.46,0,.86,.28,1.01,.72l1.47,4.17c.15,.44,.55,.72,1.01,.72h0Zm-5.51-9.27h-5.92c-.36,0-.67-.16-.88-.45-.21-.29-.26-.64-.14-.98l2.97-8.43c.15-.44,.55-.72,1.01-.72,.46,0,.86,.28,1.01,.72l2.95,8.43c.12,.34,.07,.68-.14,.98-.21,.29-.52,.45-.88,.45h0Zm-45.73-4.5c0,8.24,6.27,14,14,14,5.12,0,9.61-2.28,12-6.61,.19-.34,.18-.73-.02-1.06-.2-.34-.53-.53-.92-.53h-3.08c-.39,0-.73,.19-.93,.53-1.5,2.56-3.98,3.77-7.05,3.77-5.44,0-9.39-3.9-9.39-10.1s3.94-10.06,9.39-10.06c3.07,0,5.55,1.21,7.05,3.77,.2,.34,.53,.53,.93,.53h3.08c.39,0,.73-.19,.92-.53,.2-.34,.21-.72,.02-1.06-2.38-4.34-6.87-6.65-12-6.65-7.73,0-14,5.8-14,14h0Zm-3.83,5.99c0-10.02-14.51-6.15-14.51-12.34,0-2.64,2.01-3.9,4.61-3.83,2.45,.07,3.99,1.34,4.47,2.87,.14,.46,.55,.75,1.02,.75h2.84c.34,0,.63-.14,.84-.41,.21-.27,.28-.58,.2-.91-.93-3.88-4.41-6.13-9.14-6.13-5.6,0-9.42,3-9.42,7.81,0,10.1,14.55,5.8,14.55,12.42,0,2.33-1.77,4.02-4.93,4.02-2.73,0-4.28-1.39-4.75-3.25-.12-.48-.54-.81-1.04-.81h-2.75c-.33,0-.61,.13-.82,.38-.21,.25-.29,.54-.24,.87,.66,4.11,4.61,6.6,9.6,6.6,6.11,0,9.46-3.94,9.46-8.04h0Zm-37.5-19.64h-7.88c-.59,0-1.07,.48-1.07,1.07v25.26c0,.59,.48,1.07,1.07,1.07h7.88c8.79,0,14.55-5.17,14.55-13.61s-5.76-13.8-14.55-13.8h0Zm-4.46,22.67v-17.93c0-.59,.48-1.07,1.07-1.07h3.38c6.47,0,9.94,3.86,9.94,10.13s-3.47,9.94-9.94,9.94h-3.38c-.59,0-1.07-.48-1.07-1.07h0Zm-14.91-21.63v15.79c0,.48-.3,.89-.76,1.03-.46,.14-.94-.03-1.2-.44l-11.24-16.97c-.2-.31-.52-.48-.9-.48h-2.85c-.59,0-1.07,.48-1.07,1.07v25.3c0,.59,.48,1.07,1.07,1.07h2.35c.59,0,1.07-.48,1.07-1.07v-15.82c0-.48,.3-.89,.76-1.03,.46-.14,.94,.03,1.2,.44l11.24,17.01c.2,.31,.52,.48,.9,.48h2.84c.59,0,1.07-.48,1.07-1.07v-25.3c0-.59-.48-1.07-1.07-1.07h-2.35c-.59,0-1.07,.48-1.07,1.07h0Zm-26.25,26.37h2.45c.36,0,.67-.16,.88-.46,.21-.29,.25-.64,.13-.98l-9.05-25.3c-.16-.43-.55-.71-1.01-.71h-3.69c-.46,0-.86,.28-1.01,.71l-9.05,25.3c-.12,.34-.07,.69,.13,.98s.52,.46,.88,.46h2.41c.46,0,.86-.28,1.01-.72l1.47-4.17c.15-.44,.55-.72,1.01-.72h9.96c.46,0,.86,.28,1.01,.72l1.47,4.17c.15,.44,.55,.72,1.01,.72h0Zm-5.51-9.27h-5.92c-.36,0-.67-.16-.88-.45-.21-.29-.26-.64-.14-.98l2.97-8.43c.15-.44,.55-.72,1.01-.72,.46,0,.86,.28,1.01,.72l2.95,8.43c.12,.34,.07,.68-.14,.98-.21,.29-.52,.45-.88,.45h0Zm-31.26-17.07v25.26c0,.59,.48,1.07,1.07,1.07h11.62c.59,0,1.07-.48,1.07-1.07v-1.48c0-.59-.48-1.07-1.07-1.07h-7.12c-.59,0-1.07-.48-1.07-1.07v-21.63c0-.59-.48-1.07-1.07-1.07h-2.35c-.59,0-1.07,.48-1.07,1.07h0Zm-22.84,3.87c-.29-3.18-2.79-5.57-7.05-5.57-4.69,0-7.61,2.72-7.61,6.31,0,1.57,.36,2.82,1.32,4.23,.18,.26,.23,.56,.15,.87-.08,.31-.27,.54-.55,.69-3.55,1.83-5.26,4.7-5.26,8.06,0,5.13,3.94,8.4,9.86,8.4,3.48,0,6.3-1.04,8.77-3.22,.43-.37,1.07-.35,1.47,.05l2.34,2.34c.21,.21,.46,.31,.76,.31h2.83c.44,0,.82-.25,.99-.66,.17-.41,.08-.86-.24-1.17l-4.21-4.19c-.36-.36-.42-.9-.16-1.33,.18-.29,.36-.59,.54-.89l2.61-4.46c.2-.34,.2-.73,0-1.08-.2-.34-.54-.54-.93-.54h-2.38c-.39,0-.72,.19-.92,.52l-1.78,2.93c-.18,.29-.45,.47-.79,.51-.34,.04-.65-.06-.89-.3l-6.29-6.25c-1.93-2.09-2.76-3.31-2.76-4.81s1.14-2.64,2.92-2.64c1.42,0,2.46,.75,2.71,2.19,.09,.52,.53,.89,1.06,.89h2.41c.31,0,.58-.12,.79-.35,.21-.23,.3-.51,.28-.82h0Zm-9.14,19.15c-3.23,0-5.36-2.09-5.36-4.73,0-2.26,1.25-4.05,3.95-5.3,.42-.19,.89-.11,1.21,.22l5.98,6.01c.22,.22,.32,.48,.31,.79,0,.31-.13,.57-.36,.77-1.68,1.49-3.53,2.24-5.73,2.24h0Zm-35.65-6.36v8.6c0,.59,.48,1.07,1.07,1.07h2.35c.59,0,1.07-.48,1.07-1.07v-8.6c0-.18,.04-.33,.12-.49l8.14-15.67c.18-.34,.16-.72-.04-1.05-.2-.33-.53-.52-.92-.52h-2.52c-.43,0-.79,.23-.97,.62l-5.09,10.78c-.18,.38-.55,.62-.97,.62s-.79-.23-.97-.62l-5.09-10.78c-.18-.38-.55-.62-.97-.62h-2.56c-.39,0-.72,.19-.92,.52-.2,.33-.21,.71-.03,1.05l8.17,15.67c.08,.16,.12,.32,.12,.5h0Zm-17.11-9.53c0,2.72-1.58,4.65-5.09,4.65h-3.9c-.59,0-1.07-.48-1.07-1.07v-7.04c0-.59,.48-1.07,1.07-1.07h3.9c3.51,0,5.09,1.77,5.09,4.54h0Zm-14.55-7.13v25.26c0,.59,.48,1.07,1.07,1.07h2.35c.59,0,1.07-.48,1.07-1.07v-8.82c0-.59,.48-1.07,1.07-1.07h1.74c.39,0,.73,.2,.93,.54l5.69,9.89c.2,.34,.54,.54,.93,.54h2.85c.4,0,.74-.2,.93-.54,.2-.35,.19-.74-.01-1.08l-5.12-8.57c-.17-.28-.2-.59-.09-.9s.32-.53,.63-.65c3.69-1.41,5.11-4.53,5.11-7.46,0-4.46-3.19-8.2-9.7-8.2h-8.39c-.59,0-1.07,.48-1.07,1.07h0Zm-6.59-1.11h-13c-.59,0-1.07,.48-1.07,1.07v25.3c0,.59,.48,1.07,1.07,1.07h13c.59,0,1.07-.48,1.07-1.07v-1.52c0-.59-.48-1.07-1.07-1.07h-8.5c-.59,0-1.07-.48-1.07-1.07v-6.25c0-.59,.48-1.07,1.07-1.07h7.32c.59,0,1.07-.48,1.07-1.07v-1.52c0-.59-.48-1.07-1.07-1.07h-7.32c-.59,0-1.07-.48-1.07-1.07v-5.9c0-.59,.48-1.07,1.07-1.07h8.5c.59,0,1.07-.48,1.07-1.07v-1.52c0-.59-.48-1.07-1.07-1.07h0Zm-19.39,19.68c0-10.02-14.51-6.15-14.51-12.34,0-2.64,2.01-3.9,4.61-3.83,2.45,.07,3.99,1.34,4.47,2.87,.14,.46,.55,.75,1.02,.75h2.84c.34,0,.63-.14,.84-.41,.21-.27,.28-.58,.2-.91-.93-3.88-4.41-6.13-9.14-6.13-5.6,0-9.43,3-9.43,7.81,0,10.1,14.55,5.8,14.55,12.42,0,2.33-1.77,4.02-4.93,4.02-2.73,0-4.28-1.39-4.75-3.25-.12-.48-.54-.81-1.04-.81h-2.75c-.33,0-.61,.13-.82,.38-.21,.25-.29,.54-.24,.87,.66,4.11,4.61,6.6,9.6,6.6,6.11,0,9.46-3.94,9.46-8.04h0Zm-28.87-11.44c0,2.72-1.58,4.65-5.09,4.65h-3.9c-.59,0-1.07-.48-1.07-1.07v-7.04c0-.59,.48-1.07,1.07-1.07h3.9c3.51,0,5.09,1.77,5.09,4.54h0Zm-14.55-7.13v25.26c0,.59,.48,1.07,1.07,1.07h2.35c.59,0,1.07-.48,1.07-1.07v-8.82c0-.59,.48-1.07,1.07-1.07h1.74c.39,0,.73,.2,.93,.54l5.69,9.89c.2,.34,.54,.54,.93,.54h2.85c.4,0,.74-.2,.93-.54,.2-.35,.19-.74-.01-1.08l-5.12-8.57c-.17-.28-.2-.59-.09-.9s.32-.53,.63-.65c3.69-1.41,5.11-4.53,5.11-7.46,0-4.46-3.19-8.2-9.7-8.2h-8.39c-.59,0-1.07,.48-1.07,1.07h0Zm-27.25,16.32c0,6.98,4.89,10.29,10.65,10.29s10.77-3.31,10.77-10.29v-16.32c0-.59-.48-1.07-1.07-1.07h-2.35c-.59,0-1.07,.48-1.07,1.07v16.4c0,4.26-2.41,6.27-6.23,6.27s-6.19-2.01-6.19-6.27v-16.4c0-.59-.48-1.07-1.07-1.07h-2.35c-.59,0-1.07,.48-1.07,1.07v16.32h0Zm-10.37-16.36v15.79c0,.48-.3,.89-.76,1.03-.46,.14-.94-.03-1.2-.44l-11.24-16.97c-.2-.31-.52-.48-.9-.48h-2.85c-.59,0-1.07,.48-1.07,1.07v25.3c0,.59,.48,1.07,1.07,1.07h2.35c.59,0,1.07-.48,1.07-1.07v-15.82c0-.48,.3-.89,.76-1.03,.46-.14,.94,.03,1.2,.44l11.24,17.01c.2,.31,.52,.48,.9,.48h2.84c.59,0,1.07-.48,1.07-1.07v-25.3c0-.59-.48-1.07-1.07-1.07h-2.35c-.59,0-1.07,.48-1.07,1.07h0Zm511.35-77.66h0c-.35,.15-.75,.4-1.2,.76-.07,.06-.14,.12-.22,.18h0s0,0,0,0h0s0,0,0,0h0s0,0,0,0h0s0,0,0,0h0s0,0,0,0h0s0,0,0,0h0s0,0,0,0l-.02,.02h0s0,0,0,0h0s0,0,0,0h0s0,0,0,0h0s0,.01,0,.01h0s0,0,0,0h0c-2.24,2.02-5.95,7.71-10.17,14.63-.19,.31-.5,.5-.87,.51-.37,.02-.69-.14-.91-.43-9.95-13.43-18.28-27.12-18.28-30.05,0-1.73,4.97-1.08,4.97-4.97,0-1.94-1.08-3.24-3.46-3.24h-23.98c-1.73,0-2.81,.86-2.81,2.92,0,4,5.08,3.67,6.48,6.16,7.5,13.06,15.63,26.97,26.5,38.58,.19,.21,.29,.45,.29,.73v19.88c0,5.73-6.05,2.92-6.05,7.56,0,2.05,1.08,3.24,4.97,3.24h18.15c3.89,0,4.97-1.19,4.97-3.24,0-4.64-6.05-1.84-6.05-7.56v-22.01c0-.17,.03-.31,.1-.46,2-4.22,4.02-8.06,6.04-10.96h0s.09-.13,.09-.13l.06-.08,.1-.15,.04-.06,.11-.16,.03-.04,.12-.18,.02-.02,.13-.19h0s.13-.19,.13-.19h0s.12-.18,.12-.18l.02-.03,.1-.15,.03-.05,.09-.13,.04-.06,.07-.11,.05-.07,.06-.09,.06-.09,.05-.07,.07-.1,.04-.06,.08-.11,.03-.04,.08-.12,.02-.03,.09-.13h0s.1-.15,.1-.15h0s.09-.14,.09-.14h0s.08-.13,.08-.13l.02-.03,.07-.1,.02-.04,.06-.09,.03-.05,.05-.08,.04-.06,.04-.06,.04-.07,.03-.05,.05-.07,.03-.04,.13-.19h0s.01-.03,.01-.03l.07-.1h0s.07-.11,.07-.11h0s.06-.1,.06-.1h0s.06-.1,.06-.1v-.02s.06-.07,.06-.07l.02-.03,.04-.06,.02-.04,.04-.05,.03-.04,.03-.04,.03-.05,.02-.03,.04-.06,.02-.03,.04-.06v-.02s.06-.07,.06-.07h0s.05-.09,.05-.09h0s.05-.08,.05-.08h0s.05-.07,.05-.07h0s.04-.07,.04-.07v-.02s.05-.05,.05-.05l.02-.02,.03-.05,.02-.03,.03-.04,.03-.04,.02-.03,.03-.04,.02-.03,.04-.05,.02-.02,.04-.05h.01s.04-.07,.04-.07h0s.05-.07,.05-.07h0s.05-.07,.05-.07h0s.05-.06,.05-.06h0s.04-.06,.04-.06v-.02s.05-.05,.05-.05l.02-.02,.03-.04,.02-.03,.03-.03,.03-.03,.03-.03,.03-.04,.02-.02,.04-.05,.02-.02,.05-.05h.01s.05-.07,.05-.07h0s.06-.07,.06-.07c.87-.94,.28-1.94,1.78-1.45,.3,.1,.63,.46,.85,.79,.01,.02,.02,.03,.03,.05l1.21,2.01s.05,.07,.08,.11c.42,.53,.05,.42,.42,.99,.37,.58,1,1.17,1.59,1.59,.05,.03,.09,.06,.14,.09l.19,.1c.53,.24,.5-.88,1.18-.84,.22,.01,1.05,1.19,2.09,1.76,.24,.14,.8,.67,1.02,.85,.41,.34,.7,.66,1.11,.94,.23,.16,.27,.13,.51,.31,.51,.39,1.09,.91,1.64,1.1,.36,.13,.62,.52,1.03,.69l1.13,.48,.41-.23c.1-.38-.03-.74-.03-1.11,.58-.51,.77-.17,1.38,.02l2.21,.73s.04,.02,.07,.02c.47,.19,.94,.58,1.45,.67,.43,.07,.62,.28,1.05,.45,.01,0,.04,.01,.06,.02,.06,.02,.11,.03,.16,.06l1.6,.73s.06,.03,.09,.05c.28,.16,.38,.11,.69,.18,.69,.16,1.29,.7,2.2,.79,.02,0,.04,0,.06,0h.11s.01,0,.02,0c.31,0,.25,.12,.56-.15-.04-.12-.09-.19-.13-.33-.18-.54-.58-.95-.5-1.24,.14-.46,1.14-.24,1.48-.18,.57,.1,1.74,.04,2.33-.04,.54-.08,.31-.07,.83,.06,.52,.13,.31-.01,.75-.07,.42-.05,.41,.13,.82,.12,.37-.01,.29-.1,.74-.08,0,0,.02,0,.03,0l.42,.03s.04,0,.06,0c.01,0,.03,0,.04,0,.02,0,.05,0,.08,.01,1.01,.12,2.34-.02,3.38,0,.66,.02,.99,.2,1.63-.41-.4-1.11-1.94-1.32-.49-2.06,.77-.4,1.47-.55,2.36-.95,.33-.15,.41-.17,.69-.23,.05-.01,.09-.02,.13-.04l2.36-.84s.03-.01,.05-.02c.71-.29,1.5-.35,2.23-.5,.37-.08,.49-.21,.84-.31,1.01-.31,.6-.05,1.63-.91,.47-.39,.28-.09,.76-.44,.32-.24,.83-.66,.64-.98l-.47-.41c-.05-.04-.1-.08-.15-.11-.31-.19-.36-.22-.69-.57,.32-.55,1.06-1.22,1.67-1.69,.56-.43,.24,.02,.84-.49,.3-.26,.62-.65,.93-.88,.44-.33,.32-.07,.83-.51,.94-.8,1.83-1.26,2.32-2.4-.51-.35-.86-.15-1.4-.18h-.21s-.01-.01-.02-.01c-.2-.01,.04,.07-.2-.02-.04-.1-.05-.24-.06-.39-.02-.3,.06-.56,.26-.78,.69-.8,.72-1.33,1.14-2,.01-.02,.02-.04,.04-.06l1.2-2.23c.03-.06,.05-.11,.07-.17,.14-.41,.52-.67,.75-1.11,.24-.45,.2-.67,.65-1.2,.37-.44,.34-.76,.65-1.18,.3-.42,.6-.72,.17-1.16-.36,.09-.71,.2-1.03,.28-.45,.12-.68,.2-1.13-.07,.13-.36,.22-.74,.28-1.16,0-.03,0-.05,.01-.07l.12-.52s0-.05,.01-.07c.08-.51,.44-1.39,.57-2.01,0-.04,.02-.07,.03-.1l.18-.55s0-.02,0-.04c0-.01,0-.03,0-.04,0,0,0,0,0-.01,0-.04,.02-.07,.03-.11l.38-1.2c.06-.19,.07-.36,.03-.55-.04-.17-.07-.35,.11-.73,.24-.53,.37-1.24,.55-1.79,.16-.47,.32-.19-.19-.72l-.41,.16s-.05,.02-.08,.04c-.45,.22-.71,.31-1.13-.13l.14-1.14c.04-.39,.08-.3,.2-.64,.02-.06,.03-.11,.05-.17l.23-1.26c0-.05,.02-.09,.04-.14,.17-.52,.23-.94,.6-1.49,.97-1.41,.72-1.93,1.22-3.07,.03-.07,.05-.1,.06-.14,.03-.07,.05-.12,.07-.19l.44-1.62-.4-.41c-.31,.09-.61,.24-.95,.33-.42-.4-.33-.33-.28-.8,.06-.5,.06-.35,.17-.67,.03-.1,.08-.19,.14-.28,1.8-2.56,1.75-5.13,1.94-6.56,0-.03,0-.06,.01-.09,.19-.9,.9-.97,.9-1.42-.02-.59-.67-.72-1.12-.68-.26,.02-.45,.11-.62,.23-.3,.24-.68,.29-1.04,.16-.36-.14-.6-.43-.67-.81-.17-.92-.37-2.85-1.02-7.38-.15-1.07-.02-1.16,.04-2.05,0-.11,.03-.19,.06-.29,2.03-5.59,2.92-1.37,3.14-11.91,0-.42-.21-.78-.58-.97-.12-.06-.2-.15-.23-.35-.04-.3,.8-1.07,1.28-2.01,.15-.28,.12-.43,0-.58-.29-.38-.3-.89-.02-1.28,.41-.58,.99-1.16,1.66-2.53,.21-.44,.5-.73,.76-1.19l-.46-.49-1.67,.89c-.06,.03-.11,.07-.16,.11-.26,.21-.49,.48-.78,.65-.27,.17-.35,.16-.53,.28-.28,.19-.6,.23-.92,.13-.3-.09-.5-.05-.98,.45-.75,.76-.85,.62-1.55,1.02,0,0,0,0,0,0-.17-.27-.41-.43-.72-.49-.31-.05-.6,.02-.84,.21-.05,.04-.1,.07-.15,.11-.43,.3-.55,.21-.94,.47-.22,.15-.45,.2-.72,.18-.12-.01-.22,0-.29,.05-.18,.15-.37,.23-.6,.25-.15,.01-.49,.09-1.34,.31-.27,.07-.37,.17-.66,.27-.18-.58,.41-.72-.06-1.28-.75,.27-.31,.66-2.06,.91-.13,.02-.21,.04-.28,.07-.27,.1-.53,.09-.79-.02-1.28-.55-4.6,1.28-9.52-1.06-.35-.17-.73-.14-1.06,.08-.08,.05-.15,.09-.24,.13-.47,.2-.99,.05-1.29-.36-.14-.2-.36-.27-1.02-.18-.64,.09-.81,.38-.93,.73-.13,.36-.41,.61-.78,.69-.06,.01-.14,.06-.27,.19-.26,.25-.22,.46-.5,.69-.33,.27-.95,.5-1.37,.45-.09-.01-.16-.01-.25,0-.5,.06-1.67-1.06-2.5-1.62-.35-.24-.79-.25-1.15-.03-.93,.56-3.06,1.33-3.87,1.55-.03,0-.05,.01-.08,.02l-2.13,.42s-.03,0-.05,0c-1.3,.2-.4-1.32-.84-1.94l-.98,.2c-.09,.02-.17,.04-.26,.09-.44,.21-.5,.31-.99,.39-.08,.01-.15,.03-.23,.07l-2.17,.89s-.07,.03-.1,.05c-.53,.29-1.13,.34-1.71,.57-.74,.29-1.65,.64-2.43,.65-.37,0-.45,.16-.76-.24-.11-.14-.15-.25-.16-.36-.03-.35-.21-.65-.52-.83-.3-.18-.65-.21-.98-.07l-.49,.21s-.01,0-.02,0c-.58,.23-.12-.08-.58,.15-.17,.08-.28,.2-.42,.31-.07,.05-.13,.09-.21,.13l-1.06,.48c-.06,.03-.12,.05-.19,.06-.34,.08-.08-.11-.48,.08-.22,.11-.33,.27-.55,.38-.13,.07-.32,.09-.52,.15-.04,.01-.07,.03-.11,.05l-1.16,.55s-.04,.02-.07,.03c-.54,.21-1.79,.53-2.28,.45-.3-.42-.07-.12-.17-.37-.05-.12-.11-.26-.16-.38-.17-.44-.05-.42-.24-.74-1.22,.33-3.82,2.81-4.68,3.85-.31,.37-.39,.77-.88,1.07-.65,.41-.38-.09-.91,.76-.06,.09-.11,.16-.19,.23l-1.41,1.29c-.23,.21-.51,.3-.82,.28,0,0,0,0,0,0-.01-.02-.03-.05-.04-.07-.19-.36-.53-.57-.93-.58-.4,0-.75,.19-.95,.54-.11,.19-.23,.38-.4,.59-.62,.73-.25,.33-.54,.94-.21,.45-.99,.91-1.14,1.4-.14,.47,.15,.07-.13,.52,0,0-.01,.02-.02,.03l-.59,.9s-.03,.04-.04,.07c-.33,.6-.96,.97-1.24,1.67-.06,.15,.08-.02-.18,.42-.66-.71-.84-1.26-.97-1.27-.21,.07-.42,.26-.56,.49,0,.01-.02,.03-.02,.05-.01,.02-.02,.04-.03,.06l-.05,.11s-.02,.05-.03,.07c-.01,.02-.02,.05-.03,.08-.1,.21-.09,.19-.22,.39-.32,.5-.45,.6-.59,1.09l-1.02,3.59c-.07,.23,0,.03-.03,.3,0,.04-.01,.08-.02,.12l-.24,1.05s-.01,.04-.02,.07c-.06,.19-.05,.13-.08,.31,0,.01,0,.02,0,.04l-.07,.33s-.01,.06-.02,.09c-.02,.06-.04,.12-.05,.17-.02,.07-.03,.13-.03,.2l-.06,.8c-.01,.15-.04,.27-.11,.4,0,.01,0,.04-.02,.17-.04,.41,.04,1.21-.16,1.56-.47-.49-.93-1.1-1.44-1.27-.46,.49-.48,1.13-.53,1.76l-.17,2.27s0,.08,0,.12c.02,.48,.16,.91,.12,1.36,0,.08-.02,.21-.02,.32,0,.08,0,.15,.01,.22l.55,3.21s0,.04,0,.06c.1,.92,.57,2.85,.79,3.77,.16,.67,.34,1.28-.25,1.83-.5-.51-.83-.72-1.33-.85-.19,.4-.15,.88,.03,1.3,.34,.83,.19,1.26,.62,2.04,.16,.29,.27,.43,.4,.69,0,0,0,.01,0,.02l.69,1.32s.05,.08,.08,.12c.79,1.1,.06,.54,.78,1.35,.37,.42,.28,.3,.45,.66,.21,.44,.64,1.05,.8,1.49,.03,.09,.05,.17,.06,.26h0c0,.07,.02,.13,.04,.2,.08,.27,.23,.46,.27,.78,.06,.45-.03,.31,0,.71-.29,.03-.61,.04-.94,0-.15-.01-.3-.05-.45-.05-.41,0-.22-.08-.58,.17,.52,.93,.52,1.25,1.26,2.08,.62,.69,.89,1.26,1.67,2.08,.25,.26,.74,.73,.93,1,.26,.38,.39,.69,.76,1.06,.31,.32,1.77,1.65,1.76,2.09,0,.35-.93,.14-1.29,.56-.65,.77,.7,1.24,.82,1.32,.27,.16,.39,.4,.67,.57,.22,.13,.46,.15,.73,.39,1.05,.9,.54,.32,1.41,.77,.6,.31,.82,.4,1.43,.48,.43,.06,.32,.11,.58,.22,.04,.02,.08,.03,.12,.04l.07,.02s.06,.02,.09,.02c.04,0,.06,.01,.07,.01,.09,0,.17,0,.25,.03l.86,.19s.06,.01,.1,.02c.07,0,.19,.03,.26,.04,.04,0,.08,.01,.12,.02,1.11,.28,2.38,.27,3.22,1.16,.5,.53,.85,.89,.66,1.44h0s0,0,0,0h0s0,0,0,0h0s0,0,0,0h0s0,0,0,0h0s0,0,0,0h0s0,.02,0,.02h0s0,0,0,0h0s0,0,0,0h0s0,0,0,0h0s0,0,0,0h0s0,0,0,0h0s0,0,0,0h0s0,0,0,0h0s0,0,0,0h0s0,0,0,0l-.02,.04h0s0,0,0,0h0s0,0,0,0h0ZM0,91.22c0,37.56,30.25,63.29,66.07,63.29,30.6,0,52.68-19.82,52.68-30.25,0-1.91-2.26-4.35-5.39-4.35-6.61,0-15.65,21.04-41.73,21.04-30.43,0-43.82-25.04-43.82-53.21,0-30.25,13.56-54.25,42.95-54.25,20,0,30.6,11.48,34.78,21.21,1.56,4,2.61,8.35,6.43,8.35,3.48,0,5.22-2.61,5.22-5.74,0-5.91-.52-11.65-1.74-18.95-.87-4.87-21.91-16.69-44.16-16.69C32.86,21.67,0,51.57,0,91.22H0Zm202.98-31.86c0-5.73,6.05-2.92,6.05-7.56,0-2.05-1.08-3.24-4.97-3.24h-18.15c-3.89,0-4.97,1.19-4.97,3.24,0,4.64,6.05,1.84,6.05,7.56v20.53c0,.59-.48,1.07-1.07,1.07h-35.44c-.59,0-1.07-.48-1.07-1.07v-20.53c0-5.73,6.05-2.92,6.05-7.56,0-2.05-1.08-3.24-4.97-3.24h-18.15c-3.89,0-4.97,1.19-4.97,3.24,0,4.64,6.05,1.84,6.05,7.56v57.47c0,5.73-6.05,2.92-6.05,7.56,0,2.05,1.08,3.24,4.97,3.24h18.15c3.89,0,4.97-1.19,4.97-3.24,0-4.64-6.05-1.84-6.05-7.56v-27.44c0-.59,.48-1.07,1.07-1.07h35.44c.59,0,1.07,.48,1.07,1.07v27.44c0,5.73-6.05,2.92-6.05,7.56,0,2.05,1.08,3.24,4.97,3.24h18.15c3.89,0,4.97-1.19,4.97-3.24,0-4.64-6.05-1.84-6.05-7.56V59.35h0Zm61.05,42.45c3.1,9.86,5.06,14.64,5.06,16.75,0,2.59-4.97,1.51-4.97,6.05,0,2.16,.97,3.02,3.13,3.02h20.31c2.16,0,3.67-.86,3.67-3.24,0-4.97-4.1-2.92-5.51-6.7-6.27-16.53-15.23-46.02-28.19-68.92-.76-1.4-1.51-1.94-5.62-1.94-3.67,0-4.97,.97-6.7,3.89-6.81,11.45-18.47,37.7-27.01,66.11-1.62,5.4-6.59,2.81-6.59,7.78,0,1.73,.97,3.02,2.92,3.02h14.69c2.16,0,3.56-.54,3.56-3.02,0-4.54-5.51-3.24-5.51-6.27,0-2.25,2.81-12.15,4.48-16.59,.16-.43,.55-.69,1-.69h30.24c.48,0,.88,.3,1.02,.75h0Zm30.23-11.77c0,23.33,18.8,39.32,41.05,39.32,19.01,0,32.73-12.31,32.73-18.8,0-1.19-1.4-2.7-3.35-2.7-4.1,0-9.72,13.07-25.93,13.07-18.9,0-27.22-15.56-27.22-33.05,0-18.8,8.43-33.7,26.68-33.7,12.42,0,19.01,7.13,21.6,13.18,.97,2.48,1.62,5.19,4,5.19,2.16,0,3.24-1.62,3.24-3.56,0-3.67-.32-7.24-1.08-11.77-.54-3.02-13.61-10.37-27.44-10.37-23.87,0-44.29,18.58-44.29,43.21h0Zm85.12,26.79c0,5.73-6.05,2.92-6.05,7.56,0,2.05,1.08,3.24,4.97,3.24h18.15c3.89,0,4.97-1.19,4.97-3.24,0-4.64-6.05-1.84-6.05-7.56v-16.34c0-.33,.13-.62,.39-.83l9.98-8.22c.4-.33,.97-.33,1.37,0,5.32,4.45,19.16,24.05,19.16,27.76,0,2.38-4.75,1.94-4.75,5.19,0,2.16,1.3,3.24,4.54,3.24h20.09c2.59,0,4.32-.97,4.32-3.24,0-3.67-3.13-.86-6.91-8.32-6.97-13.41-15.48-24.86-25.15-35.15-.38-.41-.39-1.03-.02-1.45,5.38-6,12.99-13.06,19.11-20.22,3.67-4.21,8.53-3.56,8.53-7.45,0-2.38-1.3-3.24-3.89-3.24h-18.26c-2.81,0-4.32,1.08-4.32,3.24,0,3.24,5.4,2.16,5.4,6.05,0,4.45-18.4,22.56-27.82,30.69-.33,.28-.76,.34-1.15,.16-.39-.18-.63-.55-.63-.98v-28.37c0-5.73,6.05-2.92,6.05-7.56,0-2.05-1.08-3.24-4.97-3.24h-18.15c-3.89,0-4.97,1.19-4.97,3.24,0,4.64,6.05,1.84,6.05,7.56v57.47h0Zm79.94,0c0,5.73-6.05,2.92-6.05,7.56,0,2.05,1.08,3.24,4.97,3.24h37.81c15.99,0,29.49-6.59,29.49-22.9,0-11.34-10.69-18.69-23.87-19.01v-.22c11.23-2.81,19.01-9.07,19.01-20.09,0-9.72-7.35-16.85-24.63-16.85h-37.81c-3.89,0-4.97,1.19-4.97,3.24,0,4.64,6.05,1.84,6.05,7.56v57.47h0Zm120.14-15.02c-.14-.45-.55-.75-1.02-.75h-30.24c-.46,0-.84,.27-1,.69-1.67,4.44-4.48,14.34-4.48,16.59,0,3.02,5.51,1.73,5.51,6.27,0,2.48-1.4,3.02-3.56,3.02h-14.69c-1.94,0-2.92-1.3-2.92-3.02,0-4.97,4.97-2.38,6.59-7.78,8.53-28.41,20.2-54.66,27.01-66.11,1.73-2.92,3.02-3.89,6.7-3.89,4.1,0,4.86,.54,5.62,1.94,12.96,22.9,21.93,52.39,28.19,68.92,1.4,3.78,5.51,1.73,5.51,6.7,0,2.38-1.51,3.24-3.67,3.24h-20.31c-2.16,0-3.13-.86-3.13-3.02,0-4.54,4.97-3.46,4.97-6.05,0-2.11-1.95-6.89-5.06-16.75h0Zm-28.81-10c-.14,.34-.1,.7,.11,1,.21,.3,.52,.47,.89,.47h23.06c.37,0,.69-.17,.89-.48,.21-.31,.24-.66,.1-1.01l-11.67-28.47c-.17-.41-.55-.67-1-.67-.45,0-.83,.26-.99,.67l-11.39,28.47h0Zm-75.34-27.8c0-7.02,1.3-8.1,11.45-8.1,11.88,0,16.64,3.67,16.64,9.51,0,13.46-16.38,17.49-26.78,19.8-.33,.07-.64,0-.9-.21-.26-.21-.4-.5-.4-.84v-20.16h0Zm.87,28.02l16.48-3.26c.11-.02,.2-.03,.31-.02,5.23,.53,15.28,5.72,15.28,16.62,0,9.94-8.32,14.91-22.79,14.91-9.18,0-10.15-1.84-10.15-8.1v-19.1c0-.52,.36-.95,.87-1.05h0Zm-240.95-.22l11.39-28.47c.17-.41,.55-.67,.99-.67,.45,0,.83,.25,1,.67l11.67,28.47c.14,.34,.1,.7-.1,1.01-.21,.31-.52,.48-.89,.48h-23.06c-.37,0-.68-.17-.89-.47-.21-.3-.24-.66-.11-1Z"/></g></svg>