<?xml version="1.0" encoding="UTF-8"?><svg id="Layer_2" xmlns="http://www.w3.org/2000/svg" viewBox="0 0 1000 261.95"><defs><style>.cls-1{fill-rule:evenodd;}</style></defs><g id="social_elements"><path class="cls-1" d="M955.89,39.8c-.92,.85-2.3,2.44-3,3.28-.37,.44-.2,.43-.53,.85-.03,.04-.06,.07-.09,.11l-2.64,2.73s-.01,.01-.02,.02c-.79,.78-.47,.98-1.29,1.82-.36,.37-.47,.54-.77,.91-.62,.78-.09-.02-.42,.88-.28,.77-.91,1.17-1.44,1.86-.33,.43-.2,.51-.45,.91-.34,.56-.86,.77-.17,1.38,.4,.35,1.26,.15,1.73,.09,.35-.04,.77-.09,1.14-.23,.16-.06,.29-.13,.51-.2,.02,0,.04-.01,.06-.02l1.34-.52c.09-.04,.17-.06,.27-.08,1.07-.2,2.46-.88,3.66-1.34,.54-.2,.61-.12,1.16-.3,.73-.24,1.58-.8,2.34-.8,.78,0,1.51-.41,2.32-.67,.21-.07,.38-.08,.52-.12,.29-.09,.36-.16,.64-.25,.64-.19,.4,.08,1.06-.23,.06-.03,.1-.05,.16-.06l4.58-1.53c.06-.02,.12-.04,.19-.05,.62-.12,1.1-.48,1.61-.56,.82-.13,3.25-1.21,4.12-1.41,.67-.15,1.72-.34,2.29-.7,1.46-.9,3.34-1.96,4.67-3.07,.04-.03,.08-.06,.12-.09l1.66-1.11s.09-.05,.13-.08c.06-.03,.14-.07,.2-.1,.03-.02,.06-.03,.09-.04,.35-.15-.09-.07,.3-.08l.13,.14c.32,.34,.45,.76,.39,1.22-.06,.46-.3,.83-.7,1.07-.06,.03-.1,.06-.15,.08-1.08,.52-.41,0-1.6,1.03-.84,.72-1.06,.33-3.47,2.53,.05,.02,.17,0,.16,.05,0,.04,.08,.04,.14,.05,.03,0,.05,0,.07,0l1.67,.14c.87,.07,1.59-.34,2.84-.32,.25,0,.04,.05,.3,0,.62-.1,1.27-.47,1.83-.77,.54-.29,.89-.3,1.45-.55,.56-.25,1.19-.15,1.64,.28l.39,.37c-.54,.51-1.01,.91-1.53,1.25-1.26,.82-4.22,1.27-5.91,1.51-.08,.01-.14,.02-.22,.02l-5.65-.02c-.64,0-.92-.04-1.46-.1-.66-.07-2.28,.24-2.95,.46l-2.88,.97s-.09,.03-.14,.06c-.41,.18-.22,.14-.67,.25-.83,.2-1.48,.32-2.25,.94l-.62-.24c-.64,.54-1.42,.8-2.23,1-.05,.01-.1,.03-.15,.05l-2.09,.76s-.05,.02-.07,.03c-.43,.18-.8,.17-1.02,.23-.28,.08-1.12,.57-2.21,.89-.02,0-.04,.01-.05,.02l-5.53,1.9s-.07,.02-.1,.04c-.43,.19-.55,.13-1,.24-.44,.11-.77,.21-1.14,.33-.65,.21-1.2,.33-1.85,.72-.3,.19-.62,.25-.98,.2-.04,0-.11,.02-.33,.11l-.64,.25c-.19,.07-.37,.1-.57,.1-.03,0-.03,.04-.48,.32-.66,.4-.43,.14-.97,.4-.77,.38-5.43,5.62-6.24,6.6-.49,.59-.42,.94-1.22,1.75-.79,.8-.94,.9-.93,1.07,.02,.44-.13,.83-.45,1.14-.76,.74-1.13,1.19-1.78,2.15-.02,.04-.05,.07-.08,.1l-1.28,1.58,.48,.76c.53-.2,.45-.05,.74-.15,.97-.33,1.12-.86,2.68-.98,1.37-.11,.36,.35,1.76-.3,.29-.14,.49-.18,.87-.17,.05,0,.07,0,.09,0,.08,0,.15,.01,.23,0l.48-.02c.1,0,.18-.02,.27-.04,.05-.01,.09-.02,.25-.04,.02,0,.04,0,.06,0l1.32-.21s.02,0,.02,0c.77-.11,1.65-.64,2.59-.71,.03,0,.06,0,.09,0l2.63-.35s.06,0,.09-.02c.67-.13,1.12-.03,1.74-.22,.82-.24,1.75-.06,2.63-.2,.66-.11,1.13-.29,1.79-.28,.82,.02,7.65-1.11,8.09-1.3,1.27-.52,.79-.66,2.37-.86,.11-.02,.21-.04,.32-.08l1.61-.59c.06-.02,.11-.04,.16-.07,.66-.34,.35-.07,.84-.24,.5-.18,.76-.72,1.26-.78,.55-.06-.16,.23,.46-.02,.06-.02,.11-.05,.16-.08l2.16-1.2s.02-.01,.03-.02c.64-.38,1.53-1.27,2.2-1.49,.76-.24-.1,.43,.95-.29,1.14-.79,2.34-1.41,3.59-1.95,.44-.19,.44-.22,.85-.36,.59-.21,1.17-.72,1.79-.96,.02,0,.04-.02,.07-.03l.28-.13s.02-.01,.03-.02c.05-.03,.09-.05,.14-.07l1.31-.59c.41-.18,.5-.03,.92-.2,.01,0,.02,0,.03-.01l1.23-.49s.06-.03,.09-.04c.94-.45,1.36-.2,2.18-.45,.07-.02,.13-.04,.21-.05l2.49-.38c.79,.08,.79,.56,.45,1-.42,.55-1.08,.79-1.56,.92-.36,.1-.46,.18-.57,.28-.18,.16-.36,.25-.59,.32l-2.94,.78s-.02,0-.03,0c-.03,0-.07,.02-.1,.03l-.68,.39c-.07,.04-.13,.07-.21,.1-.36,.13-.56,.1-.94,.32l-1.08,.59c-.05,.03-.1,.05-.15,.07-.71,.29-1.23,.83-1.72,.97-.66,.19-.44-.06-1.11,.47-.67,.53-1.33,1.43-2.01,1.76-.25,.12-.39,.19-.47,.22-.37,.14,.97-.61,.03-.02l-.03,.02c-.57,.37-1.03,.98-1.56,1.21-.43,.19-.59,.26-.99,.57-.48,.37-.49,.38-.62,.39-.19,.01-.35,.05-.52,.12l-1.84,.81s-.08,.04-.13,.06c-.28,.16-.61,.37-.88,.47l-1.17,.44s-.01,0-.02,0c-.06,.02-.11,.04-.17,.06l-.71,.19s-.07,.02-.11,.02c-.46,.09-1.51,.15-2.38,.6-.03,.01-.05,.03-.07,.04-.24,.14-.49,.2-.77,.19h-.01s-.05,0-.07,0c-.03,0-.06,0-.08,0-.85,.11-1.51,.5-2.38,.68-.05,0-.08,.02-.13,.02l-1.19,.14s-.04,0-.06,.01c-.04,0-.07,.02-.1,.03l-1.75,.53c-.73,.22-.82-.04-2,.37-.33,.12-.5,.11-.88,.17-.04,0-.08,.01-.12,.02l-.69,.06c-.06,0-.11,.01-.17,.02,0,0-.02,0-.02,0-.64,.12-1.35-.03-2.04,.16-.06,.02-.1,.03-.16,.04l-1.44,.23s-.07-.01-.1-.01l-.27-.03s-.07,0-.12,0c-.96-.03-4.03,.17-4.87,.45-.99,.34-.16,.06-1.04,.1-1.7,.08-4.01,.82-5.67,1.35-.03,0-.05,.02-.08,.02l-2.23,.57s-.07,.02-.11,.03c-.72,.24-1.21,.62-1.94,.77-.69,.15-1.35,.11-1.98,.53-1.45,.97-2.93,1.77-4.06,3.17-.32,.39-.26,.58-.57,1.02-.42,.62-1.37,1.39-.08,1.72,.59,.15,.39-.07,.95-.1,.06,0,.11,0,.17,0l5.91,.43c.07,0,.12,.01,.19,.03,.38,.08,.32,.13,.83,.13,.39,0,.66-.04,1.05-.03,.35,0,.65,.07,1.04,.12,1.37,.19,2.69,.14,4.08,.16,.72,.02,.37,.01,1.04-.22,.61-.21,2.18-.33,2.95-.44,.41-.06,.63-.14,1.05-.23,.71-.15,1.37-.12,2-.26,.82-.18,1.2-.33,2.09-.34,.36,0,.05,.03,.37-.03,.03,0,.06,0,.09-.01l2.56-.27s.02,0,.03,0c1-.08,2.04-.56,3.04-.63,1.7-.11,1.68-.37,3.51-.31,.04,0,.07,0,.11,0l2.42-.1s.05,0,.08,0c1.42,.02,2.73,.02,4.06-.39,.98-.3,2.12-.49,3.07-.95,.7-.33,1.44-.45,2.21-.65,.56-.15,.95-.15,1.4-.42,.24-.14,.28-.19,.54-.33,.44-.23,.65-.25,.99-.27,.22-.01,.19,0,.44-.05,2.72-.5,1.77-.4,4-1.01,.07-.02,.12-.04,.19-.06l.96-.4s.02,0,.04-.01c.25-.1,.31-.13,.32-.13,.21,0,.39-.02,.58-.1l1.67-.67s.07-.03,.1-.05c.86-.42,.99-.18,1.95-.65,1.43-.7,2.71-1.12,4.17-1.93,.45-.25,1.04-.73,1.57-.45,1.61,.86-2.73,2.77-3.23,3.01-.94,.44-1.69,.49-2.54,.99-.18,.1-.56,.31-.75,.4-.42,.19-.48,.14-.83,.19-.51,.07-1.12,.32-1.7,.63-.03,.02-.32,.18-.32,.18-.18,.08-.19,.08-.24,.08-.1,0-.18,.02-.28,.04l-1.39,.35c-.2,.05-.36,.13-.52,.25-.14,.11-.26,.21-.52,.32-.18,.07-.43,.1-.7,.19-.02,0-.03,.01-.05,.02l-4.79,1.86c-.05,.02-.1,.04-.16,.05-.53,.14-.92,.15-1.41,.36-.05,.02-.1,.04-.15,.06l-3.11,.97c-.06,.02-.11,.03-.16,.04-.59,.11-1,.44-1.63,.51-.04,0-.37,.05-.4,.06-.23,.08-.31,.17-.12,.51,.11,.2,.08,.16,.23,.34,.57,.69,3.47,2.52,4.28,2.85,.54,.22,.09,.04,.71,.11,.52,.07,1.45,.52,1.98,.77,.06,.03,.1,.05,.16,.06l1.2,.4c.05,.02,.1,.03,.15,.04,1.01,.22,1.95,.45,2.99,.36,.05,0,.09,0,.13,0h3.86s.06,0,.09,0c.32-.02,.33-.03,.69-.02,.52,0,.85,.03,1.36,.06,.74,.03,1.22-.17,1.86-.13,.02,0,.03,0,.05,0h.26s.05,0,.07,0c.69-.02,1.58-.23,2.12,.17-.15,.4-.31,.64-.84,.9-.67,.33-3.35,.75-4.18,.83-.02,0-.04,0-.07,0l-.7,.1s-.07,0-.1,.01c0,0,0,0,0,0-.07,0-.14,.01-.21,.01h-.91c-.09-.01-.16,0-.25,0-1.01,.16-2.83,.09-3.63-.14-.49-.14,.02-.05-.53-.11-.7-.07-1.48,0-2.18-.21-.21-.06-.3-.13-.52-.2-1.22-.36-4.93-1.46-5.77-2.01-.04-.02-.07-.04-.11-.06l-1.13-.6s-.04-.02-.06-.03c-.67-.32-1.15-.84-1.82-1.13-.03-.01-.07-.02-.1-.03-.79-.32-.95-.68-2.05-1.12-.7-.28-1.25-.67-1.97-.91-.06-.02-.11-.03-.16-.04l-2.07-.43c-.06-.01-.11-.02-.17-.03-.73-.07-1.9,.23-2.63,.46-.04,.01-.08,.02-.12,.04-.44,.16-.75,.36-1.17,.34-.05,0-.09,0-.13,0l-2.06,.11c-.12,0-.23,.03-.34,.06-.45,.13-.3,.13-.88,.15-.4,.02-.65,.02-1.05,.14-.72,.23-1.45,.11-2.09,.3-.66,.19-.33,.23-1.06,.28-2.22,.16-2.52,.5-3.78,.6-.57,.04-1-.15-1.63,0-.02,0-.04,0-.06,.01l-2.19,.42c-.07,.01-.13,.03-.19,.05-.22,.07,.06,0-.24,.04-.92,.1-7.97,0-9.09-.2-1.92-.34-3.79-.44-5.49,.87-1.52,1.16-1.47,1.6-2.41,2.92-.38,.54-.43,.56-.49,1.11l.48,.54c2.35-.71,2.47,.05,3.87,.06,1.33,.01,3.33,1.24,4.57,1.83,.45,.21,.35,.09,.72,.25,.48,.21,.8,.57,1.19,.99,.11,.11,.21,.2,.34,.28,.05,.03,.07,.04,.08,.04,.35,0,.66,.1,.93,.32,.35,.28,.68,.53,1.04,.89,.82,.84,.98,.64,2.25,1.42,.87,.54,3.1,1.94,3.92,2.11,.31,.06,.44,.05,.72,.2,.71,.39,1.64,1,2.38,1.22,.43,.13,.34,.08,.73,.26,.78,.35,1.55,.36,2.36,.77l.37,.2s.07,.03,.1,.05c.02,0,.03,.01,.05,.02l2.04,.8c.13,.05,.24,.11,.35,.2,.03,.02,.07,.04,.21,.09,.3,.1,.06,.02,.3,.05,.34,.04-.11-.08,.41,.04,.64,.15,1.32,.57,1.97,.61,.48,.03,3.41,.85,5.1,.93,1.54,.07,3.09,.38,4.65,.24,.03,0,.06,0,.09,0l4.66-.13c.59-.01,.86-.23,1.45-.25,.1,0,.19-.02,.29-.04l6.8-1.7c.08-.02,.15-.04,.23-.08,.3-.13,.32-.2,.72-.31,.16-.04,.52-.07,.72-.13,.2-.06,.26-.1,.41-.16,.03-.01,.07-.03,.11-.04l3.24-1.18s.06-.02,.1-.03c.02,0,.04-.01,.06-.02,.55-.18,.89-.5,1.88,.06-1.17,1.11-1.93,1.7-3.35,2.15-.04,.01-.08,.03-.12,.04l-1.05,.43c-.08,.03-.16,.06-.24,.08-.24,.05-.5,.07-.86,.2-.65,.22-.65,.1-1.15,.34-1.08,.52-.97,.67-2.33,.96-.02,0-.03,0-.05,.01l-.83,.15c-.17,.03-.31,.03-.48,0-.02,0-.07,0-.22,.04-.73,.16-1.15,.49-2.33,.64-.56,.07-1.27,.48-1.69,.51-.39,.03-.07-.01-.51-.09-.98-.18-1.96,0-2.93,.02l-4.35,.14s-.06,0-.1,0c-.42-.01-.58-.11-.98-.1-.43,0-.7,.07-1.17,.06-2.1-.05,1.35,1.69,1.64,1.92,.92,.74,1.79,.89,2.79,1.51,.22,.13,.46,.38,.62,.47,.57,.33,.21-.18,1.01,.22,.26,.13,.27,.22,.52,.35,.8,.42,.39,0,1.7,.87,.05,.03,.1,.06,.15,.09l.73,.38s.02,0,.03,.01c.19,.1,.12,.03,.34,.22l-.12,.15c-.37,.46-.95,.65-1.52,.51-.79-.2-1.71-.65-2.2-.81-.56-.18-.31-.14-.83-.44-.78-.45-1.75-.58-2.52-1-.02,0-.03-.02-.05-.03l-4.04-2.45s-.08-.05-.12-.08c-.53-.39-.69-.15-1.69-.84-.56-.39-1.07-.64-1.64-.93-.6-.3-.93-.25-1.52-.42-.08-.02-.15-.05-.23-.08l-2.36-1.09s-.03-.01-.04-.02c-.44-.22-.46-.06-.91-.22-.35-.12-.5-.29-.83-.43-.37-.15-.32-.07-.82-.32-.71-.35-1.45-.45-2.28-.82-.03-.01-.06-.02-.08-.04-.02,0-.04-.02-.06-.02l-5.89-2.32s-.08-.03-.13-.04c-.82-.24-2.69-1.26-3.36-1.66-.41-.24-.44-.37-.82-.55-.51-.24-.15,.09-.83-.33-1.1-.69-2.08-1.72-3.27-2.32-.62-.32-1.1-1.04-1.75-1.28-.65-.24-1.01-.15-1.67-.58-.45-.3-.74-.45-1.22-.48-.41-.02-.05,0-.41,0-.04,0-.17,0-.22,0-.79-.04-1.53-.2-2.29-.05-.78,.15-.8,0-1.46,.13-.01,0-.02,0-.03,0-.05,.01-.09,.02-.13,.02l-.16,.02c-.9,.11-1.08,.85-1.92,1.05-1.07,.26-.73,.86-1.66,1.87-.99,1.07,.31,.64-1.06,1.72-.39-.19-.8-.31-1.16-.52-.34-.2-.56-.49-.68-.86l-.72-2.43c-.06-.21-.08-.4-.05-.61,.15-1.2,.45-.94,.51-2.05,.03-.43,.04-.25,.13-.64,.12-.58-.35-1.34-.47-1.98,0-.03-.01-.08-.02-.11,0-.04,0-.07-.01-.09-.02-.19-.07-.34-.15-.51l-.8-1.59s-.01-.02-.02-.04c-1.1-2.36-1.06-1.82-2.16-3.7-.34-.58-.21-.64-.64-1.27-1.3-1.92-3.63-4.57-5.3-6.3-.75-.78-.58-.51-1.26-.84-.39-.19-.68-.5-1.08-.69-.03-.01-.05-.02-.07-.03l-1.17-.49s-.07-.03-.1-.05c-.6-.31-.55-.09-1.19-.39-.37-.17-.91-.59-1.25-.73-.68-.29-.31,.19-1.12-.32-.68-.44-.65-.36-1.17-.6-.05-.02-.09-.05-.14-.08l-3.31-2.01c-.11-.07-.2-.14-.29-.23-1.2-1.22-1.92-1.8-2.66-3.43l.76-.67c.69,.22,.73,.54,1.32,.79,.52,.22,.18-.12,.69,.26,.22,.17,.52,.51,.72,.72,.81,.81,3.35,2.12,4.38,2.98,.92,.77,.65,.19,1.42,.63,.81,.46,.43,.48,1.44,.8,.56,.17,.9,.42,1.38,.55,.86-.79-.33-2.28-.69-3.15-.01-.03-.02-.06-.04-.09l-.42-.85c-.11-.23-.16-.45-.15-.71,0-.06-.04-.18-.22-.54-.04-.07-.06-.13-.09-.21l-2.18-6.69c-.02-.05-.03-.1-.06-.15-.36-.8,.1-.34-.16-1.07-.33-.92-.97-2.43-.95-3.05,0-.03,0-.07,0-.11h0c0-.08,0-.14-.01-.21l-.13-1.07c0-.07-.02-.13-.04-.2-.49-1.84-.16-.84-.39-2.59,0-.02,0-.03,0-.05l-.18-1.1s0-.04,0-.07c-.06-.48,.07-.13-.03-.57,0,0,0-.02,0-.03l-.45-2.13c-.01-.06-.02-.11-.03-.17-.02-.21-.01-.27-.04-.43-.04-.26-.11-.38-.15-.63-.09-.58,.07-.42-.15-1.09-.01-.04-.02-.07-.03-.11l-.16-.69c-.04-.18-.05-.15-.1-.32-.41-1.4-.91-3.04-1.03-4.52-.04-.56,.07-.61,.02-1.15-.05-.54-.27-1.8-.08-2.27,1.4-.03,1.35,1.23,1.66,1.92,.35,.75,.46,.77,.62,1.57,0,.01,0,.02,0,.03l.64,2.9s.01,.05,.02,.07c.18,.67-.06-.24,.04,.27,0,.03,.01,.14,.07,.33,.09,.32,.13,.25,.21,.63l.52,2.49s.01,.05,.02,.08c.3,1.11,.24,.61,.29,1.93,.02,.52,.19,.75,.24,1.27,.05,.42,0,.97,.06,1.36,.2,1.26,.41,2.64,.84,3.8,.32,.85-.24,.45,.54,1.38l-.52-.37c.6,.77,.45,1.22,.78,2.04,.26,.65,.2,.91,.4,1.57,.16,.53,.07,1.05,.32,1.56,.34,.71,.71,1.28,.9,2.09,0,.03,.02,.06,.03,.09l.25,.8c.07,.23,.09,.43,.05,.67-.01,.09,0,.2,.13,.43,.26,.46,.46,.65,.7,1.12,.37,.77,.43,1.5,.75,2.02,.04,.06,.07,.12,.1,.19l.37,.86c.02,.05,.04,.1,.06,.15,.24,.78,1.32,1.71,1.69,2.6,.16,.39-.12-.06,.25,.52,.43,.68,1.22,1.34,1.44,2.05,.19,.62,.04,.39,.6,1,.02,.03,.04,.05,.07,.08l2.45,3.11c.07,.09,.12,.17,.17,.27,.16,.34,0,.27,.5,.87,.02,.02,.03,.04,.05,.07l1.41,1.95s.04,.06,.06,.09c.25,.41,.14,.38,.6,1.01,.7,.96,2.03,3.18,2.42,4.25,.2,.54,.36,.51,.53,1.06,.21,.71-.02,.45,.68,1.14,.81-.73,1.66-1.69,1.85-2.11,0,0,0-.01,0-.02,.03-.07,.06-.13,.1-.2l.73-1.24c.04-.06,.07-.12,.12-.17,.48-.6,.15-.26,.37-.87,.43-1.23,.38-1.55,.4-2.81,.04-1.88-.81-4.85-1.39-6.64-.08-.25-.16-.4-.27-.54-.18-.25-.28-.51-.29-.81,0-.04-.01-.1-.03-.21l-.7-1.58s-.02-.05-.03-.08c0-.02-.01-.03-.02-.05,0-.02-.02-.04-.02-.07l-.41-1.17s-.01-.04-.02-.06c0-.03-.02-.06-.03-.09-.03-.09-.12-.32-.15-.43-.27-.77-.32-.77-1-1.54-.78-.88-1.8-2.01-2.64-2.8-.74-.69-.67-.3-1.33-.96-.73-.73-4.79-4.93-5.1-5.49-.23-.42,.19-.4-.58-1.44-.03-.04-.05-.07-.07-.11l-.64-1.06c-.13-.21-.19-.42-.21-.67,0-.07-.02-.15-.06-.27-.16-.47-.25-.31-.4-.75-.2-.59,.12,0-.11-.62-.25-.66-.38-.62-.59-1.49-.16-.65-.36-.18,.06-.67,1.1,.4,1.89,1.84,2.5,2.66,.23,.31,.45,.49,.67,.76,.63,.77,.24,.73,1.88,2.5,.76,.81,.71,.64,1.05,1.55,.23,.62,4.1,4.04,4.49,4.21,.29-.41,.13-.16,.18-.54,0-.01,0-.21,0-.36,0-.1-.01-.19-.03-.29l-.31-1.49s-.02-.08-.03-.12c-.42-1.43-.5-3.9-.96-5.56-.01-.04-.02-.07-.03-.11l-.31-1.59s0-.05-.01-.08c-.06-.44-.07-.66-.28-1.13-.53-1.17-.17-1.09-.46-2.3-.1-.4-.34-.76-.39-1.07-.08-.48-.28-1.72-.59-2.27,0-.02-.02-.03-.03-.05l-.38-.73c-.03-.07-.06-.12-.08-.19-.29-.81-1.44-1.64-2.09-2-.73-.41-1.63-1.56-2.24-2.06-2.48-2-2.85-3.45-3.72-4.57-.58-.75-.67-1.39-.99-2.22-.02-.04-.07-.17-.09-.21-.32-.83-.06-1.26-.4-2.09-.39-.96-.33-1.35-.43-2.34-.06-.63-.28-1.8,.19-2.25,1.14,.85,.7,.95,.95,1.75,.16,.52,.24,.39,.29,.96,.07,.81,.36,1.41,.57,2.16,0,.03,.02,.06,.02,.09l.09,.43c.02,.08,.04,.15,.07,.23,.17,.44,.52,.82,.69,1.28,.02,.06,.04,.12,.05,.18l.02,.07c.02,.07,.03,.13,.06,.19,.66,1.78,2.63,3.58,4.14,4.58,.13,.09,.39,.31,.51,.39,.49,.36,.65,.37,.92,.54,.51,.33,.39,.45,.94,.63,.55-.44,.41-.78,.31-1.34-.11-.58,.33-1.71,.29-2.7-.04-.98,.27-1.89,.34-2.87,0-.12,.03-.22,.06-.33l.68-2.17s.02-.05,.03-.08c.08-.2,.09-.32,.13-.5,.01-.05,.03-.09,.04-.14l.7-1.99s.01-.03,.02-.05c.49-1.25,1.01-2.06,1.27-2.68,.01-.03,.03-.07,.04-.1l.4-1.12c.03-.08,.06-.14,.1-.21,.1-.18,.12-.24,.2-.51,.3-.95,.86-1.01,1.18-2.05,.25-.79,.65-.73,.96-1.36,.06-.13,.05-.31,.24-.62,.18-.3,.43-.51,.68-.77l-.17-.18c.31-.62,.13-.35,.63-1.02,.32-.43,.09-.47,.79-1.49,.19-.28,.11-.22,.28-.51,.43-.76,1.24-1.35,1.62-2.15,.34-.72,1.29-1.62,1.99-2.12,.45-.33,.7-.33,1.23,.04-.09,.57-.68,1.18-.86,1.83-.04,.16,.09,.03-.2,.44-.27,.37-.69,.64-.98,.97-.16,.18-.26,.36-.33,.59l-.04,.16s-.03,.07-.05,.1c-.24,.48-.59,.78-.99,1.23-.07,.08-.12,.15-.17,.24l-2.49,4.31c-.03,.05-.05,.1-.08,.16-.17,.39-.18,.38-.45,.79-.03,.05-.05,.09-.08,.14l-1.12,2.19s-.01,.07-.02,.1c-.21,.9-1.2,2.34-1.36,2.96,0,.03-.02,.06-.03,.09l-.59,1.75s-.03,.08-.04,.13c-.14,.6-.17,.98-.42,1.65-.02,.05-.03,.08-.04,.13l-.33,1.23s-.02,.06-.03,.1c-.23,.67-.25,1.37-.37,2.16,0,.05-.01,.09-.02,.14l-.1,1.78s0,.02,0,.02c-.09,1.19,.09,1.05,.07,1.87-.02,.76-.05,1.1,.03,1.85,.84-.13,.84-.16,1.68-.98,.68-.66,1.23-.92,1.73-1.4,.41-.39,.37-.51,.66-.77,.16-.14,.48-.33,.77-.57,.05-.04,.08-.07,.12-.12l4.55-4.78c.09-.09,.15-.18,.22-.3,.25-.44,.36-1,.67-1.41,.95-1.27,1.87-2.54,2.21-4.09,0-.02,.01-.05,.02-.07l.64-2.36c.03-.1,.06-.17,.1-.26,.08-.16,.17-.3,.24-.44,.05-.1,.09-.19,.12-.29l1.64-5.59c.03-.09,.06-.16,.1-.25,.35-.69,.06-.77,.96-1.58,.46,.46,.37,.49,.45,.99,.16,.9-.09,2.02-.35,2.93l-.52,1.85c-.02,.08-.04,.16-.05,.24-.16,1.48,.1,.24-.44,1.79-.01,.04-.03,.07-.04,.11l-.78,1.79s-.02,.05-.03,.08c-.37,1.02-.15,1.05-.66,1.9-.3,.5-.13,.58-.62,1.45-.19,.34-.09,.22-.21,.52-.17,.42-.37,.55-.46,.93-.13,.54,.2,.28-.28,.96-.04,.06-.07,.11-.1,.17l-.33,.63s0,.07-.02,.1c-.11,.41-.33,.63-.67,.98-.02,.02-.04,.04-.06,.07l-3.38,3.85s-.02,.03-.03,.04c-1.89,2.01-3.83,3.78-5.81,5.68-.81,.78-1.1,1.9-1.39,2.86-.02,.05-.03,.09-.04,.13-.06,.17-.08,.33-.07,.51v.09s0,.04,0,.06c0,.03,0,.06,.01,.1l.36,1.99s.01,.07,.02,.11c.33,1.29,.67,2.63,.81,3.94,.04,.37,.07,.43,.13,.51,.12,.16,.19,.31,.24,.49l3.2,11.73s0,.03,.01,.04c.14,.56,.29,.51,.45,1.02,0,.02,.01,.04,.02,.06l.25,.9s.01,.03,.02,.05c.08,.25,.21,.8,.31,1.04,.1,.24,.23,.42,.34,.58,.15,.21,.23,.41,.26,.66l.03,.2s0,.02,0,.03c.02,.23,.04,.32,.07,.5,0,0,0,.01,0,.02l.22,1.21c.02,.14,.03,.25,.02,.39,0,.02,.03,.06,.17,.31,.39,.71,.61,.8,.68,1.45,.02,.18,.07,.38,.13,.55,.04,.12,.08,.2,.12,.29,.03,.06,.05,.12,.07,.19l.56,1.95c.24,.86-.03,.9,.7,1.74,.19-.18,.35-.3,.52-.51,.49-.58,1.39-2.02,1.56-2.63,.27-1.01,.37-.75,.53-1.43,0-.01,0-.02,0-.03l.38-1.43c.01-.06,.03-.1,.05-.16,.61-1.59-.17-2.47,.04-3.49,.16-.77-.07-1.35-.14-2.12-.04-.4-.07-.14-.06-.53,0-.08,.05-.29,.05-.41l.07-1.49c0-.05,0-.1,.01-.15,.03-.22,.02-.19,.03-.45,0-.13,.02-.29,.02-.44,0-.06,0-.12,.01-.18l.37-2.93c.16-1.27,.2-.65,.16-2.01,0-.04,0-.08,0-.13l.08-1.33c0-.09,0-.16,0-.25,0-.09-.02-.18-.03-.34-.03-.79,.09-1.35,.12-2.09,.02-.54,.18-.93,.11-1.45-.08-.65,.22-.97,.3-1.57,.24-1.64,.22-1.47,1-3.02,.45-.89,.97-1.29,1.84-2.06,1.62,1.47-.38,2.08-.56,3.37-.19,1.38-.64,2.83-.7,4.16l-.32,6s0,.08,0,.12c.02,.56,.11,.94,.07,1.45,0,.04,0,.08,0,.12l-.03,4.34c0,.06,0,.11-.01,.17-.09,.74,.08,.75,.11,1.46,0,.02,0,.04,0,.05l.12,1.41s0,.03,0,.05c.07,.58-.17,.73,.19,1.14,.47,.54,.23,.3,.31,.25,.15-.09,.27-.19,.38-.32l2.52-2.96s.02-.02,.03-.03c.62-.69,1.26-1.94,2.68-3.52,.03-.03,.05-.05,.07-.08,.45-.58,.03-.09,.18-.44,0-.02,.27-.47,.31-.52,.34-.43,.8-.97,1.13-1.34,1.24-1.37,.6-.64,.93-1.34,.76-1.6,2.31-1.77,2.32-4.01,0-.01,0-.03,0-.04l.08-2.48c0-.24-.04-.45-.14-.67-.14-.31-.35-.67-.4-.89,0-.03-.01-.05-.02-.08l-.14-.51s-.03-.09-.04-.13c-.17-.45-.08-.18-.17-.65,0-.02,0-.04-.01-.06l-.36-1.47c-.03-.13-.05-.25-.04-.38,0-.39-.04-.4-.25-.87-.29-.66,.02-.61-.19-1.29-.02-.06-.03-.1-.04-.16l-1.34-6.92s0-.04-.01-.06c-.02-.07-.05-.23-.07-.3-.1-.37-.11-.32-.15-.74l-.34-3.31s0-.06,0-.09c-.02-.41-.02-.25-.21-.67-.46-1.06,.04-.63,0-1.37-.01-.28-.11-.32-.19-.63-.07-.25-.07-.39-.05-.7,0-.03,0-.06,0-.09l.65-5.81c.02-.14,.05-.26,.1-.39,.26-.65,.24-.31,.42-.94,0-.04,.02-.08,.03-.11,.01-.04,.03-.08,.04-.11,.06-.15,.13-.27,.2-.38,.06-.11,.11-.21,.14-.33l.48-1.58s.02-.05,.02-.08c.05-.22,.21-.44,.39-.64,.24-.28,.36-.59,.37-.96,.01-.77,.41-1.19,1.05-1.99,.2-.26,.85-.92,1.05-1.23,.4-.64,.33-.83,.87-1.34,1.48-1.39,2.91-3.94,4.75-3.66,.03,0,.09,.01,.11,.02,.02,0,.07,.01,.11,.02-.15,1.14-1.95,2.78-2.4,3.73-.44,.92-1.2,1.66-1.58,2.55-.4,.93-1.7,1.82-2.65,4.4,0,.02-.02,.04-.02,.06l-1.45,3.46c-.06,.15-.09,.28-.11,.44l-.54,5.7s0,.05,0,.07c-.06,.44,.07,.41,.15,.89l1.42,8.28c.04,.25,.02,.47-.06,.71,0,0,.03,.07,.12,.35,.32,.93,.67,1.49,.75,2.47,0,.06,.01,.11,.03,.17l.66,3.13s0,.04,.01,.07c.07,.44,.31,1.27,.59,2.12,.18,.54,.62,.91,1.19,1,.57,.09,1.1-.13,1.43-.6,.4-.55,1.07-1.33,2.26-2.53,0-.03,0-.1-.02-.09l.14-.28c.08-.17,.18-.3,.31-.42,.94-.89,2.79-2.66,3.25-3.43,.85-1.41,1.13-1.53,2.36-2.74,.66-.65,.89-1.05,1.62-1.72,1.23-1.13,.71-1.1,1.32-1.86,.4-.5,.42-.27,.59-.85,.58-1.95,.64-1.6,.24-3.53-.02-.11-.03-.2-.03-.31l.02-3.88s.02-.07,.02-.11l.21-6.91s0-.03,0-.04c0-.04,.01-.08,.02-.12l.23-1.08c.06-.29,.07-.23,.15-.51,.05-.19,.06-.32,.05-.43-.03-.37,.07-.71,.29-1.01,.29-.39,.07-.32,.31-.93,0-.01,0-.02,.01-.03l.21-.59c.03-.09,.05-.17,.07-.27,.17-1.07,.81-2.65,1.86-3.28,.44-.26,.74-.05,1.04,.34,.4,.53,.41,1.23,.02,1.77-1.22,1.71-2.05,4.3-2.17,6.12,0,.01,0,.02,0,.03l-.12,2.67c0,.08,0,.15,0,.23,.19,1.77-.38,4.23,.16,5.74,.01,.03,.03,.07,.04,.11,0,.02,.01,.04,.02,.07,0,.03,.02,.05,.03,.08l.29,.77s.01,.04,.02,.05c.25,.6,.27,1.66,1.11,1.57,.65-.07,4.47-4.5,6.39-5.44,.53-.26,9.7-7.83,12.87-10.42,.11-.09,.2-.18,.28-.3,.33-.48,1.02-.87,1.51-1.08,.1-.04,.19-.09,.28-.16,.01,0,.02,0,.05,0,.03-.02,.04-.03,.06-.03,.24-.06,.43-.15,.62-.31l3.53-2.99s.06-.05,.09-.07c.49-.36,1.01-.63,1.42-.89,1.04-.63,1.94-1.73,3.01-2.48,.88-.61,1.09-1.75,2.8,.62-.86,.85-4.72,4.81-5.72,5.14-.57,.19-3.4,2.66-4.17,3.43-.06,.06-.11,.12-.16,.19,0,0,0,0,0,0-.05,.02-.08,.04-.13,.07-.07,.04-.16,.06-.26,.05-.31-.03-.57,.03-.81,.11-.17,.06-.31,.13-.45,.25l-14.25,11.37s-.08,.06-.13,.09c-.8,.51-4.42,4.02-5.14,4.79,1.18,.37,.38,.7,1.69,.09,.88-.41,1.88-.11,2.73-.52,1.71-.81,3.78-1.14,5.55-1.84,.03-.01,.06-.02,.09-.04l15.02-7.11,.05,.05c.34,.35,.48,.8,.4,1.29-.08,.48-.36,.86-.8,1.08-3.23,1.62-9.76,4.69-10.84,5.31-.08,.05-.16,.08-.24,.11l-7.51,2.71c-.05,.02-.1,.03-.15,.05-.26,.06-.32,.12-.56,.19-.92,.28-.44-.19-.99,.06-.1,.05-.19,.08-.3,.1l-6.48,1.41c-.27,.06-.49,.17-.69,.36h0Zm-91.92,220.66v-5.76c0-.82-.67-1.49-1.49-1.49H168.48c-.82,0-1.49,.67-1.49,1.49v5.76c0,.82,.67,1.49,1.49,1.49H862.48c.82,0,1.49-.67,1.49-1.49h0Zm0-67.7v-5.76c0-.82-.67-1.49-1.49-1.49H168.48c-.82,0-1.49,.67-1.49,1.49v5.76c0,.82,.67,1.49,1.49,1.49H862.48c.82,0,1.49-.67,1.49-1.49h0Zm-22.96,11.89c-10.74,0-19.44,8.05-19.44,19.44s8.71,19.44,19.44,19.44,17.69-7.5,18.84-16.32v-3.38c0-.82-.67-1.49-1.49-1.49h-18c-.82,0-1.49,.67-1.49,1.49v2c0,.82,.67,1.49,1.49,1.49h10.98c.48,0,.89,.2,1.18,.59,.29,.38,.38,.83,.25,1.3-1.45,5.33-5.57,8.69-11.77,8.69-7.56,0-13.04-5.42-13.04-13.8s5.48-13.75,13.04-13.75c4.26,0,7.7,1.68,9.78,5.05,.28,.45,.74,.71,1.27,.71h4.3c.54,0,1.01-.27,1.28-.73,.28-.47,.28-1,.02-1.48-3.31-6.03-9.55-9.24-16.66-9.24h0Zm-31.82,1.93v21.93c0,.67-.42,1.24-1.06,1.43-.64,.19-1.3-.05-1.67-.6l-15.61-23.57c-.28-.43-.73-.67-1.24-.67h-3.95c-.82,0-1.49,.67-1.49,1.49v35.14c0,.82,.67,1.49,1.49,1.49h3.26c.82,0,1.49-.67,1.49-1.49v-21.97c0-.67,.42-1.24,1.06-1.43,.64-.19,1.3,.05,1.67,.61l15.61,23.62c.28,.43,.73,.67,1.24,.67h3.95c.82,0,1.49-.67,1.49-1.49v-35.14c0-.82-.67-1.49-1.49-1.49h-3.26c-.82,0-1.49,.67-1.49,1.49h0Zm-38,36.63h3.26c.82,0,1.49-.67,1.49-1.49v-35.08c0-.82-.67-1.49-1.49-1.49h-3.26c-.82,0-1.49,.67-1.49,1.49v35.08c0,.82,.67,1.49,1.49,1.49h0Zm-27.84-22.03v-9.45c0-.82,.67-1.49,1.49-1.49h5.41c4.87,0,7.07,2.3,7.07,6.24s-2.19,6.19-7.07,6.19h-5.41c-.82,0-1.49-.67-1.49-1.49h0Zm20.38-4.7c0-6.19-4.44-11.34-13.47-11.34h-11.65c-.82,0-1.49,.67-1.49,1.49v35.08c0,.82,.67,1.49,1.49,1.49h3.26c.82,0,1.49-.67,1.49-1.49v-12.46c0-.82,.67-1.49,1.49-1.49h5.41c9.91,0,13.47-5.86,13.47-11.28h0Zm-38.05,26.73h3.4c.5,0,.93-.22,1.22-.63,.29-.41,.35-.89,.18-1.36l-12.57-35.14c-.22-.6-.76-.99-1.4-.99h-5.13c-.64,0-1.19,.38-1.4,.99l-12.57,35.14c-.17,.47-.1,.95,.18,1.36s.72,.63,1.22,.63h3.34c.64,0,1.19-.39,1.41-1l2.04-5.79c.21-.61,.76-1,1.41-1h13.83c.64,0,1.19,.39,1.41,1l2.04,5.79c.21,.61,.76,1,1.41,1h0Zm-7.65-12.87h-8.22c-.5,0-.93-.22-1.22-.63-.29-.41-.35-.89-.19-1.36l4.13-11.7c.21-.61,.76-1,1.41-.99,.64,0,1.19,.39,1.41,1l4.09,11.7c.16,.47,.1,.95-.19,1.36-.29,.41-.72,.63-1.22,.63h0Zm-63.52-6.24c0,11.45,8.71,19.44,19.44,19.44,7.12,0,13.35-3.17,16.66-9.18,.26-.47,.25-1.01-.02-1.48-.28-.47-.74-.73-1.28-.73h-4.28c-.54,0-1.01,.27-1.29,.74-2.08,3.55-5.53,5.23-9.79,5.23-7.56,0-13.04-5.42-13.04-14.02s5.48-13.97,13.04-13.97c4.26,0,7.7,1.68,9.79,5.23,.28,.47,.74,.74,1.29,.74h4.28c.54,0,1.01-.27,1.28-.73,.28-.47,.28-1,.02-1.48-3.31-6.03-9.55-9.24-16.66-9.24-10.74,0-19.44,8.05-19.44,19.44h0Zm-5.31,8.33c0-13.91-20.16-8.54-20.16-17.14,0-3.67,2.79-5.42,6.41-5.31,3.4,.09,5.54,1.86,6.2,3.99,.2,.63,.76,1.05,1.42,1.05h3.94c.47,0,.88-.2,1.17-.57,.29-.37,.39-.81,.28-1.27-1.29-5.39-6.12-8.51-12.69-8.51-7.78,0-13.09,4.16-13.09,10.84,0,14.02,20.21,8.05,20.21,17.25,0,3.23-2.46,5.59-6.85,5.59-3.79,0-5.95-1.94-6.6-4.52-.17-.67-.75-1.12-1.44-1.12h-3.82c-.45,0-.84,.18-1.13,.52-.29,.34-.41,.76-.34,1.2,.92,5.71,6.4,9.17,13.34,9.17,8.49,0,13.15-5.48,13.15-11.17h0Zm-52.09-27.28h-10.94c-.82,0-1.49,.67-1.49,1.49v35.08c0,.82,.67,1.49,1.49,1.49h10.94c12.21,0,20.21-7.18,20.21-18.9s-8-19.17-20.21-19.17h0Zm-6.19,31.48v-24.9c0-.82,.67-1.49,1.49-1.49h4.7c8.98,0,13.8,5.37,13.8,14.08s-4.82,13.8-13.8,13.8h-4.7c-.82,0-1.49-.67-1.49-1.49h0Zm-20.7-30.05v21.93c0,.67-.42,1.24-1.06,1.43-.64,.19-1.3-.05-1.67-.6l-15.61-23.57c-.28-.43-.73-.67-1.24-.67h-3.95c-.82,0-1.49,.67-1.49,1.49v35.14c0,.82,.67,1.49,1.49,1.49h3.26c.82,0,1.49-.67,1.49-1.49v-21.97c0-.67,.42-1.24,1.06-1.43,.64-.19,1.3,.05,1.67,.61l15.61,23.62c.28,.43,.73,.67,1.24,.67h3.95c.82,0,1.49-.67,1.49-1.49v-35.14c0-.82-.67-1.49-1.49-1.49h-3.26c-.82,0-1.49,.67-1.49,1.49h0Zm-36.46,36.63h3.4c.5,0,.93-.22,1.22-.63,.29-.41,.35-.89,.18-1.36l-12.57-35.14c-.22-.6-.76-.99-1.4-.99h-5.13c-.64,0-1.19,.38-1.4,.99l-12.57,35.14c-.17,.47-.1,.95,.18,1.36s.72,.63,1.22,.63h3.34c.64,0,1.19-.39,1.41-1l2.04-5.79c.21-.61,.76-1,1.41-1h13.83c.64,0,1.19,.39,1.41,1l2.04,5.79c.21,.61,.76,1,1.41,1h0Zm-7.65-12.87h-8.22c-.5,0-.93-.22-1.22-.63-.29-.41-.35-.89-.19-1.36l4.13-11.7c.21-.61,.76-1,1.41-.99,.64,0,1.19,.39,1.41,1l4.09,11.7c.16,.47,.1,.95-.19,1.36-.29,.41-.72,.63-1.22,.63h0Zm-43.41-23.7v35.08c0,.82,.67,1.49,1.49,1.49h16.13c.82,0,1.49-.67,1.49-1.49v-2.06c0-.82-.67-1.49-1.49-1.49h-9.89c-.82,0-1.49-.67-1.49-1.49v-30.04c0-.82-.67-1.49-1.49-1.49h-3.26c-.82,0-1.49,.67-1.49,1.49h0Zm-31.72,5.37c-.4-4.42-3.87-7.74-9.79-7.74-6.52,0-10.57,3.78-10.57,8.76,0,2.17,.5,3.92,1.83,5.87,.25,.37,.32,.78,.21,1.21-.11,.43-.37,.76-.76,.96-4.92,2.54-7.31,6.53-7.31,11.19,0,7.12,5.48,11.67,13.69,11.67,4.83,0,8.75-1.45,12.18-4.47,.59-.52,1.48-.49,2.04,.06l3.25,3.25c.29,.29,.64,.44,1.05,.44h3.93c.62,0,1.14-.35,1.38-.92,.23-.57,.11-1.19-.33-1.63l-5.85-5.82c-.5-.5-.59-1.25-.22-1.84,.25-.41,.51-.82,.74-1.24l3.62-6.19c.28-.47,.28-1.02,0-1.49-.27-.48-.74-.75-1.29-.75h-3.3c-.54,0-1,.26-1.27,.72l-2.47,4.07c-.25,.4-.63,.65-1.09,.71-.47,.06-.9-.09-1.23-.42l-8.73-8.69c-2.68-2.9-3.83-4.6-3.83-6.68s1.59-3.67,4.05-3.67c1.98,0,3.42,1.04,3.76,3.03,.12,.72,.74,1.24,1.47,1.24h3.35c.43,0,.81-.16,1.1-.49,.29-.32,.42-.71,.38-1.14h0Zm-12.7,26.6c-4.49,0-7.45-2.9-7.45-6.57,0-3.14,1.73-5.62,5.49-7.36,.58-.27,1.23-.15,1.68,.3l8.3,8.35c.3,.3,.45,.67,.43,1.1-.01,.43-.18,.79-.5,1.07-2.33,2.07-4.9,3.12-7.96,3.12h0Zm-49.51-8.84v11.95c0,.82,.67,1.49,1.49,1.49h3.26c.82,0,1.49-.67,1.49-1.49v-11.95c0-.25,.05-.46,.17-.69l11.3-21.76c.25-.48,.23-1-.05-1.46-.28-.46-.74-.72-1.27-.72h-3.5c-.59,0-1.1,.32-1.35,.85l-7.07,14.97c-.25,.53-.76,.85-1.35,.85s-1.1-.32-1.35-.85l-7.07-14.97c-.25-.53-.76-.85-1.35-.85h-3.55c-.54,0-1,.26-1.27,.72-.28,.46-.3,.99-.05,1.46l11.35,21.76c.12,.22,.17,.44,.17,.69h0Zm-23.77-13.24c0,3.78-2.19,6.46-7.07,6.46h-5.41c-.82,0-1.49-.67-1.49-1.49v-9.78c0-.82,.67-1.49,1.49-1.49h5.41c4.87,0,7.07,2.47,7.07,6.3h0Zm-20.21-9.9v35.08c0,.82,.67,1.49,1.49,1.49h3.26c.82,0,1.49-.67,1.49-1.49v-12.24c0-.82,.67-1.49,1.49-1.49h2.41c.55,0,1.02,.27,1.29,.75l7.9,13.73c.27,.48,.74,.75,1.29,.75h3.96c.55,0,1.02-.28,1.3-.75,.27-.48,.27-1.03-.02-1.5l-7.11-11.9c-.23-.39-.28-.82-.13-1.25s.45-.74,.88-.9c5.13-1.96,7.1-6.3,7.1-10.36,0-6.19-4.44-11.39-13.47-11.39h-11.65c-.82,0-1.49,.67-1.49,1.49h0Zm-9.16-1.55h-18.05c-.82,0-1.49,.67-1.49,1.49v35.14c0,.82,.67,1.49,1.49,1.49h18.05c.82,0,1.49-.67,1.49-1.49v-2.11c0-.82-.67-1.49-1.49-1.49h-11.81c-.82,0-1.49-.67-1.49-1.49v-8.68c0-.82,.67-1.49,1.49-1.49h10.16c.82,0,1.49-.67,1.49-1.49v-2.11c0-.82-.67-1.49-1.49-1.49h-10.16c-.82,0-1.49-.67-1.49-1.49v-8.19c0-.82,.67-1.49,1.49-1.49h11.81c.82,0,1.49-.67,1.49-1.49v-2.11c0-.82-.67-1.49-1.49-1.49h0Zm-26.94,27.33c0-13.91-20.16-8.54-20.16-17.14,0-3.67,2.79-5.42,6.41-5.31,3.4,.09,5.54,1.86,6.2,3.99,.2,.63,.76,1.05,1.42,1.05h3.94c.47,0,.88-.2,1.17-.57,.29-.37,.39-.81,.28-1.27-1.29-5.39-6.12-8.51-12.69-8.51-7.78,0-13.09,4.16-13.09,10.84,0,14.02,20.21,8.05,20.21,17.25,0,3.23-2.46,5.59-6.85,5.59-3.79,0-5.95-1.94-6.6-4.52-.17-.67-.75-1.12-1.44-1.12h-3.82c-.45,0-.84,.18-1.13,.52-.29,.34-.41,.76-.34,1.2,.92,5.71,6.4,9.17,13.34,9.17,8.49,0,13.15-5.48,13.15-11.17h0Zm-40.09-15.88c0,3.78-2.19,6.46-7.07,6.46h-5.41c-.82,0-1.49-.67-1.49-1.49v-9.78c0-.82,.67-1.49,1.49-1.49h5.41c4.87,0,7.07,2.47,7.07,6.3h0Zm-20.21-9.9v35.08c0,.82,.67,1.49,1.49,1.49h3.26c.82,0,1.49-.67,1.49-1.49v-12.24c0-.82,.67-1.49,1.49-1.49h2.41c.55,0,1.02,.27,1.29,.75l7.9,13.73c.27,.48,.74,.75,1.29,.75h3.96c.55,0,1.02-.28,1.3-.75,.27-.48,.27-1.03-.02-1.5l-7.11-11.9c-.23-.39-.28-.82-.13-1.25s.45-.74,.88-.9c5.13-1.96,7.1-6.3,7.1-10.36,0-6.19-4.44-11.39-13.47-11.39h-11.65c-.82,0-1.49,.67-1.49,1.49h0Zm-37.85,22.66c0,9.69,6.79,14.3,14.79,14.3s14.95-4.6,14.95-14.3v-22.66c0-.82-.67-1.49-1.49-1.49h-3.26c-.82,0-1.49,.67-1.49,1.49v22.77c0,5.92-3.34,8.71-8.65,8.71s-8.6-2.79-8.6-8.71v-22.77c0-.82-.67-1.49-1.49-1.49h-3.26c-.82,0-1.49,.67-1.49,1.49v22.66h0Zm-14.4-22.72v21.93c0,.67-.42,1.24-1.06,1.43-.64,.19-1.3-.05-1.67-.6l-15.61-23.57c-.28-.43-.73-.67-1.24-.67h-3.95c-.82,0-1.49,.67-1.49,1.49v35.14c0,.82,.67,1.49,1.49,1.49h3.26c.82,0,1.49-.67,1.49-1.49v-21.97c0-.67,.42-1.24,1.06-1.43,.64-.19,1.3,.05,1.67,.61l15.61,23.62c.28,.43,.73,.67,1.24,.67h3.95c.82,0,1.49-.67,1.49-1.49v-35.14c0-.82-.67-1.49-1.49-1.49h-3.26c-.82,0-1.49,.67-1.49,1.49h0ZM906.34,98.72h0c-.49,.21-1.05,.56-1.67,1.05-.1,.08-.2,.16-.3,.25h0s0,0,0,0h0s0,.01,0,.01h0s0,0,0,0h0s0,0,0,0h0s0,0,0,0h0s0,0,0,0h0s0,0,0,0l-.03,.02h0s0,0,0,0h0s0,0,0,0h0s0,.01,0,.01h-.01s0,.02,0,.02h0s0,0,0,0h0c-3.11,2.81-8.26,10.7-14.13,20.31-.27,.44-.69,.69-1.21,.71-.51,.02-.96-.19-1.26-.6-13.82-18.65-25.38-37.66-25.38-41.73,0-2.4,6.9-1.5,6.9-6.9,0-2.7-1.5-4.5-4.8-4.5h-33.31c-2.4,0-3.9,1.2-3.9,4.05,0,5.55,7.05,5.1,9,8.55,10.41,18.14,21.7,37.46,36.8,53.58,.27,.29,.4,.63,.4,1.02v27.61c0,7.95-8.4,4.05-8.4,10.5,0,2.85,1.5,4.5,6.9,4.5h25.21c5.4,0,6.9-1.65,6.9-4.5,0-6.45-8.4-2.55-8.4-10.5v-30.57c0-.23,.04-.43,.14-.64,2.78-5.87,5.58-11.2,8.4-15.22h0s.13-.18,.13-.18l.08-.11,.14-.2,.06-.08,.16-.22,.04-.06,.17-.24,.02-.03,.18-.26h0s.18-.26,.18-.26v-.02s.18-.23,.18-.23l.03-.04,.14-.2,.04-.06,.12-.18,.06-.08,.1-.15,.07-.1,.09-.13,.08-.12,.07-.1,.09-.14,.05-.08,.11-.15,.04-.06,.12-.17,.03-.04,.12-.18v-.02s.14-.19,.14-.19h0s.13-.19,.13-.19v-.02s.13-.17,.13-.17l.02-.03,.1-.14,.03-.05,.08-.12,.04-.06,.07-.11,.05-.08,.06-.09,.06-.09,.05-.07,.07-.1,.04-.05,.18-.26v-.02s.03-.02,.03-.02l.09-.14h0s.1-.15,.1-.15h0s.09-.14,.09-.14v-.02s.09-.12,.09-.12l.02-.03,.07-.1,.03-.04,.06-.09,.03-.05,.05-.07,.04-.06,.04-.06,.05-.07,.03-.05,.05-.08,.03-.04,.06-.09,.02-.03,.07-.1h.01s.07-.12,.07-.12h0s.07-.11,.07-.11h0s.07-.1,.07-.1h.01s.06-.1,.06-.1l.02-.02,.06-.08,.02-.03,.05-.07,.03-.04,.04-.06,.04-.05,.03-.05,.04-.06,.03-.04,.05-.06,.02-.03,.06-.07v-.02s.08-.08,.08-.08h0s.07-.1,.07-.1h0s.07-.09,.07-.09h0s.07-.09,.07-.09h.01s.06-.09,.06-.09l.02-.02,.05-.06,.03-.03,.05-.06,.03-.04,.04-.05,.04-.05,.04-.04,.05-.05,.03-.03,.06-.06,.02-.02,.06-.07v-.02s.09-.08,.09-.08h0s.08-.1,.08-.1c1.21-1.3,.39-2.69,2.47-2.02,.42,.13,.87,.64,1.18,1.1,.02,.02,.03,.04,.04,.07l1.68,2.79c.03,.06,.07,.1,.11,.15,.58,.74,.07,.58,.58,1.37,.52,.8,1.39,1.62,2.2,2.2,.07,.05,.13,.08,.2,.12l.27,.13c.74,.33,.7-1.23,1.63-1.17,.3,.02,1.46,1.65,2.9,2.45,.34,.19,1.11,.93,1.42,1.18,.58,.47,.97,.92,1.54,1.3,.32,.22,.38,.18,.71,.43,.71,.54,1.51,1.26,2.28,1.53,.5,.18,.86,.72,1.43,.96l1.57,.66,.57-.32c.14-.53-.04-1.02-.04-1.54,.81-.71,1.07-.24,1.92,.03l3.07,1.01s.06,.02,.09,.03c.65,.26,1.31,.81,2.02,.94,.59,.1,.87,.39,1.45,.62,.02,0,.05,.02,.09,.03,.08,.02,.15,.05,.23,.08l2.22,1.01s.08,.04,.12,.06c.39,.22,.53,.15,.95,.25,.96,.22,1.79,.97,3.05,1.1,.03,0,.06,0,.09,0h.15s.02,0,.03,0c.44,.01,.35,.17,.77-.2-.06-.17-.12-.26-.19-.45-.25-.75-.81-1.32-.69-1.72,.19-.64,1.59-.34,2.06-.25,.79,.14,2.42,.06,3.23-.06,.76-.11,.43-.09,1.15,.09,.72,.18,.43-.02,1.04-.09,.59-.07,.57,.19,1.14,.17,.51-.02,.4-.14,1.03-.11,.01,0,.02,0,.04,0l.58,.04s.06,0,.09,0c.02,0,.04,0,.06,0,.03,0,.07,.01,.1,.01,1.4,.16,3.25-.03,4.7,0,.91,.02,1.38,.27,2.26-.56-.56-1.55-2.7-1.83-.68-2.86,1.08-.55,2.05-.76,3.28-1.32,.47-.21,.57-.24,.95-.32,.07-.01,.12-.03,.18-.05l3.28-1.16s.04-.02,.06-.02c.99-.4,2.08-.49,3.1-.7,.51-.11,.68-.29,1.17-.43,1.41-.43,.83-.07,2.26-1.26,.66-.55,.39-.12,1.05-.61,.45-.33,1.16-.92,.89-1.36l-.65-.57c-.07-.06-.14-.11-.21-.16-.43-.26-.5-.3-.96-.79,.45-.77,1.47-1.69,2.32-2.34,.78-.6,.33,.03,1.16-.69,.42-.36,.86-.9,1.3-1.23,.6-.46,.45-.1,1.15-.71,1.3-1.11,2.54-1.75,3.23-3.34-.71-.48-1.19-.21-1.95-.25l-.3-.02s-.02,0-.03,0c-.28-.02,.05,.09-.28-.03-.05-.14-.07-.34-.09-.55-.03-.41,.09-.77,.36-1.09,.96-1.11,1-1.84,1.59-2.77,.02-.03,.03-.06,.05-.09l1.66-3.09c.04-.08,.07-.15,.1-.23,.19-.57,.72-.93,1.04-1.55,.33-.63,.28-.92,.91-1.67,.51-.61,.48-1.06,.9-1.65,.42-.58,.83-1,.24-1.61-.51,.13-.99,.27-1.43,.39-.63,.16-.95,.28-1.57-.09,.18-.5,.3-1.03,.39-1.61,0-.04,.01-.07,.02-.1l.16-.73s.01-.06,.02-.1c.11-.71,.61-1.93,.8-2.79,.01-.05,.02-.1,.04-.15l.25-.76s0-.03,.01-.05c0-.02,0-.04,.01-.06,0,0,0-.01,0-.02,.01-.05,.02-.1,.04-.15l.53-1.67c.08-.26,.09-.5,.03-.76-.05-.23-.09-.48,.15-1.01,.34-.74,.51-1.73,.76-2.49,.22-.66,.45-.26-.27-1l-.57,.22s-.08,.03-.12,.05c-.62,.31-.99,.43-1.57-.18l.19-1.58c.06-.54,.11-.42,.27-.89,.03-.08,.05-.15,.06-.24l.31-1.76c.01-.07,.03-.13,.05-.2,.23-.72,.32-1.31,.84-2.06,1.34-1.95,1-2.68,1.69-4.26,.04-.09,.07-.14,.09-.19,.04-.09,.08-.17,.1-.27l.61-2.25-.55-.57c-.43,.12-.84,.34-1.31,.46-.58-.56-.46-.46-.38-1.1,.08-.69,.09-.49,.24-.94,.05-.14,.11-.26,.19-.38,2.51-3.56,2.43-7.13,2.69-9.12,0-.04,.01-.08,.02-.12,.27-1.25,1.25-1.35,1.25-1.98-.03-.82-.93-1-1.55-.94-.37,.03-.63,.15-.85,.33-.42,.33-.95,.41-1.45,.22-.5-.19-.84-.6-.94-1.12-.23-1.28-.52-3.96-1.42-10.24-.21-1.49-.03-1.61,.05-2.85,0-.15,.04-.27,.09-.41,2.81-7.76,4.06-1.9,4.36-16.55,.01-.58-.29-1.08-.8-1.35-.16-.08-.28-.21-.32-.49-.06-.42,1.11-1.48,1.78-2.8,.2-.4,.17-.59,.01-.8-.41-.53-.42-1.23-.03-1.77,.57-.8,1.38-1.61,2.31-3.51,.29-.61,.7-1.02,1.05-1.65l-.64-.68-2.32,1.24c-.08,.05-.15,.09-.23,.15-.36,.29-.68,.66-1.08,.91-.38,.23-.49,.23-.74,.39-.39,.26-.83,.32-1.28,.18-.41-.13-.69-.07-1.37,.62-1.04,1.05-1.18,.86-2.15,1.42,0,0,0,0,0,0-.23-.37-.57-.6-1-.67-.43-.08-.83,.02-1.17,.29-.06,.05-.13,.1-.21,.16-.59,.41-.77,.3-1.3,.66-.3,.2-.63,.28-.99,.24-.16-.02-.31,0-.4,.07-.24,.21-.51,.32-.83,.35-.21,.02-.68,.13-1.86,.43-.37,.09-.52,.24-.92,.38-.26-.81,.57-.99-.09-1.78-1.04,.38-.43,.91-2.85,1.26-.18,.03-.3,.06-.39,.09-.37,.13-.73,.12-1.09-.03-1.78-.76-6.39,1.78-13.23-1.47-.49-.23-1.02-.19-1.47,.11-.11,.07-.22,.13-.33,.17-.65,.27-1.37,.07-1.79-.5-.2-.28-.51-.38-1.41-.25-.88,.12-1.12,.53-1.29,1.01-.18,.5-.57,.85-1.09,.96-.09,.02-.19,.09-.37,.26-.37,.35-.3,.64-.69,.96-.46,.38-1.32,.69-1.9,.62-.12-.01-.23-.01-.35,0-.7,.08-2.32-1.47-3.48-2.25-.49-.33-1.09-.34-1.6-.04-1.3,.78-4.25,1.85-5.38,2.16-.04,.01-.07,.02-.11,.03l-2.96,.59s-.04,0-.06,.01c-1.8,.28-.56-1.84-1.17-2.69l-1.36,.27c-.13,.03-.24,.06-.36,.12-.61,.3-.7,.43-1.38,.54-.12,.02-.21,.05-.32,.09l-3.02,1.24c-.05,.02-.1,.04-.14,.07-.74,.4-1.57,.47-2.38,.79-1.03,.4-2.29,.89-3.38,.91-.51,0-.63,.22-1.06-.34-.15-.19-.2-.35-.22-.5-.04-.49-.29-.9-.72-1.15-.42-.25-.9-.29-1.35-.09l-.67,.29s-.02,0-.03,.01c-.8,.32-.16-.11-.81,.21-.23,.11-.39,.28-.59,.43-.1,.07-.18,.13-.3,.18l-1.48,.66c-.09,.04-.16,.07-.26,.09-.47,.11-.11-.16-.67,.12-.3,.15-.46,.37-.77,.53-.19,.1-.45,.12-.72,.21-.06,.02-.1,.04-.16,.06l-1.62,.77s-.06,.03-.09,.04c-.75,.29-2.49,.73-3.17,.63-.42-.58-.1-.16-.24-.52-.07-.16-.16-.37-.22-.53-.24-.61-.07-.58-.33-1.02-1.69,.46-5.31,3.9-6.5,5.35-.43,.52-.55,1.06-1.23,1.49-.9,.56-.53-.13-1.26,1.06-.08,.13-.16,.22-.27,.32l-1.96,1.79c-.32,.29-.7,.42-1.14,.39,0,0,0,0,0,0-.02-.03-.04-.07-.06-.1-.26-.5-.73-.79-1.29-.81-.56-.01-1.05,.27-1.33,.75-.15,.26-.32,.53-.56,.81-.86,1.01-.35,.45-.75,1.31-.29,.63-1.38,1.27-1.58,1.94-.2,.65,.2,.1-.18,.72,0,.01-.01,.02-.02,.04l-.82,1.25s-.04,.06-.06,.09c-.46,.83-1.33,1.35-1.73,2.32-.08,.2,.11-.02-.25,.58-.92-.98-1.17-1.75-1.34-1.76-.28,.1-.59,.37-.78,.68-.01,.02-.02,.04-.03,.06-.02,.03-.03,.06-.04,.09l-.06,.15s-.03,.07-.04,.1c-.01,.03-.03,.07-.04,.11-.13,.29-.13,.27-.31,.55-.45,.69-.62,.84-.82,1.52l-1.42,4.99c-.09,.32,0,.04-.04,.41,0,.06-.02,.11-.03,.17l-.33,1.45s-.02,.06-.02,.09c-.08,.27-.07,.18-.11,.43,0,.02,0,.03,0,.05l-.09,.45s-.02,.08-.03,.12c-.03,.09-.05,.17-.07,.24-.03,.1-.04,.18-.05,.28l-.08,1.1c-.01,.2-.06,.37-.15,.55,0,.02-.01,.06-.03,.23-.05,.56,.05,1.68-.23,2.16-.65-.68-1.3-1.52-2-1.77-.63,.68-.67,1.57-.74,2.45l-.23,3.16c0,.06,0,.11,0,.17,.03,.67,.23,1.26,.17,1.89-.01,.11-.02,.29-.03,.44,0,.11,0,.2,.02,.31l.76,4.45s0,.06,.01,.09c.14,1.28,.79,3.96,1.1,5.23,.23,.94,.48,1.77-.35,2.54-.69-.7-1.15-1.01-1.85-1.18-.27,.56-.2,1.22,.04,1.8,.48,1.16,.26,1.75,.86,2.84,.22,.4,.37,.59,.55,.96,0,0,0,.02,.01,.03l.96,1.83c.03,.06,.07,.12,.11,.17,1.1,1.53,.08,.75,1.09,1.88,.52,.58,.39,.41,.63,.92,.29,.61,.89,1.45,1.12,2.07,.05,.12,.07,.23,.08,.36h0c.01,.1,.03,.18,.05,.27,.11,.38,.32,.63,.38,1.08,.09,.63-.04,.43,0,.99-.41,.04-.84,.06-1.31,.01-.21-.02-.41-.07-.62-.07-.57-.01-.31-.11-.8,.23,.73,1.29,.72,1.73,1.75,2.88,.86,.96,1.24,1.75,2.31,2.89,.35,.37,1.03,1.01,1.29,1.4,.36,.53,.54,.95,1.05,1.48,.43,.45,2.46,2.28,2.45,2.91-.01,.49-1.29,.19-1.79,.78-.91,1.07,.97,1.73,1.14,1.83,.37,.22,.54,.55,.93,.79,.3,.18,.64,.21,1.02,.54,1.46,1.25,.75,.44,1.96,1.06,.84,.43,1.13,.55,1.98,.67,.6,.08,.44,.15,.81,.31,.06,.03,.11,.04,.17,.06l.1,.03s.08,.02,.12,.03c.06,.01,.09,.02,.1,.02,.12,0,.23,0,.35,.04l1.19,.27s.09,.02,.14,.02c.09,.01,.26,.04,.36,.05,.06,0,.1,.02,.16,.03,1.54,.39,3.3,.38,4.47,1.61,.7,.73,1.18,1.23,.91,1.99h0s0,0,0,0h0s0,0,0,0h0s0,0,0,0h0s0,0,0,0h0s0,0,0,0h0s-.01,.03-.01,.03h0s0,0,0,0h0s0,0,0,0h0s0,0,0,0h0s0,0,0,0h0s0,0,0,0h0s0,0,0,0h0s0,0,0,0h0s0,0,0,0h0s0,0,0,0l-.02,.06h0s0,0,0,0h0s0,0,0,0h0ZM0,126.69c0,52.16,42.02,87.9,91.77,87.9,42.5,0,73.17-27.53,73.17-42.02,0-2.66-3.14-6.04-7.49-6.04-9.18,0-21.73,29.22-57.96,29.22-42.26,0-60.86-34.78-60.86-73.9,0-42.02,18.84-75.35,59.65-75.35,27.77,0,42.5,15.94,48.3,29.46,2.17,5.55,3.62,11.59,8.94,11.59,4.83,0,7.24-3.62,7.24-7.97,0-8.21-.72-16.18-2.41-26.32-1.21-6.76-30.43-23.18-61.34-23.18C45.64,30.09,0,71.63,0,126.69H0Zm281.92-44.26c0-7.95,8.4-4.05,8.4-10.5,0-2.85-1.5-4.5-6.9-4.5h-25.21c-5.4,0-6.9,1.65-6.9,4.5,0,6.45,8.4,2.55,8.4,10.5v28.52c0,.82-.67,1.49-1.49,1.49h-49.23c-.82,0-1.49-.67-1.49-1.49v-28.52c0-7.95,8.4-4.05,8.4-10.5,0-2.85-1.5-4.5-6.9-4.5h-25.21c-5.4,0-6.9,1.65-6.9,4.5,0,6.45,8.4,2.55,8.4,10.5v79.82c0,7.95-8.4,4.05-8.4,10.5,0,2.85,1.5,4.5,6.9,4.5h25.21c5.4,0,6.9-1.65,6.9-4.5,0-6.45-8.4-2.55-8.4-10.5v-38.12c0-.82,.67-1.49,1.49-1.49h49.23c.82,0,1.49,.67,1.49,1.49v38.12c0,7.95-8.4,4.05-8.4,10.5,0,2.85,1.5,4.5,6.9,4.5h25.21c5.4,0,6.9-1.65,6.9-4.5,0-6.45-8.4-2.55-8.4-10.5V82.43h0Zm84.79,58.96c4.31,13.7,7.02,20.33,7.02,23.26,0,3.6-6.9,2.1-6.9,8.4,0,3,1.35,4.2,4.35,4.2h28.21c3,0,5.1-1.2,5.1-4.5,0-6.9-5.7-4.05-7.65-9.3-8.7-22.95-21.15-63.91-39.16-95.72-1.05-1.95-2.1-2.7-7.8-2.7-5.1,0-6.9,1.35-9.3,5.4-9.45,15.9-25.66,52.36-37.51,91.82-2.25,7.5-9.15,3.9-9.15,10.8,0,2.4,1.35,4.2,4.05,4.2h20.4c3,0,4.95-.75,4.95-4.2,0-6.3-7.65-4.5-7.65-8.7,0-3.13,3.9-16.87,6.22-23.04,.22-.59,.76-.96,1.4-.96h42c.66,0,1.22,.41,1.42,1.04h0Zm41.98-16.35c0,32.41,26.11,54.61,57.01,54.61,26.41,0,45.46-17.1,45.46-26.11,0-1.65-1.95-3.75-4.65-3.75-5.7,0-13.5,18.15-36.01,18.15-26.26,0-37.81-21.6-37.81-45.91,0-26.11,11.7-46.81,37.06-46.81,17.25,0,26.41,9.9,30.01,18.3,1.35,3.45,2.25,7.2,5.55,7.2,3,0,4.5-2.25,4.5-4.95,0-5.1-.45-10.05-1.5-16.35-.75-4.2-18.9-14.4-38.11-14.4-33.16,0-61.51,25.81-61.51,60.01h0Zm118.22,37.21c0,7.95-8.4,4.05-8.4,10.5,0,2.85,1.5,4.5,6.9,4.5h25.21c5.4,0,6.9-1.65,6.9-4.5,0-6.45-8.4-2.55-8.4-10.5v-22.7c0-.46,.19-.86,.54-1.15l13.85-11.41c.56-.46,1.35-.46,1.9,0,7.39,6.18,26.61,33.41,26.61,38.56,0,3.3-6.6,2.7-6.6,7.2,0,3,1.8,4.5,6.3,4.5h27.91c3.6,0,6-1.35,6-4.5,0-5.1-4.35-1.2-9.6-11.55-9.68-18.62-21.51-34.52-34.92-48.82-.53-.57-.54-1.44-.02-2.02,7.47-8.34,18.04-18.14,26.55-28.08,5.1-5.85,11.85-4.95,11.85-10.35,0-3.3-1.8-4.5-5.4-4.5h-25.36c-3.9,0-6,1.5-6,4.5,0,4.5,7.5,3,7.5,8.4,0,6.18-25.55,31.33-38.64,42.63-.45,.39-1.05,.47-1.59,.23-.54-.25-.87-.76-.87-1.36v-39.4c0-7.95,8.4-4.05,8.4-10.5,0-2.85-1.5-4.5-6.9-4.5h-25.21c-5.4,0-6.9,1.65-6.9,4.5,0,6.45,8.4,2.55,8.4,10.5v79.82h0Zm111.02,0c0,7.95-8.4,4.05-8.4,10.5,0,2.85,1.5,4.5,6.9,4.5h52.51c22.2,0,40.96-9.15,40.96-31.81,0-15.75-14.85-25.96-33.16-26.41v-.3c15.6-3.9,26.41-12.6,26.41-27.91,0-13.5-10.2-23.4-34.21-23.4h-52.51c-5.4,0-6.9,1.65-6.9,4.5,0,6.45,8.4,2.55,8.4,10.5v79.82h0Zm166.86-20.86c-.2-.63-.76-1.04-1.42-1.04h-42c-.63,0-1.17,.37-1.4,.96-2.32,6.17-6.23,19.92-6.23,23.04,0,4.2,7.65,2.4,7.65,8.7,0,3.45-1.95,4.2-4.95,4.2h-20.4c-2.7,0-4.05-1.8-4.05-4.2,0-6.9,6.9-3.3,9.15-10.8,11.85-39.46,28.06-75.92,37.51-91.82,2.4-4.05,4.2-5.4,9.3-5.4,5.7,0,6.75,.75,7.8,2.7,18,31.81,30.46,72.76,39.16,95.72,1.95,5.25,7.65,2.4,7.65,9.3,0,3.3-2.1,4.5-5.1,4.5h-28.21c-3,0-4.35-1.2-4.35-4.2,0-6.3,6.9-4.8,6.9-8.4,0-2.93-2.71-9.57-7.02-23.26h0Zm-40.02-13.89c-.19,.47-.14,.97,.15,1.39,.29,.42,.72,.65,1.23,.65h32.03c.51,0,.95-.24,1.24-.66,.29-.43,.34-.92,.14-1.4l-16.21-39.55c-.24-.57-.77-.93-1.39-.93-.62,0-1.15,.36-1.38,.94l-15.82,39.55h0Zm-104.64-38.61c0-9.75,1.8-11.25,15.9-11.25,16.5,0,23.1,5.1,23.1,13.2,0,18.7-22.76,24.3-37.19,27.5-.46,.1-.89,0-1.26-.29-.36-.29-.56-.7-.56-1.16v-28h0Zm1.2,38.92l22.89-4.52c.15-.03,.28-.04,.44-.02,7.27,.73,21.23,7.94,21.23,23.08,0,13.8-11.55,20.7-31.66,20.7-12.75,0-14.1-2.55-14.1-11.25v-26.53c0-.72,.5-1.32,1.2-1.46h0Zm-334.65-.31l15.82-39.55c.23-.58,.76-.93,1.38-.94,.62,0,1.15,.35,1.39,.93l16.21,39.55c.19,.47,.14,.97-.14,1.4-.29,.43-.73,.66-1.24,.66h-32.03c-.51,0-.95-.23-1.23-.65-.29-.42-.34-.92-.15-1.39Z"/></g></svg>